solid CATIA STL
  facet normal  0.000000e+00 -8.511167e-01  5.249766e-01
    outer loop
      vertex  3.501038e+00 -1.197425e+00  1.171010e+01
      vertex  1.149896e+01 -1.197425e+00  1.171010e+01
      vertex  3.501038e+00 -1.358305e-01  1.343121e+01
    endloop
  endfacet
  facet normal  0.000000e+00 -8.511167e-01  5.249766e-01
    outer loop
      vertex  3.501038e+00 -1.358305e-01  1.343121e+01
      vertex  1.149896e+01 -1.197425e+00  1.171010e+01
      vertex  1.149896e+01 -1.358305e-01  1.343121e+01
    endloop
  endfacet
  facet normal  0.000000e+00 -5.735763e-01  8.191521e-01
    outer loop
      vertex  3.501038e+00 -1.358305e-01  1.343121e+01
      vertex  1.149896e+01 -1.358305e-01  1.343121e+01
      vertex  3.501038e+00  1.520639e+00  1.459108e+01
    endloop
  endfacet
  facet normal  0.000000e+00 -5.735763e-01  8.191521e-01
    outer loop
      vertex  3.501038e+00  1.520639e+00  1.459108e+01
      vertex  1.149896e+01 -1.358305e-01  1.343121e+01
      vertex  1.149896e+01  1.520639e+00  1.459108e+01
    endloop
  endfacet
  facet normal  0.000000e+00 -2.022175e-01  9.793407e-01
    outer loop
      vertex  3.501038e+00  1.520639e+00  1.459108e+01
      vertex  1.149896e+01  1.520639e+00  1.459108e+01
      vertex  3.501038e+00  3.501038e+00  1.500000e+01
    endloop
  endfacet
  facet normal  0.000000e+00 -2.022175e-01  9.793407e-01
    outer loop
      vertex  3.501038e+00  3.501038e+00  1.500000e+01
      vertex  1.149896e+01  1.520639e+00  1.459108e+01
      vertex  1.149896e+01  3.501038e+00  1.500000e+01
    endloop
  endfacet
  facet normal  0.000000e+00  0.000000e+00  1.000000e+00
    outer loop
      vertex  3.501038e+00  3.501038e+00  1.500000e+01
      vertex  1.149896e+01  3.501038e+00  1.500000e+01
      vertex  3.501038e+00  1.149896e+01  1.500000e+01
    endloop
  endfacet
  facet normal  -0.000000e+00  0.000000e+00  1.000000e+00
    outer loop
      vertex  3.501038e+00  1.149896e+01  1.500000e+01
      vertex  1.149896e+01  3.501038e+00  1.500000e+01
      vertex  1.149896e+01  1.149896e+01  1.500000e+01
    endloop
  endfacet
  facet normal  9.396927e-01  0.000000e+00  3.420201e-01
    outer loop
      vertex  2.045955e+01 -7.610904e-01  0.000000e+00
      vertex  2.045955e+01  1.576109e+01  0.000000e+00
      vertex  1.619743e+01  3.501038e+00  1.171010e+01
    endloop
  endfacet
  facet normal  9.396927e-01  -0.000000e+00  3.420200e-01
    outer loop
      vertex  1.619743e+01  3.501038e+00  1.171010e+01
      vertex  2.045955e+01  1.576109e+01  0.000000e+00
      vertex  1.619743e+01  1.149896e+01  1.171010e+01
    endloop
  endfacet
  facet normal -9.396927e-01  0.000000e+00  3.420202e-01
    outer loop
      vertex -5.459554e+00  1.576109e+01  0.000000e+00
      vertex -5.459554e+00 -7.610904e-01  0.000000e+00
      vertex -1.197425e+00  1.149896e+01  1.171010e+01
    endloop
  endfacet
  facet normal -9.396926e-01  0.000000e+00  3.420201e-01
    outer loop
      vertex -1.197425e+00  1.149896e+01  1.171010e+01
      vertex -5.459554e+00 -7.610904e-01  0.000000e+00
      vertex -1.197425e+00  3.501038e+00  1.171010e+01
    endloop
  endfacet
  facet normal  0.000000e+00 -9.396927e-01  3.420202e-01
    outer loop
      vertex -7.610904e-01 -5.459554e+00  0.000000e+00
      vertex  1.576109e+01 -5.459554e+00  0.000000e+00
      vertex  3.501038e+00 -1.197425e+00  1.171010e+01
    endloop
  endfacet
  facet normal  0.000000e+00 -9.396926e-01  3.420201e-01
    outer loop
      vertex  3.501038e+00 -1.197425e+00  1.171010e+01
      vertex  1.576109e+01 -5.459554e+00  0.000000e+00
      vertex  1.149896e+01 -1.197425e+00  1.171010e+01
    endloop
  endfacet
  facet normal  6.433447e-02  9.299924e-01  3.619052e-01
    outer loop
      vertex  1.576109e+01  2.045955e+01  0.000000e+00
      vertex  1.149896e+01  1.619743e+01  1.171010e+01
      vertex  1.647228e+01  2.041035e+01  0.000000e+00
    endloop
  endfacet
  facet normal  2.241285e-01  8.828161e-01  4.127979e-01
    outer loop
      vertex  1.647228e+01  2.041035e+01  0.000000e+00
      vertex  1.149896e+01  1.619743e+01  1.171010e+01
      vertex  1.370254e+01  1.539886e+01  1.222149e+01
    endloop
  endfacet
  facet normal  3.290924e-01  8.451797e-01  4.211526e-01
    outer loop
      vertex  1.647228e+01  2.041035e+01  0.000000e+00
      vertex  1.370254e+01  1.539886e+01  1.222149e+01
      vertex  1.852422e+01  1.961138e+01  0.000000e+00
    endloop
  endfacet
  facet normal  6.707420e-01  5.785856e-01  4.640515e-01
    outer loop
      vertex  1.852422e+01  1.961138e+01  0.000000e+00
      vertex  1.370254e+01  1.539886e+01  1.222149e+01
      vertex  1.994950e+01  1.795908e+01  0.000000e+00
    endloop
  endfacet
  facet normal  6.300273e-01  6.300274e-01  4.540167e-01
    outer loop
      vertex  1.994950e+01  1.795908e+01  0.000000e+00
      vertex  1.370254e+01  1.539886e+01  1.222149e+01
      vertex  1.539886e+01  1.370254e+01  1.222149e+01
    endloop
  endfacet
  facet normal  8.911502e-01  2.067949e-01  4.038405e-01
    outer loop
      vertex  1.994950e+01  1.795908e+01  0.000000e+00
      vertex  1.539886e+01  1.370254e+01  1.222149e+01
      vertex  2.045955e+01  1.576109e+01  0.000000e+00
    endloop
  endfacet
  facet normal  8.856999e-01  2.269870e-01  4.049848e-01
    outer loop
      vertex  2.045955e+01  1.576109e+01  0.000000e+00
      vertex  1.539886e+01  1.370254e+01  1.222149e+01
      vertex  1.619743e+01  1.149896e+01  1.171010e+01
    endloop
  endfacet
  facet normal  -0.000000e+00  9.396927e-01  3.420201e-01
    outer loop
      vertex  1.576109e+01  2.045955e+01  0.000000e+00
      vertex -7.610904e-01  2.045955e+01  0.000000e+00
      vertex  1.149896e+01  1.619743e+01  1.171010e+01
    endloop
  endfacet
  facet normal  0.000000e+00  9.396927e-01  3.420200e-01
    outer loop
      vertex  1.149896e+01  1.619743e+01  1.171010e+01
      vertex -7.610904e-01  2.045955e+01  0.000000e+00
      vertex  3.501038e+00  1.619743e+01  1.171010e+01
    endloop
  endfacet
  facet normal  0.000000e+00  0.000000e+00 -1.000000e+00
    outer loop
      vertex  1.852422e+01  1.961138e+01  0.000000e+00
      vertex -2.959077e+00  1.994950e+01  0.000000e+00
      vertex  1.647228e+01  2.041035e+01  0.000000e+00
    endloop
  endfacet
  facet normal  -0.000000e+00  0.000000e+00 -1.000000e+00
    outer loop
      vertex  1.647228e+01  2.041035e+01  0.000000e+00
      vertex -2.959077e+00  1.994950e+01  0.000000e+00
      vertex -7.610904e-01  2.045955e+01  0.000000e+00
    endloop
  endfacet
  facet normal  0.000000e+00  0.000000e+00 -1.000000e+00
    outer loop
      vertex  1.647228e+01  2.041035e+01  0.000000e+00
      vertex -7.610904e-01  2.045955e+01  0.000000e+00
      vertex  1.576109e+01  2.045955e+01  0.000000e+00
    endloop
  endfacet
  facet normal  0.000000e+00  -0.000000e+00 -1.000000e+00
    outer loop
      vertex -5.459554e+00  1.576109e+01  0.000000e+00
      vertex -5.410355e+00  1.647228e+01  0.000000e+00
      vertex  2.045955e+01  1.576109e+01  0.000000e+00
    endloop
  endfacet
  facet normal  0.000000e+00  0.000000e+00 -1.000000e+00
    outer loop
      vertex  2.045955e+01  1.576109e+01  0.000000e+00
      vertex -5.410355e+00  1.647228e+01  0.000000e+00
      vertex -4.611381e+00  1.852422e+01  0.000000e+00
    endloop
  endfacet
  facet normal  0.000000e+00  0.000000e+00 -9.999999e-01
    outer loop
      vertex  2.045955e+01  1.576109e+01  0.000000e+00
      vertex -4.611381e+00  1.852422e+01  0.000000e+00
      vertex  1.994950e+01  1.795908e+01  0.000000e+00
    endloop
  endfacet
  facet normal  0.000000e+00  0.000000e+00 -1.000000e+00
    outer loop
      vertex  1.994950e+01  1.795908e+01  0.000000e+00
      vertex -4.611381e+00  1.852422e+01  0.000000e+00
      vertex -2.959077e+00  1.994950e+01  0.000000e+00
    endloop
  endfacet
  facet normal  0.000000e+00  0.000000e+00 -1.000000e+00
    outer loop
      vertex  1.994950e+01  1.795908e+01  0.000000e+00
      vertex -2.959077e+00  1.994950e+01  0.000000e+00
      vertex  1.852422e+01  1.961138e+01  0.000000e+00
    endloop
  endfacet
  facet normal  0.000000e+00  0.000000e+00 -1.000000e+00
    outer loop
      vertex -4.611381e+00 -3.524215e+00  0.000000e+00
      vertex -5.410355e+00 -1.472283e+00  0.000000e+00
      vertex  1.994950e+01 -2.959077e+00  0.000000e+00
    endloop
  endfacet
  facet normal  0.000000e+00  0.000000e+00 -1.000000e+00
    outer loop
      vertex  1.994950e+01 -2.959077e+00  0.000000e+00
      vertex -5.410355e+00 -1.472283e+00  0.000000e+00
      vertex -5.459554e+00 -7.610904e-01  0.000000e+00
    endloop
  endfacet
  facet normal  0.000000e+00  0.000000e+00 -1.000000e+00
    outer loop
      vertex  1.994950e+01 -2.959077e+00  0.000000e+00
      vertex -5.459554e+00 -7.610904e-01  0.000000e+00
      vertex  2.045955e+01 -7.610904e-01  0.000000e+00
    endloop
  endfacet
  facet normal  0.000000e+00  0.000000e+00 -1.000000e+00
    outer loop
      vertex  2.045955e+01 -7.610904e-01  0.000000e+00
      vertex -5.459554e+00 -7.610904e-01  0.000000e+00
      vertex -5.459554e+00  1.576109e+01  0.000000e+00
    endloop
  endfacet
  facet normal  0.000000e+00  0.000000e+00 -1.000000e+00
    outer loop
      vertex  2.045955e+01 -7.610904e-01  0.000000e+00
      vertex -5.459554e+00  1.576109e+01  0.000000e+00
      vertex  2.045955e+01  1.576109e+01  0.000000e+00
    endloop
  endfacet
  facet normal  0.000000e+00  0.000000e+00 -1.000000e+00
    outer loop
      vertex  1.576109e+01 -5.459554e+00  0.000000e+00
      vertex -7.610904e-01 -5.459554e+00  0.000000e+00
      vertex  1.647228e+01 -5.410355e+00  0.000000e+00
    endloop
  endfacet
  facet normal  -0.000000e+00  0.000000e+00 -1.000000e+00
    outer loop
      vertex  1.647228e+01 -5.410355e+00  0.000000e+00
      vertex -7.610904e-01 -5.459554e+00  0.000000e+00
      vertex -2.959077e+00 -4.949502e+00  0.000000e+00
    endloop
  endfacet
  facet normal  0.000000e+00  0.000000e+00 -1.000000e+00
    outer loop
      vertex  1.647228e+01 -5.410355e+00  0.000000e+00
      vertex -2.959077e+00 -4.949502e+00  0.000000e+00
      vertex  1.852422e+01 -4.611381e+00  0.000000e+00
    endloop
  endfacet
  facet normal  -0.000000e+00  0.000000e+00 -1.000000e+00
    outer loop
      vertex  1.852422e+01 -4.611381e+00  0.000000e+00
      vertex -2.959077e+00 -4.949502e+00  0.000000e+00
      vertex -4.611381e+00 -3.524215e+00  0.000000e+00
    endloop
  endfacet
  facet normal  0.000000e+00  0.000000e+00 -1.000000e+00
    outer loop
      vertex  1.852422e+01 -4.611381e+00  0.000000e+00
      vertex -4.611381e+00 -3.524215e+00  0.000000e+00
      vertex  1.994950e+01 -2.959077e+00  0.000000e+00
    endloop
  endfacet
  facet normal -9.299921e-01  6.433531e-02  3.619057e-01
    outer loop
      vertex -5.459554e+00  1.576109e+01  0.000000e+00
      vertex -1.197425e+00  1.149896e+01  1.171010e+01
      vertex -5.410355e+00  1.647228e+01  0.000000e+00
    endloop
  endfacet
  facet normal -8.828161e-01  2.241284e-01  4.127978e-01
    outer loop
      vertex -5.410355e+00  1.647228e+01  0.000000e+00
      vertex -1.197425e+00  1.149896e+01  1.171010e+01
      vertex -3.988629e-01  1.370254e+01  1.222149e+01
    endloop
  endfacet
  facet normal -8.451797e-01  3.290926e-01  4.211527e-01
    outer loop
      vertex -5.410355e+00  1.647228e+01  0.000000e+00
      vertex -3.988629e-01  1.370254e+01  1.222149e+01
      vertex -4.611381e+00  1.852422e+01  0.000000e+00
    endloop
  endfacet
  facet normal -5.785856e-01  6.707420e-01  4.640515e-01
    outer loop
      vertex -4.611381e+00  1.852422e+01  0.000000e+00
      vertex -3.988629e-01  1.370254e+01  1.222149e+01
      vertex -2.959077e+00  1.994950e+01  0.000000e+00
    endloop
  endfacet
  facet normal -6.300274e-01  6.300272e-01  4.540166e-01
    outer loop
      vertex -2.959077e+00  1.994950e+01  0.000000e+00
      vertex -3.988629e-01  1.370254e+01  1.222149e+01
      vertex  1.297455e+00  1.539886e+01  1.222149e+01
    endloop
  endfacet
  facet normal -2.067949e-01  8.911501e-01  4.038405e-01
    outer loop
      vertex -2.959077e+00  1.994950e+01  0.000000e+00
      vertex  1.297455e+00  1.539886e+01  1.222149e+01
      vertex -7.610904e-01  2.045955e+01  0.000000e+00
    endloop
  endfacet
  facet normal -2.269869e-01  8.856999e-01  4.049847e-01
    outer loop
      vertex -7.610904e-01  2.045955e+01  0.000000e+00
      vertex  1.297455e+00  1.539886e+01  1.222149e+01
      vertex  3.501038e+00  1.619743e+01  1.171010e+01
    endloop
  endfacet
  facet normal  8.926652e-01 -2.071466e-01  4.002987e-01
    outer loop
      vertex  2.045955e+01 -7.610904e-01  0.000000e+00
      vertex  1.619743e+01  3.501038e+00  1.171010e+01
      vertex  1.994950e+01 -2.959077e+00  0.000000e+00
    endloop
  endfacet
  facet normal  8.845820e-01 -2.258728e-01  4.080394e-01
    outer loop
      vertex  1.994950e+01 -2.959077e+00  0.000000e+00
      vertex  1.619743e+01  3.501038e+00  1.171010e+01
      vertex  1.539886e+01  1.297455e+00  1.222149e+01
    endloop
  endfacet
  facet normal  6.747033e-01 -5.820025e-01  4.539255e-01
    outer loop
      vertex  1.994950e+01 -2.959077e+00  0.000000e+00
      vertex  1.539886e+01  1.297455e+00  1.222149e+01
      vertex  1.852422e+01 -4.611381e+00  0.000000e+00
    endloop
  endfacet
  facet normal  6.266636e-01 -6.266639e-01  4.632333e-01
    outer loop
      vertex  1.852422e+01 -4.611381e+00  0.000000e+00
      vertex  1.539886e+01  1.297455e+00  1.222149e+01
      vertex  1.370254e+01 -3.988629e-01  1.222149e+01
    endloop
  endfacet
  facet normal  3.290926e-01 -8.451797e-01  4.211527e-01
    outer loop
      vertex  1.852422e+01 -4.611381e+00  0.000000e+00
      vertex  1.370254e+01 -3.988629e-01  1.222149e+01
      vertex  1.647228e+01 -5.410355e+00  0.000000e+00
    endloop
  endfacet
  facet normal  6.433533e-02 -9.299921e-01  3.619056e-01
    outer loop
      vertex  1.576109e+01 -5.459554e+00  0.000000e+00
      vertex  1.647228e+01 -5.410355e+00  0.000000e+00
      vertex  1.149896e+01 -1.197425e+00  1.171010e+01
    endloop
  endfacet
  facet normal  2.241284e-01 -8.828161e-01  4.127978e-01
    outer loop
      vertex  1.149896e+01 -1.197425e+00  1.171010e+01
      vertex  1.647228e+01 -5.410355e+00  0.000000e+00
      vertex  1.370254e+01 -3.988629e-01  1.222149e+01
    endloop
  endfacet
  facet normal -2.071468e-01 -8.926651e-01  4.002988e-01
    outer loop
      vertex -7.610904e-01 -5.459554e+00  0.000000e+00
      vertex  3.501038e+00 -1.197425e+00  1.171010e+01
      vertex -2.959077e+00 -4.949502e+00  0.000000e+00
    endloop
  endfacet
  facet normal -2.258727e-01 -8.845820e-01  4.080394e-01
    outer loop
      vertex -2.959077e+00 -4.949502e+00  0.000000e+00
      vertex  3.501038e+00 -1.197425e+00  1.171010e+01
      vertex  1.297455e+00 -3.988629e-01  1.222149e+01
    endloop
  endfacet
  facet normal -5.820028e-01 -6.747031e-01  4.539255e-01
    outer loop
      vertex -2.959077e+00 -4.949502e+00  0.000000e+00
      vertex  1.297455e+00 -3.988629e-01  1.222149e+01
      vertex -4.611381e+00 -3.524215e+00  0.000000e+00
    endloop
  endfacet
  facet normal -6.266639e-01 -6.266637e-01  4.632333e-01
    outer loop
      vertex -4.611381e+00 -3.524215e+00  0.000000e+00
      vertex  1.297455e+00 -3.988629e-01  1.222149e+01
      vertex -3.988629e-01  1.297455e+00  1.222149e+01
    endloop
  endfacet
  facet normal -8.451796e-01 -3.290928e-01  4.211527e-01
    outer loop
      vertex -4.611381e+00 -3.524215e+00  0.000000e+00
      vertex -3.988629e-01  1.297455e+00  1.222149e+01
      vertex -5.410355e+00 -1.472283e+00  0.000000e+00
    endloop
  endfacet
  facet normal -9.299921e-01 -6.433526e-02  3.619056e-01
    outer loop
      vertex -5.459554e+00 -7.610904e-01  0.000000e+00
      vertex -5.410355e+00 -1.472283e+00  0.000000e+00
      vertex -1.197425e+00  3.501038e+00  1.171010e+01
    endloop
  endfacet
  facet normal -8.828162e-01 -2.241284e-01  4.127978e-01
    outer loop
      vertex -1.197425e+00  3.501038e+00  1.171010e+01
      vertex -5.410355e+00 -1.472283e+00  0.000000e+00
      vertex -3.988629e-01  1.297455e+00  1.222149e+01
    endloop
  endfacet
  facet normal -8.683066e-01 -2.104265e-01  4.491819e-01
    outer loop
      vertex -1.197425e+00  3.501038e+00  1.171010e+01
      vertex -3.988629e-01  1.297455e+00  1.222149e+01
      vertex -1.176044e-01  1.786403e+00  1.299424e+01
    endloop
  endfacet
  facet normal -8.429821e-01 -1.423687e-01  5.187605e-01
    outer loop
      vertex -1.197425e+00  3.501038e+00  1.171010e+01
      vertex -1.176044e-01  1.786403e+00  1.299424e+01
      vertex  7.268742e-02  2.564713e+00  1.351706e+01
    endloop
  endfacet
  facet normal -8.427328e-01 -1.400142e-01  5.198053e-01
    outer loop
      vertex -1.197425e+00  3.501038e+00  1.171010e+01
      vertex  7.268742e-02  2.564713e+00  1.351706e+01
      vertex -1.358305e-01  3.501038e+00  1.343121e+01
    endloop
  endfacet
  facet normal -5.727837e-01 -5.255368e-02  8.180202e-01
    outer loop
      vertex -1.358305e-01  3.501038e+00  1.343121e+01
      vertex  7.268742e-02  2.564713e+00  1.351706e+01
      vertex  1.520639e+00  3.501038e+00  1.459108e+01
    endloop
  endfacet
  facet normal -4.862395e-01 -2.185451e-01  8.460550e-01
    outer loop
      vertex  1.520639e+00  3.501038e+00  1.459108e+01
      vertex  7.268742e-02  2.564713e+00  1.351706e+01
      vertex  2.132005e+00  1.843930e+00  1.451439e+01
    endloop
  endfacet
  facet normal -2.007788e-01 -1.190742e-01  9.723730e-01
    outer loop
      vertex  1.520639e+00  3.501038e+00  1.459108e+01
      vertex  2.132005e+00  1.843930e+00  1.451439e+01
      vertex  3.501038e+00  3.501038e+00  1.500000e+01
    endloop
  endfacet
  facet normal -1.020757e-01 -2.011613e-01  9.742252e-01
    outer loop
      vertex  3.501038e+00  3.501038e+00  1.500000e+01
      vertex  2.132005e+00  1.843930e+00  1.451439e+01
      vertex  3.501038e+00  1.520639e+00  1.459108e+01
    endloop
  endfacet
  facet normal -1.784237e-01 -5.643725e-01  8.060077e-01
    outer loop
      vertex  3.501038e+00  1.520639e+00  1.459108e+01
      vertex  2.132005e+00  1.843930e+00  1.451439e+01
      vertex  3.501038e+00 -1.358305e-01  1.343121e+01
    endloop
  endfacet
  facet normal -1.114745e-01 -5.352132e-01  8.373293e-01
    outer loop
      vertex  3.501038e+00 -1.358305e-01  1.343121e+01
      vertex  2.132005e+00  1.843930e+00  1.451439e+01
      vertex  1.795227e+00  4.664770e-01  1.358910e+01
    endloop
  endfacet
  facet normal -2.442961e-01 -8.253285e-01  5.090702e-01
    outer loop
      vertex  3.501038e+00 -1.358305e-01  1.343121e+01
      vertex  1.795227e+00  4.664770e-01  1.358910e+01
      vertex  3.501038e+00 -1.197425e+00  1.171010e+01
    endloop
  endfacet
  facet normal -1.603440e-01 -8.067018e-01  5.687899e-01
    outer loop
      vertex  3.501038e+00 -1.197425e+00  1.171010e+01
      vertex  1.795227e+00  4.664770e-01  1.358910e+01
      vertex  1.297455e+00 -3.988629e-01  1.222149e+01
    endloop
  endfacet
  facet normal -5.779842e-01 -5.779842e-01  5.760803e-01
    outer loop
      vertex -3.988629e-01  1.297455e+00  1.222149e+01
      vertex  1.297455e+00 -3.988629e-01  1.222149e+01
      vertex -1.176044e-01  1.786403e+00  1.299424e+01
    endloop
  endfacet
  facet normal -5.779840e-01 -5.779842e-01  5.760805e-01
    outer loop
      vertex -1.176044e-01  1.786403e+00  1.299424e+01
      vertex  1.297455e+00 -3.988629e-01  1.222149e+01
      vertex  1.795227e+00  4.664770e-01  1.358910e+01
    endloop
  endfacet
  facet normal -5.084247e-01 -3.910484e-01  7.671933e-01
    outer loop
      vertex -1.176044e-01  1.786403e+00  1.299424e+01
      vertex  1.795227e+00  4.664770e-01  1.358910e+01
      vertex  7.268742e-02  2.564713e+00  1.351706e+01
    endloop
  endfacet
  facet normal -5.084246e-01 -3.910483e-01  7.671934e-01
    outer loop
      vertex  7.268742e-02  2.564713e+00  1.351706e+01
      vertex  1.795227e+00  4.664770e-01  1.358910e+01
      vertex  2.132005e+00  1.843930e+00  1.451439e+01
    endloop
  endfacet
  facet normal -8.511167e-01  0.000000e+00  5.249766e-01
    outer loop
      vertex -1.197425e+00  1.149896e+01  1.171010e+01
      vertex -1.197425e+00  3.501038e+00  1.171010e+01
      vertex -1.358305e-01  1.149896e+01  1.343121e+01
    endloop
  endfacet
  facet normal -8.511167e-01  0.000000e+00  5.249766e-01
    outer loop
      vertex -1.358305e-01  1.149896e+01  1.343121e+01
      vertex -1.197425e+00  3.501038e+00  1.171010e+01
      vertex -1.358305e-01  3.501038e+00  1.343121e+01
    endloop
  endfacet
  facet normal -5.735763e-01  0.000000e+00  8.191521e-01
    outer loop
      vertex -1.358305e-01  1.149896e+01  1.343121e+01
      vertex -1.358305e-01  3.501038e+00  1.343121e+01
      vertex  1.520639e+00  1.149896e+01  1.459108e+01
    endloop
  endfacet
  facet normal -5.735763e-01  0.000000e+00  8.191521e-01
    outer loop
      vertex  1.520639e+00  1.149896e+01  1.459108e+01
      vertex -1.358305e-01  3.501038e+00  1.343121e+01
      vertex  1.520639e+00  3.501038e+00  1.459108e+01
    endloop
  endfacet
  facet normal -2.022175e-01  0.000000e+00  9.793407e-01
    outer loop
      vertex  1.520639e+00  1.149896e+01  1.459108e+01
      vertex  1.520639e+00  3.501038e+00  1.459108e+01
      vertex  3.501038e+00  1.149896e+01  1.500000e+01
    endloop
  endfacet
  facet normal -2.022175e-01  0.000000e+00  9.793407e-01
    outer loop
      vertex  3.501038e+00  1.149896e+01  1.500000e+01
      vertex  1.520639e+00  3.501038e+00  1.459108e+01
      vertex  3.501038e+00  3.501038e+00  1.500000e+01
    endloop
  endfacet
  facet normal -5.410475e-02  2.019213e-01  9.779061e-01
    outer loop
      vertex  3.501038e+00  1.149896e+01  1.500000e+01
      vertex  3.501038e+00  1.347936e+01  1.459108e+01
      vertex  2.510838e+00  1.321404e+01  1.459108e+01
    endloop
  endfacet
  facet normal -1.478167e-01  1.478167e-01  9.779062e-01
    outer loop
      vertex  3.501038e+00  1.149896e+01  1.500000e+01
      vertex  2.510838e+00  1.321404e+01  1.459108e+01
      vertex  1.785962e+00  1.248916e+01  1.459108e+01
    endloop
  endfacet
  facet normal -2.019213e-01  5.410468e-02  9.779062e-01
    outer loop
      vertex  3.501038e+00  1.149896e+01  1.500000e+01
      vertex  1.785962e+00  1.248916e+01  1.459108e+01
      vertex  1.520639e+00  1.149896e+01  1.459108e+01
    endloop
  endfacet
  facet normal -8.366739e-01  1.834408e-01  5.160681e-01
    outer loop
      vertex -1.197425e+00  1.149896e+01  1.171010e+01
      vertex -1.358305e-01  1.149896e+01  1.343121e+01
      vertex -3.988629e-01  1.370254e+01  1.222149e+01
    endloop
  endfacet
  facet normal -7.982008e-01  2.138773e-01  5.631447e-01
    outer loop
      vertex -3.988629e-01  1.370254e+01  1.222149e+01
      vertex -1.358305e-01  1.149896e+01  1.343121e+01
      vertex  3.514174e-01  1.331740e+01  1.343121e+01
    endloop
  endfacet
  facet normal -5.891592e-01  5.891592e-01  5.529765e-01
    outer loop
      vertex -3.988629e-01  1.370254e+01  1.222149e+01
      vertex  3.514174e-01  1.331740e+01  1.343121e+01
      vertex  1.297455e+00  1.539886e+01  1.222149e+01
    endloop
  endfacet
  facet normal -5.891592e-01  5.891592e-01  5.529765e-01
    outer loop
      vertex  1.297455e+00  1.539886e+01  1.222149e+01
      vertex  3.514174e-01  1.331740e+01  1.343121e+01
      vertex  1.682604e+00  1.464858e+01  1.343121e+01
    endloop
  endfacet
  facet normal -1.655180e-01  8.136331e-01  5.573195e-01
    outer loop
      vertex  1.297455e+00  1.539886e+01  1.222149e+01
      vertex  1.682604e+00  1.464858e+01  1.343121e+01
      vertex  3.501038e+00  1.619743e+01  1.171010e+01
    endloop
  endfacet
  facet normal -2.223474e-01  8.298111e-01  5.118351e-01
    outer loop
      vertex  3.501038e+00  1.619743e+01  1.171010e+01
      vertex  1.682604e+00  1.464858e+01  1.343121e+01
      vertex  3.501038e+00  1.513583e+01  1.343121e+01
    endloop
  endfacet
  facet normal -1.519060e-01  5.669200e-01  8.096459e-01
    outer loop
      vertex  3.501038e+00  1.347936e+01  1.459108e+01
      vertex  3.501038e+00  1.513583e+01  1.343121e+01
      vertex  2.510838e+00  1.321404e+01  1.459108e+01
    endloop
  endfacet
  facet normal -1.519059e-01  5.669199e-01  8.096458e-01
    outer loop
      vertex  2.510838e+00  1.321404e+01  1.459108e+01
      vertex  3.501038e+00  1.513583e+01  1.343121e+01
      vertex  1.682604e+00  1.464858e+01  1.343121e+01
    endloop
  endfacet
  facet normal -4.150143e-01  4.150142e-01  8.096459e-01
    outer loop
      vertex  2.510838e+00  1.321404e+01  1.459108e+01
      vertex  1.682604e+00  1.464858e+01  1.343121e+01
      vertex  1.785962e+00  1.248916e+01  1.459108e+01
    endloop
  endfacet
  facet normal -4.150142e-01  4.150141e-01  8.096458e-01
    outer loop
      vertex  1.785962e+00  1.248916e+01  1.459108e+01
      vertex  1.682604e+00  1.464858e+01  1.343121e+01
      vertex  3.514174e-01  1.331740e+01  1.343121e+01
    endloop
  endfacet
  facet normal -5.669199e-01  1.519058e-01  8.096458e-01
    outer loop
      vertex  1.785962e+00  1.248916e+01  1.459108e+01
      vertex  3.514174e-01  1.331740e+01  1.343121e+01
      vertex  1.520639e+00  1.149896e+01  1.459108e+01
    endloop
  endfacet
  facet normal -5.669199e-01  1.519058e-01  8.096458e-01
    outer loop
      vertex  1.520639e+00  1.149896e+01  1.459108e+01
      vertex  3.514174e-01  1.331740e+01  1.343121e+01
      vertex -1.358305e-01  1.149896e+01  1.343121e+01
    endloop
  endfacet
  facet normal  -0.000000e+00  8.511167e-01  5.249766e-01
    outer loop
      vertex  1.149896e+01  1.619743e+01  1.171010e+01
      vertex  3.501038e+00  1.619743e+01  1.171010e+01
      vertex  1.149896e+01  1.513583e+01  1.343121e+01
    endloop
  endfacet
  facet normal  0.000000e+00  8.511167e-01  5.249766e-01
    outer loop
      vertex  1.149896e+01  1.513583e+01  1.343121e+01
      vertex  3.501038e+00  1.619743e+01  1.171010e+01
      vertex  3.501038e+00  1.513583e+01  1.343121e+01
    endloop
  endfacet
  facet normal  -0.000000e+00  5.735763e-01  8.191521e-01
    outer loop
      vertex  1.149896e+01  1.513583e+01  1.343121e+01
      vertex  3.501038e+00  1.513583e+01  1.343121e+01
      vertex  1.149896e+01  1.347936e+01  1.459108e+01
    endloop
  endfacet
  facet normal  0.000000e+00  5.735763e-01  8.191521e-01
    outer loop
      vertex  1.149896e+01  1.347936e+01  1.459108e+01
      vertex  3.501038e+00  1.513583e+01  1.343121e+01
      vertex  3.501038e+00  1.347936e+01  1.459108e+01
    endloop
  endfacet
  facet normal  -0.000000e+00  2.022175e-01  9.793406e-01
    outer loop
      vertex  1.149896e+01  1.347936e+01  1.459108e+01
      vertex  3.501038e+00  1.347936e+01  1.459108e+01
      vertex  1.149896e+01  1.149896e+01  1.500000e+01
    endloop
  endfacet
  facet normal  0.000000e+00  2.022175e-01  9.793406e-01
    outer loop
      vertex  1.149896e+01  1.149896e+01  1.500000e+01
      vertex  3.501038e+00  1.347936e+01  1.459108e+01
      vertex  3.501038e+00  1.149896e+01  1.500000e+01
    endloop
  endfacet
  facet normal  2.019213e-01  5.410476e-02  9.779062e-01
    outer loop
      vertex  1.149896e+01  1.149896e+01  1.500000e+01
      vertex  1.347936e+01  1.149896e+01  1.459108e+01
      vertex  1.321404e+01  1.248916e+01  1.459108e+01
    endloop
  endfacet
  facet normal  1.478167e-01  1.478167e-01  9.779062e-01
    outer loop
      vertex  1.149896e+01  1.149896e+01  1.500000e+01
      vertex  1.321404e+01  1.248916e+01  1.459108e+01
      vertex  1.248916e+01  1.321404e+01  1.459108e+01
    endloop
  endfacet
  facet normal  5.410476e-02  2.019213e-01  9.779061e-01
    outer loop
      vertex  1.149896e+01  1.149896e+01  1.500000e+01
      vertex  1.248916e+01  1.321404e+01  1.459108e+01
      vertex  1.149896e+01  1.347936e+01  1.459108e+01
    endloop
  endfacet
  facet normal  1.834410e-01  8.366738e-01  5.160681e-01
    outer loop
      vertex  1.149896e+01  1.619743e+01  1.171010e+01
      vertex  1.149896e+01  1.513583e+01  1.343121e+01
      vertex  1.370254e+01  1.539886e+01  1.222149e+01
    endloop
  endfacet
  facet normal  2.138775e-01  7.982008e-01  5.631447e-01
    outer loop
      vertex  1.370254e+01  1.539886e+01  1.222149e+01
      vertex  1.149896e+01  1.513583e+01  1.343121e+01
      vertex  1.331740e+01  1.464858e+01  1.343121e+01
    endloop
  endfacet
  facet normal  5.891592e-01  5.891591e-01  5.529764e-01
    outer loop
      vertex  1.370254e+01  1.539886e+01  1.222149e+01
      vertex  1.331740e+01  1.464858e+01  1.343121e+01
      vertex  1.539886e+01  1.370254e+01  1.222149e+01
    endloop
  endfacet
  facet normal  5.891592e-01  5.891591e-01  5.529765e-01
    outer loop
      vertex  1.539886e+01  1.370254e+01  1.222149e+01
      vertex  1.331740e+01  1.464858e+01  1.343121e+01
      vertex  1.464858e+01  1.331740e+01  1.343121e+01
    endloop
  endfacet
  facet normal  8.136331e-01  1.655180e-01  5.573195e-01
    outer loop
      vertex  1.539886e+01  1.370254e+01  1.222149e+01
      vertex  1.464858e+01  1.331740e+01  1.343121e+01
      vertex  1.619743e+01  1.149896e+01  1.171010e+01
    endloop
  endfacet
  facet normal  8.298112e-01  2.223475e-01  5.118352e-01
    outer loop
      vertex  1.619743e+01  1.149896e+01  1.171010e+01
      vertex  1.464858e+01  1.331740e+01  1.343121e+01
      vertex  1.513583e+01  1.149896e+01  1.343121e+01
    endloop
  endfacet
  facet normal  5.669200e-01  1.519060e-01  8.096458e-01
    outer loop
      vertex  1.347936e+01  1.149896e+01  1.459108e+01
      vertex  1.513583e+01  1.149896e+01  1.343121e+01
      vertex  1.321404e+01  1.248916e+01  1.459108e+01
    endloop
  endfacet
  facet normal  5.669199e-01  1.519059e-01  8.096458e-01
    outer loop
      vertex  1.321404e+01  1.248916e+01  1.459108e+01
      vertex  1.513583e+01  1.149896e+01  1.343121e+01
      vertex  1.464858e+01  1.331740e+01  1.343121e+01
    endloop
  endfacet
  facet normal  4.150142e-01  4.150142e-01  8.096458e-01
    outer loop
      vertex  1.321404e+01  1.248916e+01  1.459108e+01
      vertex  1.464858e+01  1.331740e+01  1.343121e+01
      vertex  1.248916e+01  1.321404e+01  1.459108e+01
    endloop
  endfacet
  facet normal  4.150142e-01  4.150142e-01  8.096458e-01
    outer loop
      vertex  1.248916e+01  1.321404e+01  1.459108e+01
      vertex  1.464858e+01  1.331740e+01  1.343121e+01
      vertex  1.331740e+01  1.464858e+01  1.343121e+01
    endloop
  endfacet
  facet normal  1.519060e-01  5.669198e-01  8.096460e-01
    outer loop
      vertex  1.248916e+01  1.321404e+01  1.459108e+01
      vertex  1.331740e+01  1.464858e+01  1.343121e+01
      vertex  1.149896e+01  1.347936e+01  1.459108e+01
    endloop
  endfacet
  facet normal  1.519059e-01  5.669199e-01  8.096458e-01
    outer loop
      vertex  1.149896e+01  1.347936e+01  1.459108e+01
      vertex  1.331740e+01  1.464858e+01  1.343121e+01
      vertex  1.149896e+01  1.513583e+01  1.343121e+01
    endloop
  endfacet
  facet normal  8.511167e-01  0.000000e+00  5.249766e-01
    outer loop
      vertex  1.619743e+01  3.501038e+00  1.171010e+01
      vertex  1.619743e+01  1.149896e+01  1.171010e+01
      vertex  1.513583e+01  3.501038e+00  1.343121e+01
    endloop
  endfacet
  facet normal  8.511167e-01  -0.000000e+00  5.249766e-01
    outer loop
      vertex  1.513583e+01  3.501038e+00  1.343121e+01
      vertex  1.619743e+01  1.149896e+01  1.171010e+01
      vertex  1.513583e+01  1.149896e+01  1.343121e+01
    endloop
  endfacet
  facet normal  5.735763e-01  0.000000e+00  8.191521e-01
    outer loop
      vertex  1.513583e+01  3.501038e+00  1.343121e+01
      vertex  1.513583e+01  1.149896e+01  1.343121e+01
      vertex  1.347936e+01  3.501038e+00  1.459108e+01
    endloop
  endfacet
  facet normal  5.735763e-01  -0.000000e+00  8.191521e-01
    outer loop
      vertex  1.347936e+01  3.501038e+00  1.459108e+01
      vertex  1.513583e+01  1.149896e+01  1.343121e+01
      vertex  1.347936e+01  1.149896e+01  1.459108e+01
    endloop
  endfacet
  facet normal  2.022175e-01  0.000000e+00  9.793406e-01
    outer loop
      vertex  1.347936e+01  3.501038e+00  1.459108e+01
      vertex  1.347936e+01  1.149896e+01  1.459108e+01
      vertex  1.149896e+01  3.501038e+00  1.500000e+01
    endloop
  endfacet
  facet normal  2.022175e-01  -0.000000e+00  9.793406e-01
    outer loop
      vertex  1.149896e+01  3.501038e+00  1.500000e+01
      vertex  1.347936e+01  1.149896e+01  1.459108e+01
      vertex  1.149896e+01  1.149896e+01  1.500000e+01
    endloop
  endfacet
  facet normal  1.698032e-01 -5.205717e-01  8.367629e-01
    outer loop
      vertex  1.149896e+01  1.520639e+00  1.459108e+01
      vertex  1.320477e+01  4.664770e-01  1.358910e+01
      vertex  1.286799e+01  1.843930e+00  1.451439e+01
    endloop
  endfacet
  facet normal  2.236152e-01 -7.848203e-01  5.779735e-01
    outer loop
      vertex  1.149896e+01 -1.358305e-01  1.343121e+01
      vertex  1.370254e+01 -3.988629e-01  1.222149e+01
      vertex  1.320477e+01  4.664770e-01  1.358910e+01
    endloop
  endfacet
  facet normal  1.256978e-01 -5.690271e-01  8.126550e-01
    outer loop
      vertex  1.149896e+01 -1.358305e-01  1.343121e+01
      vertex  1.320477e+01  4.664770e-01  1.358910e+01
      vertex  1.149896e+01  1.520639e+00  1.459108e+01
    endloop
  endfacet
  facet normal  1.834408e-01 -8.366739e-01  5.160681e-01
    outer loop
      vertex  1.149896e+01 -1.197425e+00  1.171010e+01
      vertex  1.370254e+01 -3.988629e-01  1.222149e+01
      vertex  1.149896e+01 -1.358305e-01  1.343121e+01
    endloop
  endfacet
  facet normal  8.427327e-01 -1.400143e-01  5.198053e-01
    outer loop
      vertex  1.619743e+01  3.501038e+00  1.171010e+01
      vertex  1.513583e+01  3.501038e+00  1.343121e+01
      vertex  1.492731e+01  2.564713e+00  1.351706e+01
    endloop
  endfacet
  facet normal  8.429821e-01 -1.423691e-01  5.187604e-01
    outer loop
      vertex  1.619743e+01  3.501038e+00  1.171010e+01
      vertex  1.492731e+01  2.564713e+00  1.351706e+01
      vertex  1.511760e+01  1.786403e+00  1.299424e+01
    endloop
  endfacet
  facet normal  8.683065e-01 -2.104267e-01  4.491822e-01
    outer loop
      vertex  1.619743e+01  3.501038e+00  1.171010e+01
      vertex  1.511760e+01  1.786403e+00  1.299424e+01
      vertex  1.539886e+01  1.297455e+00  1.222149e+01
    endloop
  endfacet
  facet normal  4.402776e-01 -1.573680e-02  8.977239e-01
    outer loop
      vertex  1.492731e+01  2.564713e+00  1.351706e+01
      vertex  1.513583e+01  3.501038e+00  1.343121e+01
      vertex  1.286799e+01  1.843930e+00  1.451439e+01
    endloop
  endfacet
  facet normal  5.565133e-01 -2.420991e-01  7.947835e-01
    outer loop
      vertex  1.286799e+01  1.843930e+00  1.451439e+01
      vertex  1.513583e+01  3.501038e+00  1.343121e+01
      vertex  1.347936e+01  3.501038e+00  1.459108e+01
    endloop
  endfacet
  facet normal  7.294229e-02 -7.294229e-02  9.946651e-01
    outer loop
      vertex  1.286799e+01  1.843930e+00  1.451439e+01
      vertex  1.347936e+01  3.501038e+00  1.459108e+01
      vertex  1.149896e+01  1.520639e+00  1.459108e+01
    endloop
  endfacet
  facet normal  1.982056e-01 -1.982056e-01  9.599110e-01
    outer loop
      vertex  1.149896e+01  1.520639e+00  1.459108e+01
      vertex  1.347936e+01  3.501038e+00  1.459108e+01
      vertex  1.149896e+01  3.501038e+00  1.500000e+01
    endloop
  endfacet
  facet normal  5.084245e-01 -3.910486e-01  7.671933e-01
    outer loop
      vertex  1.492731e+01  2.564713e+00  1.351706e+01
      vertex  1.286799e+01  1.843930e+00  1.451439e+01
      vertex  1.511760e+01  1.786403e+00  1.299424e+01
    endloop
  endfacet
  facet normal  5.084246e-01 -3.910482e-01  7.671934e-01
    outer loop
      vertex  1.511760e+01  1.786403e+00  1.299424e+01
      vertex  1.286799e+01  1.843930e+00  1.451439e+01
      vertex  1.320477e+01  4.664770e-01  1.358910e+01
    endloop
  endfacet
  facet normal  5.779840e-01 -5.779843e-01  5.760803e-01
    outer loop
      vertex  1.511760e+01  1.786403e+00  1.299424e+01
      vertex  1.320477e+01  4.664770e-01  1.358910e+01
      vertex  1.539886e+01  1.297455e+00  1.222149e+01
    endloop
  endfacet
  facet normal  5.779841e-01 -5.779842e-01  5.760804e-01
    outer loop
      vertex  1.539886e+01  1.297455e+00  1.222149e+01
      vertex  1.320477e+01  4.664770e-01  1.358910e+01
      vertex  1.370254e+01 -3.988629e-01  1.222149e+01
    endloop
  endfacet
endsolid CATIA STL
