solid CATIA STL
  facet normal -2.588193e-01  0.000000e+00  9.659258e-01
    outer loop
      vertex  1.022592e+02  1.000000e+01  1.629904e+01
      vertex  1.015092e+02  1.000000e+01  1.609808e+01
      vertex  1.022592e+02  8.000000e+00  1.629904e+01
    endloop
  endfacet
  facet normal -2.588193e-01  0.000000e+00  9.659258e-01
    outer loop
      vertex  1.022592e+02  8.000000e+00  1.629904e+01
      vertex  1.015092e+02  1.000000e+01  1.609808e+01
      vertex  1.015092e+02  8.000000e+00  1.609808e+01
    endloop
  endfacet
  facet normal  0.000000e+00  0.000000e+00  1.000000e+00
    outer loop
      vertex  1.015092e+02  8.000000e+00  1.609808e+01
      vertex  1.015092e+02  1.000000e+01  1.609808e+01
      vertex  1.000000e+02  8.000000e+00  1.609808e+01
    endloop
  endfacet
  facet normal  0.000000e+00  0.000000e+00  1.000000e+00
    outer loop
      vertex  1.000000e+02  8.000000e+00  1.609808e+01
      vertex  1.015092e+02  1.000000e+01  1.609808e+01
      vertex  1.000000e+02  1.000000e+01  1.609808e+01
    endloop
  endfacet
  facet normal  -0.000000e+00  1.000000e+00  0.000000e+00
    outer loop
      vertex  0.000000e+00  1.000000e+01  0.000000e+00
      vertex  0.000000e+00  1.000000e+01  3.000000e+01
      vertex  1.000000e+02  1.000000e+01  3.000000e+01
    endloop
  endfacet
  facet normal  0.000000e+00  1.000000e+00  0.000000e+00
    outer loop
      vertex  0.000000e+00  1.000000e+01  0.000000e+00
      vertex  1.000000e+02  1.000000e+01  3.000000e+01
      vertex  1.000000e+02  1.000000e+01  1.609808e+01
    endloop
  endfacet
  facet normal  0.000000e+00  1.000000e+00  0.000000e+00
    outer loop
      vertex  0.000000e+00  1.000000e+01  0.000000e+00
      vertex  1.000000e+02  1.000000e+01  1.609808e+01
      vertex  1.000000e+02  1.000000e+01  1.389269e+01
    endloop
  endfacet
  facet normal  0.000000e+00  1.000000e+00  0.000000e+00
    outer loop
      vertex  0.000000e+00  1.000000e+01  0.000000e+00
      vertex  1.000000e+02  1.000000e+01  1.389269e+01
      vertex  1.000000e+02  1.000000e+01  0.000000e+00
    endloop
  endfacet
  facet normal  0.000000e+00  1.000000e+00  0.000000e+00
    outer loop
      vertex  1.000000e+02  1.000000e+01  1.389269e+01
      vertex  1.000000e+02  1.000000e+01  1.609808e+01
      vertex  1.015000e+02  1.000000e+01  1.390190e+01
    endloop
  endfacet
  facet normal  0.000000e+00  9.999999e-01  -0.000000e+00
    outer loop
      vertex  1.015000e+02  1.000000e+01  1.390190e+01
      vertex  1.000000e+02  1.000000e+01  1.609808e+01
      vertex  1.015092e+02  1.000000e+01  1.609808e+01
    endloop
  endfacet
  facet normal  0.000000e+00  1.000000e+00  0.000000e+00
    outer loop
      vertex  1.015000e+02  1.000000e+01  1.390190e+01
      vertex  1.015092e+02  1.000000e+01  1.609808e+01
      vertex  1.022592e+02  1.000000e+01  1.370096e+01
    endloop
  endfacet
  facet normal  0.000000e+00  9.999999e-01  -0.000000e+00
    outer loop
      vertex  1.022592e+02  1.000000e+01  1.370096e+01
      vertex  1.015092e+02  1.000000e+01  1.609808e+01
      vertex  1.022592e+02  1.000000e+01  1.629904e+01
    endloop
  endfacet
  facet normal  0.000000e+00  1.000000e+00  0.000000e+00
    outer loop
      vertex  1.022592e+02  1.000000e+01  1.370096e+01
      vertex  1.022592e+02  1.000000e+01  1.629904e+01
      vertex  1.032696e+02  1.000000e+01  1.352279e+01
    endloop
  endfacet
  facet normal  0.000000e+00  9.999999e-01  -0.000000e+00
    outer loop
      vertex  1.032696e+02  1.000000e+01  1.352279e+01
      vertex  1.022592e+02  1.000000e+01  1.629904e+01
      vertex  1.032696e+02  1.000000e+01  1.647721e+01
    endloop
  endfacet
  facet normal  0.000000e+00  1.000000e+00  0.000000e+00
    outer loop
      vertex  1.032696e+02  1.000000e+01  1.352279e+01
      vertex  1.032696e+02  1.000000e+01  1.647721e+01
      vertex  1.041582e+02  1.000000e+01  1.403582e+01
    endloop
  endfacet
  facet normal  0.000000e+00  9.999999e-01  -0.000000e+00
    outer loop
      vertex  1.041582e+02  1.000000e+01  1.403582e+01
      vertex  1.032696e+02  1.000000e+01  1.647721e+01
      vertex  1.041582e+02  1.000000e+01  1.596418e+01
    endloop
  endfacet
  facet normal  0.000000e+00  9.999999e-01  0.000000e+00
    outer loop
      vertex  1.041582e+02  1.000000e+01  1.403582e+01
      vertex  1.041582e+02  1.000000e+01  1.596418e+01
      vertex  1.045092e+02  1.000000e+01  1.500000e+01
    endloop
  endfacet
  facet normal  0.000000e+00 -1.000000e+00  0.000000e+00
    outer loop
      vertex  4.440892e-16  8.000000e+00  3.000000e+01
      vertex  0.000000e+00  8.000000e+00  2.000000e+00
      vertex  1.000000e+02  8.000000e+00  2.000000e+00
    endloop
  endfacet
  facet normal  0.000000e+00 -1.000000e+00  0.000000e+00
    outer loop
      vertex  4.440892e-16  8.000000e+00  3.000000e+01
      vertex  1.000000e+02  8.000000e+00  2.000000e+00
      vertex  1.000000e+02  8.000000e+00  1.389269e+01
    endloop
  endfacet
  facet normal  0.000000e+00 -1.000000e+00  0.000000e+00
    outer loop
      vertex  4.440892e-16  8.000000e+00  3.000000e+01
      vertex  1.000000e+02  8.000000e+00  1.389269e+01
      vertex  1.000000e+02  8.000000e+00  1.609808e+01
    endloop
  endfacet
  facet normal  0.000000e+00 -1.000000e+00  0.000000e+00
    outer loop
      vertex  4.440892e-16  8.000000e+00  3.000000e+01
      vertex  1.000000e+02  8.000000e+00  1.609808e+01
      vertex  1.000000e+02  8.000000e+00  3.000000e+01
    endloop
  endfacet
  facet normal  0.000000e+00 -1.000000e+00  0.000000e+00
    outer loop
      vertex  1.000000e+02  8.000000e+00  1.609808e+01
      vertex  1.000000e+02  8.000000e+00  1.389269e+01
      vertex  1.015092e+02  8.000000e+00  1.609808e+01
    endloop
  endfacet
  facet normal  0.000000e+00 -1.000000e+00  0.000000e+00
    outer loop
      vertex  1.015092e+02  8.000000e+00  1.609808e+01
      vertex  1.000000e+02  8.000000e+00  1.389269e+01
      vertex  1.015000e+02  8.000000e+00  1.390190e+01
    endloop
  endfacet
  facet normal  0.000000e+00 -9.999999e-01  0.000000e+00
    outer loop
      vertex  1.015092e+02  8.000000e+00  1.609808e+01
      vertex  1.015000e+02  8.000000e+00  1.390190e+01
      vertex  1.022592e+02  8.000000e+00  1.629904e+01
    endloop
  endfacet
  facet normal  0.000000e+00 -1.000000e+00  -0.000000e+00
    outer loop
      vertex  1.022592e+02  8.000000e+00  1.629904e+01
      vertex  1.015000e+02  8.000000e+00  1.390190e+01
      vertex  1.022592e+02  8.000000e+00  1.370096e+01
    endloop
  endfacet
  facet normal  0.000000e+00 -1.000000e+00  0.000000e+00
    outer loop
      vertex  1.022592e+02  8.000000e+00  1.629904e+01
      vertex  1.022592e+02  8.000000e+00  1.370096e+01
      vertex  1.032696e+02  8.000000e+00  1.647721e+01
    endloop
  endfacet
  facet normal  0.000000e+00 -9.999999e-01  -0.000000e+00
    outer loop
      vertex  1.032696e+02  8.000000e+00  1.647721e+01
      vertex  1.022592e+02  8.000000e+00  1.370096e+01
      vertex  1.032696e+02  8.000000e+00  1.352279e+01
    endloop
  endfacet
  facet normal  0.000000e+00 -1.000000e+00  0.000000e+00
    outer loop
      vertex  1.032696e+02  8.000000e+00  1.647721e+01
      vertex  1.032696e+02  8.000000e+00  1.352279e+01
      vertex  1.041582e+02  8.000000e+00  1.596418e+01
    endloop
  endfacet
  facet normal  0.000000e+00 -9.999999e-01  -0.000000e+00
    outer loop
      vertex  1.041582e+02  8.000000e+00  1.596418e+01
      vertex  1.032696e+02  8.000000e+00  1.352279e+01
      vertex  1.041582e+02  8.000000e+00  1.403582e+01
    endloop
  endfacet
  facet normal  0.000000e+00 -9.999999e-01  0.000000e+00
    outer loop
      vertex  1.041582e+02  8.000000e+00  1.596418e+01
      vertex  1.041582e+02  8.000000e+00  1.403582e+01
      vertex  1.045092e+02  8.000000e+00  1.500000e+01
    endloop
  endfacet
  facet normal -1.000000e+00  -0.000000e+00  0.000000e+00
    outer loop
      vertex  0.000000e+00  0.000000e+00  3.000000e+01
      vertex  0.000000e+00  2.000000e+00  3.000000e+01
      vertex  0.000000e+00  0.000000e+00  0.000000e+00
    endloop
  endfacet
  facet normal -1.000000e+00  0.000000e+00  0.000000e+00
    outer loop
      vertex  0.000000e+00  0.000000e+00  0.000000e+00
      vertex  0.000000e+00  2.000000e+00  3.000000e+01
      vertex  0.000000e+00  2.000000e+00  2.000000e+00
    endloop
  endfacet
  facet normal -1.000000e+00  0.000000e+00  -0.000000e+00
    outer loop
      vertex  0.000000e+00  0.000000e+00  0.000000e+00
      vertex  0.000000e+00  2.000000e+00  2.000000e+00
      vertex  0.000000e+00  1.000000e+01  0.000000e+00
    endloop
  endfacet
  facet normal -1.000000e+00  0.000000e+00  0.000000e+00
    outer loop
      vertex  0.000000e+00  1.000000e+01  0.000000e+00
      vertex  0.000000e+00  2.000000e+00  2.000000e+00
      vertex  0.000000e+00  8.000000e+00  2.000000e+00
    endloop
  endfacet
  facet normal -1.000000e+00  0.000000e+00  0.000000e+00
    outer loop
      vertex  0.000000e+00  1.000000e+01  0.000000e+00
      vertex  0.000000e+00  8.000000e+00  2.000000e+00
      vertex  0.000000e+00  1.000000e+01  3.000000e+01
    endloop
  endfacet
  facet normal -1.000000e+00 -2.220446e-16  1.586033e-17
    outer loop
      vertex  0.000000e+00  1.000000e+01  3.000000e+01
      vertex  0.000000e+00  8.000000e+00  2.000000e+00
      vertex  4.440892e-16  8.000000e+00  3.000000e+01
    endloop
  endfacet
  facet normal  6.134043e-03  0.000000e+00 -9.999812e-01
    outer loop
      vertex  1.015000e+02  8.000000e+00  1.390190e+01
      vertex  1.000000e+02  8.000000e+00  1.389269e+01
      vertex  1.015000e+02  1.000000e+01  1.390190e+01
    endloop
  endfacet
  facet normal  6.134043e-03  0.000000e+00 -9.999812e-01
    outer loop
      vertex  1.015000e+02  1.000000e+01  1.390190e+01
      vertex  1.000000e+02  8.000000e+00  1.389269e+01
      vertex  1.000000e+02  1.000000e+01  1.389269e+01
    endloop
  endfacet
  facet normal  1.000000e+00  -0.000000e+00  0.000000e+00
    outer loop
      vertex  1.000000e+02  1.000000e+01  1.389269e+01
      vertex  1.000000e+02  8.000000e+00  1.389269e+01
      vertex  1.000000e+02  1.000000e+01  0.000000e+00
    endloop
  endfacet
  facet normal  1.000000e+00  0.000000e+00  0.000000e+00
    outer loop
      vertex  1.000000e+02  1.000000e+01  0.000000e+00
      vertex  1.000000e+02  8.000000e+00  1.389269e+01
      vertex  1.000000e+02  8.000000e+00  2.000000e+00
    endloop
  endfacet
  facet normal  1.000000e+00  0.000000e+00  0.000000e+00
    outer loop
      vertex  1.000000e+02  1.000000e+01  0.000000e+00
      vertex  1.000000e+02  8.000000e+00  2.000000e+00
      vertex  1.000000e+02  6.107249e+00  0.000000e+00
    endloop
  endfacet
  facet normal  1.000000e+00  0.000000e+00  0.000000e+00
    outer loop
      vertex  1.000000e+02  6.107249e+00  0.000000e+00
      vertex  1.000000e+02  8.000000e+00  2.000000e+00
      vertex  1.000000e+02  6.107249e+00  2.000000e+00
    endloop
  endfacet
  facet normal  1.000000e+00  0.000000e+00  0.000000e+00
    outer loop
      vertex  1.000000e+02  8.000000e+00  1.609808e+01
      vertex  1.000000e+02  1.000000e+01  1.609808e+01
      vertex  1.000000e+02  8.000000e+00  3.000000e+01
    endloop
  endfacet
  facet normal  1.000000e+00  -0.000000e+00  0.000000e+00
    outer loop
      vertex  1.000000e+02  8.000000e+00  3.000000e+01
      vertex  1.000000e+02  1.000000e+01  1.609808e+01
      vertex  1.000000e+02  1.000000e+01  3.000000e+01
    endloop
  endfacet
  facet normal -2.558551e-01  0.000000e+00 -9.667152e-01
    outer loop
      vertex  1.015000e+02  1.000000e+01  1.390190e+01
      vertex  1.022592e+02  1.000000e+01  1.370096e+01
      vertex  1.015000e+02  8.000000e+00  1.390190e+01
    endloop
  endfacet
  facet normal -2.558551e-01  0.000000e+00 -9.667152e-01
    outer loop
      vertex  1.015000e+02  8.000000e+00  1.390190e+01
      vertex  1.022592e+02  1.000000e+01  1.370096e+01
      vertex  1.022592e+02  8.000000e+00  1.370096e+01
    endloop
  endfacet
  facet normal -1.736482e-01  -0.000000e+00 -9.848078e-01
    outer loop
      vertex  1.022592e+02  8.000000e+00  1.370096e+01
      vertex  1.022592e+02  1.000000e+01  1.370096e+01
      vertex  1.032696e+02  8.000000e+00  1.352279e+01
    endloop
  endfacet
  facet normal -1.736482e-01  0.000000e+00 -9.848078e-01
    outer loop
      vertex  1.032696e+02  8.000000e+00  1.352279e+01
      vertex  1.022592e+02  1.000000e+01  1.370096e+01
      vertex  1.032696e+02  1.000000e+01  1.352279e+01
    endloop
  endfacet
  facet normal  5.000001e-01  0.000000e+00 -8.660253e-01
    outer loop
      vertex  1.032696e+02  8.000000e+00  1.352279e+01
      vertex  1.032696e+02  1.000000e+01  1.352279e+01
      vertex  1.041582e+02  8.000000e+00  1.403582e+01
    endloop
  endfacet
  facet normal  5.000001e-01  0.000000e+00 -8.660253e-01
    outer loop
      vertex  1.041582e+02  8.000000e+00  1.403582e+01
      vertex  1.032696e+02  1.000000e+01  1.352279e+01
      vertex  1.041582e+02  1.000000e+01  1.403582e+01
    endloop
  endfacet
  facet normal  9.396939e-01  0.000000e+00 -3.420168e-01
    outer loop
      vertex  1.041582e+02  8.000000e+00  1.403582e+01
      vertex  1.041582e+02  1.000000e+01  1.403582e+01
      vertex  1.045092e+02  8.000000e+00  1.500000e+01
    endloop
  endfacet
  facet normal  9.396939e-01  0.000000e+00 -3.420168e-01
    outer loop
      vertex  1.045092e+02  8.000000e+00  1.500000e+01
      vertex  1.041582e+02  1.000000e+01  1.403582e+01
      vertex  1.045092e+02  1.000000e+01  1.500000e+01
    endloop
  endfacet
  facet normal  9.396939e-01  0.000000e+00  3.420168e-01
    outer loop
      vertex  1.045092e+02  8.000000e+00  1.500000e+01
      vertex  1.045092e+02  1.000000e+01  1.500000e+01
      vertex  1.041582e+02  8.000000e+00  1.596418e+01
    endloop
  endfacet
  facet normal  9.396939e-01  -0.000000e+00  3.420168e-01
    outer loop
      vertex  1.041582e+02  8.000000e+00  1.596418e+01
      vertex  1.045092e+02  1.000000e+01  1.500000e+01
      vertex  1.041582e+02  1.000000e+01  1.596418e+01
    endloop
  endfacet
  facet normal  4.999994e-01  0.000000e+00  8.660257e-01
    outer loop
      vertex  1.041582e+02  8.000000e+00  1.596418e+01
      vertex  1.041582e+02  1.000000e+01  1.596418e+01
      vertex  1.032696e+02  8.000000e+00  1.647721e+01
    endloop
  endfacet
  facet normal  4.999994e-01  -0.000000e+00  8.660257e-01
    outer loop
      vertex  1.032696e+02  8.000000e+00  1.647721e+01
      vertex  1.041582e+02  1.000000e+01  1.596418e+01
      vertex  1.032696e+02  1.000000e+01  1.647721e+01
    endloop
  endfacet
  facet normal -1.736473e-01  0.000000e+00  9.848079e-01
    outer loop
      vertex  1.032696e+02  8.000000e+00  1.647721e+01
      vertex  1.032696e+02  1.000000e+01  1.647721e+01
      vertex  1.022592e+02  8.000000e+00  1.629904e+01
    endloop
  endfacet
  facet normal -1.736473e-01  0.000000e+00  9.848079e-01
    outer loop
      vertex  1.022592e+02  8.000000e+00  1.629904e+01
      vertex  1.032696e+02  1.000000e+01  1.647721e+01
      vertex  1.022592e+02  1.000000e+01  1.629904e+01
    endloop
  endfacet
  facet normal  0.000000e+00  1.000000e+00  0.000000e+00
    outer loop
      vertex  0.000000e+00  2.000000e+00  3.000000e+01
      vertex  1.000000e+02  2.000000e+00  3.000000e+01
      vertex  1.000000e+02  2.000000e+00  1.610725e+01
    endloop
  endfacet
  facet normal  0.000000e+00  1.000000e+00  0.000000e+00
    outer loop
      vertex  0.000000e+00  2.000000e+00  3.000000e+01
      vertex  1.000000e+02  2.000000e+00  1.610725e+01
      vertex  1.000000e+02  2.000000e+00  1.390192e+01
    endloop
  endfacet
  facet normal  0.000000e+00  1.000000e+00  0.000000e+00
    outer loop
      vertex  0.000000e+00  2.000000e+00  3.000000e+01
      vertex  1.000000e+02  2.000000e+00  1.390192e+01
      vertex  1.000000e+02  2.000000e+00  2.000000e+00
    endloop
  endfacet
  facet normal  0.000000e+00  1.000000e+00  0.000000e+00
    outer loop
      vertex  0.000000e+00  2.000000e+00  3.000000e+01
      vertex  1.000000e+02  2.000000e+00  2.000000e+00
      vertex  0.000000e+00  2.000000e+00  2.000000e+00
    endloop
  endfacet
  facet normal  0.000000e+00  1.000000e+00  0.000000e+00
    outer loop
      vertex  1.045000e+02  2.000000e+00  1.500000e+01
      vertex  1.041491e+02  2.000000e+00  1.403582e+01
      vertex  1.041491e+02  2.000000e+00  1.596418e+01
    endloop
  endfacet
  facet normal  0.000000e+00  1.000000e+00  0.000000e+00
    outer loop
      vertex  1.041491e+02  2.000000e+00  1.596418e+01
      vertex  1.041491e+02  2.000000e+00  1.403582e+01
      vertex  1.032605e+02  2.000000e+00  1.352279e+01
    endloop
  endfacet
  facet normal  0.000000e+00  1.000000e+00  0.000000e+00
    outer loop
      vertex  1.041491e+02  2.000000e+00  1.596418e+01
      vertex  1.032605e+02  2.000000e+00  1.352279e+01
      vertex  1.032605e+02  2.000000e+00  1.647721e+01
    endloop
  endfacet
  facet normal  0.000000e+00  9.999999e-01  0.000000e+00
    outer loop
      vertex  1.032605e+02  2.000000e+00  1.647721e+01
      vertex  1.032605e+02  2.000000e+00  1.352279e+01
      vertex  1.022500e+02  2.000000e+00  1.370096e+01
    endloop
  endfacet
  facet normal  0.000000e+00  1.000000e+00  0.000000e+00
    outer loop
      vertex  1.032605e+02  2.000000e+00  1.647721e+01
      vertex  1.022500e+02  2.000000e+00  1.370096e+01
      vertex  1.022500e+02  2.000000e+00  1.629904e+01
    endloop
  endfacet
  facet normal  0.000000e+00  9.999999e-01  0.000000e+00
    outer loop
      vertex  1.022500e+02  2.000000e+00  1.629904e+01
      vertex  1.022500e+02  2.000000e+00  1.370096e+01
      vertex  1.015000e+02  2.000000e+00  1.390192e+01
    endloop
  endfacet
  facet normal  0.000000e+00  1.000000e+00  -0.000000e+00
    outer loop
      vertex  1.022500e+02  2.000000e+00  1.629904e+01
      vertex  1.015000e+02  2.000000e+00  1.390192e+01
      vertex  1.014908e+02  2.000000e+00  1.609810e+01
    endloop
  endfacet
  facet normal  0.000000e+00  1.000000e+00  0.000000e+00
    outer loop
      vertex  1.014908e+02  2.000000e+00  1.609810e+01
      vertex  1.015000e+02  2.000000e+00  1.390192e+01
      vertex  1.000000e+02  2.000000e+00  1.390192e+01
    endloop
  endfacet
  facet normal  0.000000e+00  1.000000e+00  0.000000e+00
    outer loop
      vertex  1.014908e+02  2.000000e+00  1.609810e+01
      vertex  1.000000e+02  2.000000e+00  1.390192e+01
      vertex  1.000000e+02  2.000000e+00  1.610725e+01
    endloop
  endfacet
  facet normal  0.000000e+00 -1.000000e+00  0.000000e+00
    outer loop
      vertex  0.000000e+00  0.000000e+00  3.000000e+01
      vertex  0.000000e+00  0.000000e+00  0.000000e+00
      vertex  1.000000e+02  0.000000e+00  0.000000e+00
    endloop
  endfacet
  facet normal  0.000000e+00 -1.000000e+00  0.000000e+00
    outer loop
      vertex  0.000000e+00  0.000000e+00  3.000000e+01
      vertex  1.000000e+02  0.000000e+00  0.000000e+00
      vertex  1.000000e+02  0.000000e+00  1.390192e+01
    endloop
  endfacet
  facet normal  0.000000e+00 -1.000000e+00  0.000000e+00
    outer loop
      vertex  0.000000e+00  0.000000e+00  3.000000e+01
      vertex  1.000000e+02  0.000000e+00  1.390192e+01
      vertex  1.000000e+02  0.000000e+00  1.610725e+01
    endloop
  endfacet
  facet normal  0.000000e+00 -1.000000e+00  0.000000e+00
    outer loop
      vertex  0.000000e+00  0.000000e+00  3.000000e+01
      vertex  1.000000e+02  0.000000e+00  1.610725e+01
      vertex  1.000000e+02  0.000000e+00  3.000000e+01
    endloop
  endfacet
  facet normal  0.000000e+00 -1.000000e+00  0.000000e+00
    outer loop
      vertex  1.000000e+02  0.000000e+00  1.610725e+01
      vertex  1.000000e+02  0.000000e+00  1.390192e+01
      vertex  1.014908e+02  0.000000e+00  1.609810e+01
    endloop
  endfacet
  facet normal  0.000000e+00 -1.000000e+00  -0.000000e+00
    outer loop
      vertex  1.014908e+02  0.000000e+00  1.609810e+01
      vertex  1.000000e+02  0.000000e+00  1.390192e+01
      vertex  1.015000e+02  0.000000e+00  1.390192e+01
    endloop
  endfacet
  facet normal  0.000000e+00 -1.000000e+00  0.000000e+00
    outer loop
      vertex  1.014908e+02  0.000000e+00  1.609810e+01
      vertex  1.015000e+02  0.000000e+00  1.390192e+01
      vertex  1.022500e+02  0.000000e+00  1.629904e+01
    endloop
  endfacet
  facet normal  0.000000e+00 -9.999999e-01  -0.000000e+00
    outer loop
      vertex  1.022500e+02  0.000000e+00  1.629904e+01
      vertex  1.015000e+02  0.000000e+00  1.390192e+01
      vertex  1.022500e+02  0.000000e+00  1.370096e+01
    endloop
  endfacet
  facet normal  0.000000e+00 -1.000000e+00  0.000000e+00
    outer loop
      vertex  1.022500e+02  0.000000e+00  1.629904e+01
      vertex  1.022500e+02  0.000000e+00  1.370096e+01
      vertex  1.032605e+02  0.000000e+00  1.647721e+01
    endloop
  endfacet
  facet normal  0.000000e+00 -9.999999e-01  -0.000000e+00
    outer loop
      vertex  1.032605e+02  0.000000e+00  1.647721e+01
      vertex  1.022500e+02  0.000000e+00  1.370096e+01
      vertex  1.032605e+02  0.000000e+00  1.352279e+01
    endloop
  endfacet
  facet normal  0.000000e+00 -1.000000e+00  0.000000e+00
    outer loop
      vertex  1.032605e+02  0.000000e+00  1.647721e+01
      vertex  1.032605e+02  0.000000e+00  1.352279e+01
      vertex  1.041491e+02  0.000000e+00  1.596418e+01
    endloop
  endfacet
  facet normal  0.000000e+00 -1.000000e+00  -0.000000e+00
    outer loop
      vertex  1.041491e+02  0.000000e+00  1.596418e+01
      vertex  1.032605e+02  0.000000e+00  1.352279e+01
      vertex  1.041491e+02  0.000000e+00  1.403582e+01
    endloop
  endfacet
  facet normal  0.000000e+00 -1.000000e+00  0.000000e+00
    outer loop
      vertex  1.041491e+02  0.000000e+00  1.596418e+01
      vertex  1.041491e+02  0.000000e+00  1.403582e+01
      vertex  1.045000e+02  0.000000e+00  1.500000e+01
    endloop
  endfacet
  facet normal  6.133394e-03  0.000000e+00  9.999812e-01
    outer loop
      vertex  1.014908e+02  2.000000e+00  1.609810e+01
      vertex  1.000000e+02  2.000000e+00  1.610725e+01
      vertex  1.014908e+02  0.000000e+00  1.609810e+01
    endloop
  endfacet
  facet normal  6.133394e-03  0.000000e+00  9.999812e-01
    outer loop
      vertex  1.014908e+02  0.000000e+00  1.609810e+01
      vertex  1.000000e+02  2.000000e+00  1.610725e+01
      vertex  1.000000e+02  0.000000e+00  1.610725e+01
    endloop
  endfacet
  facet normal  0.000000e+00  0.000000e+00 -1.000000e+00
    outer loop
      vertex  1.015000e+02  2.000000e+00  1.390192e+01
      vertex  1.015000e+02  0.000000e+00  1.390192e+01
      vertex  1.000000e+02  2.000000e+00  1.390192e+01
    endloop
  endfacet
  facet normal  0.000000e+00  0.000000e+00 -1.000000e+00
    outer loop
      vertex  1.000000e+02  2.000000e+00  1.390192e+01
      vertex  1.015000e+02  0.000000e+00  1.390192e+01
      vertex  1.000000e+02  0.000000e+00  1.390192e+01
    endloop
  endfacet
  facet normal  1.000000e+00  -0.000000e+00  0.000000e+00
    outer loop
      vertex  1.000000e+02  2.000000e+00  1.390192e+01
      vertex  1.000000e+02  0.000000e+00  1.390192e+01
      vertex  1.000000e+02  2.000000e+00  2.000000e+00
    endloop
  endfacet
  facet normal  1.000000e+00  0.000000e+00  0.000000e+00
    outer loop
      vertex  1.000000e+02  2.000000e+00  2.000000e+00
      vertex  1.000000e+02  0.000000e+00  1.390192e+01
      vertex  1.000000e+02  0.000000e+00  0.000000e+00
    endloop
  endfacet
  facet normal  1.000000e+00  0.000000e+00  0.000000e+00
    outer loop
      vertex  1.000000e+02  2.000000e+00  2.000000e+00
      vertex  1.000000e+02  0.000000e+00  0.000000e+00
      vertex  1.000000e+02  3.901924e+00  2.000000e+00
    endloop
  endfacet
  facet normal  9.999999e-01  0.000000e+00  0.000000e+00
    outer loop
      vertex  1.000000e+02  3.901924e+00  2.000000e+00
      vertex  1.000000e+02  0.000000e+00  0.000000e+00
      vertex  1.000000e+02  3.901924e+00  0.000000e+00
    endloop
  endfacet
  facet normal  9.999999e-01  0.000000e+00  0.000000e+00
    outer loop
      vertex  1.000000e+02  0.000000e+00  1.610725e+01
      vertex  1.000000e+02  2.000000e+00  1.610725e+01
      vertex  1.000000e+02  0.000000e+00  3.000000e+01
    endloop
  endfacet
  facet normal  9.999999e-01  -0.000000e+00  0.000000e+00
    outer loop
      vertex  1.000000e+02  0.000000e+00  3.000000e+01
      vertex  1.000000e+02  2.000000e+00  1.610725e+01
      vertex  1.000000e+02  2.000000e+00  3.000000e+01
    endloop
  endfacet
  facet normal -2.558551e-01  0.000000e+00  9.667152e-01
    outer loop
      vertex  1.014908e+02  0.000000e+00  1.609810e+01
      vertex  1.022500e+02  0.000000e+00  1.629904e+01
      vertex  1.014908e+02  2.000000e+00  1.609810e+01
    endloop
  endfacet
  facet normal -2.558551e-01  0.000000e+00  9.667152e-01
    outer loop
      vertex  1.014908e+02  2.000000e+00  1.609810e+01
      vertex  1.022500e+02  0.000000e+00  1.629904e+01
      vertex  1.022500e+02  2.000000e+00  1.629904e+01
    endloop
  endfacet
  facet normal -1.736473e-01  0.000000e+00  9.848079e-01
    outer loop
      vertex  1.022500e+02  2.000000e+00  1.629904e+01
      vertex  1.022500e+02  0.000000e+00  1.629904e+01
      vertex  1.032605e+02  2.000000e+00  1.647721e+01
    endloop
  endfacet
  facet normal -1.736473e-01  0.000000e+00  9.848079e-01
    outer loop
      vertex  1.032605e+02  2.000000e+00  1.647721e+01
      vertex  1.022500e+02  0.000000e+00  1.629904e+01
      vertex  1.032605e+02  0.000000e+00  1.647721e+01
    endloop
  endfacet
  facet normal  5.000026e-01  -0.000000e+00  8.660239e-01
    outer loop
      vertex  1.032605e+02  2.000000e+00  1.647721e+01
      vertex  1.032605e+02  0.000000e+00  1.647721e+01
      vertex  1.041491e+02  2.000000e+00  1.596418e+01
    endloop
  endfacet
  facet normal  5.000026e-01  0.000000e+00  8.660239e-01
    outer loop
      vertex  1.041491e+02  2.000000e+00  1.596418e+01
      vertex  1.032605e+02  0.000000e+00  1.647721e+01
      vertex  1.041491e+02  0.000000e+00  1.596418e+01
    endloop
  endfacet
  facet normal  9.396915e-01  -0.000000e+00  3.420233e-01
    outer loop
      vertex  1.041491e+02  2.000000e+00  1.596418e+01
      vertex  1.041491e+02  0.000000e+00  1.596418e+01
      vertex  1.045000e+02  2.000000e+00  1.500000e+01
    endloop
  endfacet
  facet normal  9.396915e-01  0.000000e+00  3.420233e-01
    outer loop
      vertex  1.045000e+02  2.000000e+00  1.500000e+01
      vertex  1.041491e+02  0.000000e+00  1.596418e+01
      vertex  1.045000e+02  0.000000e+00  1.500000e+01
    endloop
  endfacet
  facet normal  9.396915e-01  0.000000e+00 -3.420233e-01
    outer loop
      vertex  1.045000e+02  2.000000e+00  1.500000e+01
      vertex  1.045000e+02  0.000000e+00  1.500000e+01
      vertex  1.041491e+02  2.000000e+00  1.403582e+01
    endloop
  endfacet
  facet normal  9.396915e-01  0.000000e+00 -3.420233e-01
    outer loop
      vertex  1.041491e+02  2.000000e+00  1.403582e+01
      vertex  1.045000e+02  0.000000e+00  1.500000e+01
      vertex  1.041491e+02  0.000000e+00  1.403582e+01
    endloop
  endfacet
  facet normal  5.000032e-01  0.000000e+00 -8.660234e-01
    outer loop
      vertex  1.041491e+02  2.000000e+00  1.403582e+01
      vertex  1.041491e+02  0.000000e+00  1.403582e+01
      vertex  1.032605e+02  2.000000e+00  1.352279e+01
    endloop
  endfacet
  facet normal  5.000032e-01  0.000000e+00 -8.660234e-01
    outer loop
      vertex  1.032605e+02  2.000000e+00  1.352279e+01
      vertex  1.041491e+02  0.000000e+00  1.403582e+01
      vertex  1.032605e+02  0.000000e+00  1.352279e+01
    endloop
  endfacet
  facet normal -1.736482e-01  0.000000e+00 -9.848078e-01
    outer loop
      vertex  1.032605e+02  2.000000e+00  1.352279e+01
      vertex  1.032605e+02  0.000000e+00  1.352279e+01
      vertex  1.022500e+02  2.000000e+00  1.370096e+01
    endloop
  endfacet
  facet normal -1.736482e-01  -0.000000e+00 -9.848078e-01
    outer loop
      vertex  1.022500e+02  2.000000e+00  1.370096e+01
      vertex  1.032605e+02  0.000000e+00  1.352279e+01
      vertex  1.022500e+02  0.000000e+00  1.370096e+01
    endloop
  endfacet
  facet normal -2.588193e-01  0.000000e+00 -9.659258e-01
    outer loop
      vertex  1.022500e+02  0.000000e+00  1.370096e+01
      vertex  1.015000e+02  0.000000e+00  1.390192e+01
      vertex  1.022500e+02  2.000000e+00  1.370096e+01
    endloop
  endfacet
  facet normal -2.588193e-01  0.000000e+00 -9.659258e-01
    outer loop
      vertex  1.022500e+02  2.000000e+00  1.370096e+01
      vertex  1.015000e+02  0.000000e+00  1.390192e+01
      vertex  1.015000e+02  2.000000e+00  1.390192e+01
    endloop
  endfacet
  facet normal  -0.000000e+00  -0.000000e+00 -1.000000e+00
    outer loop
      vertex  0.000000e+00  1.000000e+01  0.000000e+00
      vertex  1.000000e+02  1.000000e+01  0.000000e+00
      vertex  1.000000e+02  6.107249e+00  0.000000e+00
    endloop
  endfacet
  facet normal  0.000000e+00  0.000000e+00 -1.000000e+00
    outer loop
      vertex  1.000000e+02  3.901924e+00  0.000000e+00
      vertex  1.000000e+02  0.000000e+00  0.000000e+00
      vertex  0.000000e+00  0.000000e+00  0.000000e+00
    endloop
  endfacet
  facet normal  0.000000e+00  0.000000e+00 -1.000000e+00
    outer loop
      vertex  1.000000e+02  3.901924e+00  0.000000e+00
      vertex  0.000000e+00  0.000000e+00  0.000000e+00
      vertex  0.000000e+00  1.000000e+01  0.000000e+00
    endloop
  endfacet
  facet normal  0.000000e+00  0.000000e+00 -1.000000e+00
    outer loop
      vertex  1.000000e+02  3.901924e+00  0.000000e+00
      vertex  0.000000e+00  1.000000e+01  0.000000e+00
      vertex  1.000000e+02  6.107249e+00  0.000000e+00
    endloop
  endfacet
  facet normal  0.000000e+00  0.000000e+00 -1.000000e+00
    outer loop
      vertex  1.000000e+02  3.901924e+00  0.000000e+00
      vertex  1.000000e+02  6.107249e+00  0.000000e+00
      vertex  1.014908e+02  6.098104e+00  0.000000e+00
    endloop
  endfacet
  facet normal  0.000000e+00  -0.000000e+00 -1.000000e+00
    outer loop
      vertex  1.000000e+02  3.901924e+00  0.000000e+00
      vertex  1.014908e+02  6.098104e+00  0.000000e+00
      vertex  1.041491e+02  5.964181e+00  0.000000e+00
    endloop
  endfacet
  facet normal  0.000000e+00  -0.000000e+00 -1.000000e+00
    outer loop
      vertex  1.000000e+02  3.901924e+00  0.000000e+00
      vertex  1.041491e+02  5.964181e+00  0.000000e+00
      vertex  1.045000e+02  5.000000e+00  0.000000e+00
    endloop
  endfacet
  facet normal  0.000000e+00  0.000000e+00 -1.000000e+00
    outer loop
      vertex  1.000000e+02  3.901924e+00  0.000000e+00
      vertex  1.045000e+02  5.000000e+00  0.000000e+00
      vertex  1.041491e+02  4.035819e+00  0.000000e+00
    endloop
  endfacet
  facet normal  0.000000e+00  0.000000e+00 -9.999999e-01
    outer loop
      vertex  1.000000e+02  3.901924e+00  0.000000e+00
      vertex  1.041491e+02  4.035819e+00  0.000000e+00
      vertex  1.015000e+02  3.901924e+00  0.000000e+00
    endloop
  endfacet
  facet normal  0.000000e+00  0.000000e+00 -1.000000e+00
    outer loop
      vertex  1.022500e+02  6.299038e+00  0.000000e+00
      vertex  1.032605e+02  6.477211e+00  0.000000e+00
      vertex  1.014908e+02  6.098104e+00  0.000000e+00
    endloop
  endfacet
  facet normal  0.000000e+00  0.000000e+00 -1.000000e+00
    outer loop
      vertex  1.014908e+02  6.098104e+00  0.000000e+00
      vertex  1.032605e+02  6.477211e+00  0.000000e+00
      vertex  1.041491e+02  5.964181e+00  0.000000e+00
    endloop
  endfacet
  facet normal  0.000000e+00  0.000000e+00 -1.000000e+00
    outer loop
      vertex  1.015000e+02  3.901924e+00  0.000000e+00
      vertex  1.041491e+02  4.035819e+00  0.000000e+00
      vertex  1.022500e+02  3.700962e+00  0.000000e+00
    endloop
  endfacet
  facet normal  0.000000e+00  0.000000e+00 -1.000000e+00
    outer loop
      vertex  1.022500e+02  3.700962e+00  0.000000e+00
      vertex  1.041491e+02  4.035819e+00  0.000000e+00
      vertex  1.032605e+02  3.522788e+00  0.000000e+00
    endloop
  endfacet
  facet normal  0.000000e+00  0.000000e+00  1.000000e+00
    outer loop
      vertex  1.000000e+02  6.107249e+00  2.000000e+00
      vertex  1.000000e+02  8.000000e+00  2.000000e+00
      vertex  0.000000e+00  8.000000e+00  2.000000e+00
    endloop
  endfacet
  facet normal  0.000000e+00  -0.000000e+00  1.000000e+00
    outer loop
      vertex  1.000000e+02  3.901924e+00  2.000000e+00
      vertex  1.015000e+02  3.901924e+00  2.000000e+00
      vertex  1.041491e+02  4.035819e+00  2.000000e+00
    endloop
  endfacet
  facet normal  0.000000e+00  -0.000000e+00  1.000000e+00
    outer loop
      vertex  1.000000e+02  3.901924e+00  2.000000e+00
      vertex  1.041491e+02  4.035819e+00  2.000000e+00
      vertex  1.045000e+02  5.000000e+00  2.000000e+00
    endloop
  endfacet
  facet normal  0.000000e+00  0.000000e+00  1.000000e+00
    outer loop
      vertex  1.000000e+02  3.901924e+00  2.000000e+00
      vertex  1.045000e+02  5.000000e+00  2.000000e+00
      vertex  1.041491e+02  5.964181e+00  2.000000e+00
    endloop
  endfacet
  facet normal  0.000000e+00  0.000000e+00  1.000000e+00
    outer loop
      vertex  1.000000e+02  3.901924e+00  2.000000e+00
      vertex  1.041491e+02  5.964181e+00  2.000000e+00
      vertex  1.014908e+02  6.098104e+00  2.000000e+00
    endloop
  endfacet
  facet normal  0.000000e+00  0.000000e+00  1.000000e+00
    outer loop
      vertex  1.000000e+02  3.901924e+00  2.000000e+00
      vertex  1.014908e+02  6.098104e+00  2.000000e+00
      vertex  1.000000e+02  6.107249e+00  2.000000e+00
    endloop
  endfacet
  facet normal  0.000000e+00  0.000000e+00  1.000000e+00
    outer loop
      vertex  1.000000e+02  3.901924e+00  2.000000e+00
      vertex  1.000000e+02  6.107249e+00  2.000000e+00
      vertex  0.000000e+00  8.000000e+00  2.000000e+00
    endloop
  endfacet
  facet normal  0.000000e+00  0.000000e+00  1.000000e+00
    outer loop
      vertex  1.000000e+02  3.901924e+00  2.000000e+00
      vertex  0.000000e+00  8.000000e+00  2.000000e+00
      vertex  0.000000e+00  2.000000e+00  2.000000e+00
    endloop
  endfacet
  facet normal  0.000000e+00  0.000000e+00  1.000000e+00
    outer loop
      vertex  1.000000e+02  3.901924e+00  2.000000e+00
      vertex  0.000000e+00  2.000000e+00  2.000000e+00
      vertex  1.000000e+02  2.000000e+00  2.000000e+00
    endloop
  endfacet
  facet normal  0.000000e+00  0.000000e+00  1.000000e+00
    outer loop
      vertex  1.022500e+02  6.299038e+00  2.000000e+00
      vertex  1.014908e+02  6.098104e+00  2.000000e+00
      vertex  1.032605e+02  6.477211e+00  2.000000e+00
    endloop
  endfacet
  facet normal  0.000000e+00  0.000000e+00  9.999999e-01
    outer loop
      vertex  1.032605e+02  6.477211e+00  2.000000e+00
      vertex  1.014908e+02  6.098104e+00  2.000000e+00
      vertex  1.041491e+02  5.964181e+00  2.000000e+00
    endloop
  endfacet
  facet normal  0.000000e+00  -0.000000e+00  1.000000e+00
    outer loop
      vertex  1.015000e+02  3.901924e+00  2.000000e+00
      vertex  1.022500e+02  3.700962e+00  2.000000e+00
      vertex  1.041491e+02  4.035819e+00  2.000000e+00
    endloop
  endfacet
  facet normal  0.000000e+00  0.000000e+00  1.000000e+00
    outer loop
      vertex  1.041491e+02  4.035819e+00  2.000000e+00
      vertex  1.022500e+02  3.700962e+00  2.000000e+00
      vertex  1.032605e+02  3.522788e+00  2.000000e+00
    endloop
  endfacet
  facet normal  6.134034e-03  9.999812e-01  -0.000000e+00
    outer loop
      vertex  1.014908e+02  6.098104e+00  2.000000e+00
      vertex  1.014908e+02  6.098104e+00  0.000000e+00
      vertex  1.000000e+02  6.107249e+00  2.000000e+00
    endloop
  endfacet
  facet normal  6.134034e-03  9.999812e-01  0.000000e+00
    outer loop
      vertex  1.000000e+02  6.107249e+00  2.000000e+00
      vertex  1.014908e+02  6.098104e+00  0.000000e+00
      vertex  1.000000e+02  6.107249e+00  0.000000e+00
    endloop
  endfacet
  facet normal  0.000000e+00 -1.000000e+00  0.000000e+00
    outer loop
      vertex  1.015000e+02  3.901924e+00  2.000000e+00
      vertex  1.000000e+02  3.901924e+00  2.000000e+00
      vertex  1.015000e+02  3.901924e+00  0.000000e+00
    endloop
  endfacet
  facet normal  0.000000e+00 -1.000000e+00  0.000000e+00
    outer loop
      vertex  1.015000e+02  3.901924e+00  0.000000e+00
      vertex  1.000000e+02  3.901924e+00  2.000000e+00
      vertex  1.000000e+02  3.901924e+00  0.000000e+00
    endloop
  endfacet
  facet normal -2.558551e-01  9.667152e-01  0.000000e+00
    outer loop
      vertex  1.014908e+02  6.098104e+00  2.000000e+00
      vertex  1.022500e+02  6.299038e+00  2.000000e+00
      vertex  1.014908e+02  6.098104e+00  0.000000e+00
    endloop
  endfacet
  facet normal -2.558551e-01  9.667152e-01  0.000000e+00
    outer loop
      vertex  1.014908e+02  6.098104e+00  0.000000e+00
      vertex  1.022500e+02  6.299038e+00  2.000000e+00
      vertex  1.022500e+02  6.299038e+00  0.000000e+00
    endloop
  endfacet
  facet normal -1.736477e-01  9.848079e-01  0.000000e+00
    outer loop
      vertex  1.022500e+02  6.299038e+00  0.000000e+00
      vertex  1.022500e+02  6.299038e+00  2.000000e+00
      vertex  1.032605e+02  6.477211e+00  0.000000e+00
    endloop
  endfacet
  facet normal -1.736477e-01  9.848079e-01  0.000000e+00
    outer loop
      vertex  1.032605e+02  6.477211e+00  0.000000e+00
      vertex  1.022500e+02  6.299038e+00  2.000000e+00
      vertex  1.032605e+02  6.477211e+00  2.000000e+00
    endloop
  endfacet
  facet normal  5.000026e-01  8.660239e-01  0.000000e+00
    outer loop
      vertex  1.032605e+02  6.477211e+00  0.000000e+00
      vertex  1.032605e+02  6.477211e+00  2.000000e+00
      vertex  1.041491e+02  5.964181e+00  0.000000e+00
    endloop
  endfacet
  facet normal  5.000026e-01  8.660239e-01  -0.000000e+00
    outer loop
      vertex  1.041491e+02  5.964181e+00  0.000000e+00
      vertex  1.032605e+02  6.477211e+00  2.000000e+00
      vertex  1.041491e+02  5.964181e+00  2.000000e+00
    endloop
  endfacet
  facet normal  9.396915e-01  3.420232e-01  0.000000e+00
    outer loop
      vertex  1.041491e+02  5.964181e+00  0.000000e+00
      vertex  1.041491e+02  5.964181e+00  2.000000e+00
      vertex  1.045000e+02  5.000000e+00  0.000000e+00
    endloop
  endfacet
  facet normal  9.396915e-01  3.420232e-01  -0.000000e+00
    outer loop
      vertex  1.045000e+02  5.000000e+00  0.000000e+00
      vertex  1.041491e+02  5.964181e+00  2.000000e+00
      vertex  1.045000e+02  5.000000e+00  2.000000e+00
    endloop
  endfacet
  facet normal  9.396915e-01 -3.420232e-01  0.000000e+00
    outer loop
      vertex  1.045000e+02  5.000000e+00  0.000000e+00
      vertex  1.045000e+02  5.000000e+00  2.000000e+00
      vertex  1.041491e+02  4.035819e+00  0.000000e+00
    endloop
  endfacet
  facet normal  9.396915e-01 -3.420232e-01  0.000000e+00
    outer loop
      vertex  1.041491e+02  4.035819e+00  0.000000e+00
      vertex  1.045000e+02  5.000000e+00  2.000000e+00
      vertex  1.041491e+02  4.035819e+00  2.000000e+00
    endloop
  endfacet
  facet normal  5.000028e-01 -8.660238e-01  0.000000e+00
    outer loop
      vertex  1.041491e+02  4.035819e+00  0.000000e+00
      vertex  1.041491e+02  4.035819e+00  2.000000e+00
      vertex  1.032605e+02  3.522788e+00  0.000000e+00
    endloop
  endfacet
  facet normal  5.000028e-01 -8.660238e-01  0.000000e+00
    outer loop
      vertex  1.032605e+02  3.522788e+00  0.000000e+00
      vertex  1.041491e+02  4.035819e+00  2.000000e+00
      vertex  1.032605e+02  3.522788e+00  2.000000e+00
    endloop
  endfacet
  facet normal -1.736477e-01 -9.848079e-01  -0.000000e+00
    outer loop
      vertex  1.032605e+02  3.522788e+00  0.000000e+00
      vertex  1.032605e+02  3.522788e+00  2.000000e+00
      vertex  1.022500e+02  3.700962e+00  0.000000e+00
    endloop
  endfacet
  facet normal -1.736477e-01 -9.848079e-01  0.000000e+00
    outer loop
      vertex  1.022500e+02  3.700962e+00  0.000000e+00
      vertex  1.032605e+02  3.522788e+00  2.000000e+00
      vertex  1.022500e+02  3.700962e+00  2.000000e+00
    endloop
  endfacet
  facet normal -2.588193e-01 -9.659258e-01  0.000000e+00
    outer loop
      vertex  1.022500e+02  3.700962e+00  2.000000e+00
      vertex  1.015000e+02  3.901924e+00  2.000000e+00
      vertex  1.022500e+02  3.700962e+00  0.000000e+00
    endloop
  endfacet
  facet normal -2.588193e-01 -9.659258e-01  0.000000e+00
    outer loop
      vertex  1.022500e+02  3.700962e+00  0.000000e+00
      vertex  1.015000e+02  3.901924e+00  2.000000e+00
      vertex  1.015000e+02  3.901924e+00  0.000000e+00
    endloop
  endfacet
  facet normal  0.000000e+00  0.000000e+00  1.000000e+00
    outer loop
      vertex  0.000000e+00  0.000000e+00  3.000000e+01
      vertex  1.000000e+02  0.000000e+00  3.000000e+01
      vertex  0.000000e+00  2.000000e+00  3.000000e+01
    endloop
  endfacet
  facet normal  -0.000000e+00  0.000000e+00  1.000000e+00
    outer loop
      vertex  0.000000e+00  2.000000e+00  3.000000e+01
      vertex  1.000000e+02  0.000000e+00  3.000000e+01
      vertex  1.000000e+02  2.000000e+00  3.000000e+01
    endloop
  endfacet
  facet normal  0.000000e+00  0.000000e+00  1.000000e+00
    outer loop
      vertex  4.440892e-16  8.000000e+00  3.000000e+01
      vertex  1.000000e+02  8.000000e+00  3.000000e+01
      vertex  0.000000e+00  1.000000e+01  3.000000e+01
    endloop
  endfacet
  facet normal  -0.000000e+00  0.000000e+00  1.000000e+00
    outer loop
      vertex  0.000000e+00  1.000000e+01  3.000000e+01
      vertex  1.000000e+02  8.000000e+00  3.000000e+01
      vertex  1.000000e+02  1.000000e+01  3.000000e+01
    endloop
  endfacet
endsolid CATIA STL
