solid CATIA STL
  facet normal  2.588192e-01  0.000000e+00  9.659258e-01
    outer loop
      vertex  2.259173e+00  0.000000e+00  1.370096e+01
      vertex  2.259173e+00  2.000000e+00  1.370096e+01
      vertex  1.509173e+00  0.000000e+00  1.390192e+01
    endloop
  endfacet
  facet normal  2.588192e-01  -0.000000e+00  9.659258e-01
    outer loop
      vertex  1.509173e+00  0.000000e+00  1.390192e+01
      vertex  2.259173e+00  2.000000e+00  1.370096e+01
      vertex  1.509173e+00  2.000000e+00  1.390192e+01
    endloop
  endfacet
  facet normal  0.000000e+00  0.000000e+00  1.000000e+00
    outer loop
      vertex  1.509173e+00  8.000000e+00  1.390192e+01
      vertex  1.509173e+00  1.000000e+01  1.390192e+01
      vertex  4.440892e-16  8.000000e+00  1.390192e+01
    endloop
  endfacet
  facet normal  0.000000e+00  -0.000000e+00  1.000000e+00
    outer loop
      vertex  4.440892e-16  8.000000e+00  1.390192e+01
      vertex  1.509173e+00  1.000000e+01  1.390192e+01
      vertex  0.000000e+00  1.000000e+01  1.390192e+01
    endloop
  endfacet
  facet normal  0.000000e+00  0.000000e+00  1.000000e+00
    outer loop
      vertex  1.509173e+00  0.000000e+00  1.390192e+01
      vertex  1.509173e+00  2.000000e+00  1.390192e+01
      vertex  2.220446e-16  0.000000e+00  1.390192e+01
    endloop
  endfacet
  facet normal  0.000000e+00  -0.000000e+00  1.000000e+00
    outer loop
      vertex  2.220446e-16  0.000000e+00  1.390192e+01
      vertex  1.509173e+00  2.000000e+00  1.390192e+01
      vertex  0.000000e+00  2.000000e+00  1.390192e+01
    endloop
  endfacet
  facet normal -6.134033e-03  0.000000e+00 -9.999812e-01
    outer loop
      vertex  1.499972e+00  0.000000e+00  1.609810e+01
      vertex  1.432188e-14  0.000000e+00  1.610731e+01
      vertex  1.499972e+00  2.000000e+00  1.609810e+01
    endloop
  endfacet
  facet normal -6.134033e-03  0.000000e+00 -9.999812e-01
    outer loop
      vertex  1.499972e+00  2.000000e+00  1.609810e+01
      vertex  1.432188e-14  0.000000e+00  1.610731e+01
      vertex  8.881784e-16  2.000000e+00  1.610731e+01
    endloop
  endfacet
  facet normal -6.134033e-03  0.000000e+00 -9.999812e-01
    outer loop
      vertex  1.499972e+00  8.000000e+00  1.609810e+01
      vertex  5.551115e-16  8.000000e+00  1.610731e+01
      vertex  1.499972e+00  1.000000e+01  1.609810e+01
    endloop
  endfacet
  facet normal -6.134033e-03  0.000000e+00 -9.999812e-01
    outer loop
      vertex  1.499972e+00  1.000000e+01  1.609810e+01
      vertex  5.551115e-16  8.000000e+00  1.610731e+01
      vertex  0.000000e+00  1.000000e+01  1.610731e+01
    endloop
  endfacet
  facet normal  0.000000e+00 -1.000000e+00  0.000000e+00
    outer loop
      vertex  4.440892e-16  8.000000e+00  3.000000e+01
      vertex  5.551115e-16  8.000000e+00  1.610731e+01
      vertex  1.499972e+00  8.000000e+00  1.609810e+01
    endloop
  endfacet
  facet normal  0.000000e+00 -1.000000e+00  0.000000e+00
    outer loop
      vertex  4.440892e-16  8.000000e+00  3.000000e+01
      vertex  1.499972e+00  8.000000e+00  1.609810e+01
      vertex  2.259173e+00  8.000000e+00  1.629904e+01
    endloop
  endfacet
  facet normal  0.000000e+00 -9.999999e-01  0.000000e+00
    outer loop
      vertex  4.440892e-16  8.000000e+00  3.000000e+01
      vertex  2.259173e+00  8.000000e+00  1.629904e+01
      vertex  3.269645e+00  8.000000e+00  1.647721e+01
    endloop
  endfacet
  facet normal  0.000000e+00 -1.000000e+00  0.000000e+00
    outer loop
      vertex  4.440892e-16  8.000000e+00  3.000000e+01
      vertex  3.269645e+00  8.000000e+00  1.647721e+01
      vertex  4.158239e+00  8.000000e+00  1.596418e+01
    endloop
  endfacet
  facet normal  0.000000e+00 -1.000000e+00  0.000000e+00
    outer loop
      vertex  4.440892e-16  8.000000e+00  3.000000e+01
      vertex  4.158239e+00  8.000000e+00  1.596418e+01
      vertex  4.509173e+00  8.000000e+00  1.500000e+01
    endloop
  endfacet
  facet normal  0.000000e+00 -9.999999e-01  0.000000e+00
    outer loop
      vertex  4.440892e-16  8.000000e+00  3.000000e+01
      vertex  4.509173e+00  8.000000e+00  1.500000e+01
      vertex  1.000000e+02  8.000000e+00  2.000000e+00
    endloop
  endfacet
  facet normal  0.000000e+00 -1.000000e+00  0.000000e+00
    outer loop
      vertex  4.440892e-16  8.000000e+00  3.000000e+01
      vertex  1.000000e+02  8.000000e+00  2.000000e+00
      vertex  1.000000e+02  8.000000e+00  3.000000e+01
    endloop
  endfacet
  facet normal  0.000000e+00 -1.000000e+00  0.000000e+00
    outer loop
      vertex  0.000000e+00  8.000000e+00  2.000000e+00
      vertex  1.000000e+02  8.000000e+00  2.000000e+00
      vertex  4.509173e+00  8.000000e+00  1.500000e+01
    endloop
  endfacet
  facet normal  0.000000e+00 -1.000000e+00  0.000000e+00
    outer loop
      vertex  0.000000e+00  8.000000e+00  2.000000e+00
      vertex  4.509173e+00  8.000000e+00  1.500000e+01
      vertex  4.158239e+00  8.000000e+00  1.403582e+01
    endloop
  endfacet
  facet normal  0.000000e+00 -1.000000e+00  0.000000e+00
    outer loop
      vertex  0.000000e+00  8.000000e+00  2.000000e+00
      vertex  4.158239e+00  8.000000e+00  1.403582e+01
      vertex  3.269645e+00  8.000000e+00  1.352279e+01
    endloop
  endfacet
  facet normal  -0.000000e+00 -1.000000e+00  0.000000e+00
    outer loop
      vertex  0.000000e+00  8.000000e+00  2.000000e+00
      vertex  3.269645e+00  8.000000e+00  1.352279e+01
      vertex  2.259173e+00  8.000000e+00  1.370096e+01
    endloop
  endfacet
  facet normal  -0.000000e+00 -1.000000e+00  0.000000e+00
    outer loop
      vertex  0.000000e+00  8.000000e+00  2.000000e+00
      vertex  2.259173e+00  8.000000e+00  1.370096e+01
      vertex  1.509173e+00  8.000000e+00  1.390192e+01
    endloop
  endfacet
  facet normal  -0.000000e+00 -1.000000e+00  0.000000e+00
    outer loop
      vertex  0.000000e+00  8.000000e+00  2.000000e+00
      vertex  1.509173e+00  8.000000e+00  1.390192e+01
      vertex  4.440892e-16  8.000000e+00  1.390192e+01
    endloop
  endfacet
  facet normal  0.000000e+00  1.000000e+00  0.000000e+00
    outer loop
      vertex  0.000000e+00  2.000000e+00  3.000000e+01
      vertex  1.000000e+02  2.000000e+00  3.000000e+01
      vertex  1.000000e+02  2.000000e+00  2.000000e+00
    endloop
  endfacet
  facet normal  0.000000e+00  9.999999e-01  0.000000e+00
    outer loop
      vertex  0.000000e+00  2.000000e+00  3.000000e+01
      vertex  1.000000e+02  2.000000e+00  2.000000e+00
      vertex  4.509173e+00  2.000000e+00  1.500000e+01
    endloop
  endfacet
  facet normal  0.000000e+00  1.000000e+00  0.000000e+00
    outer loop
      vertex  0.000000e+00  2.000000e+00  3.000000e+01
      vertex  4.509173e+00  2.000000e+00  1.500000e+01
      vertex  4.158239e+00  2.000000e+00  1.596418e+01
    endloop
  endfacet
  facet normal  0.000000e+00  1.000000e+00  0.000000e+00
    outer loop
      vertex  0.000000e+00  2.000000e+00  3.000000e+01
      vertex  4.158239e+00  2.000000e+00  1.596418e+01
      vertex  3.269645e+00  2.000000e+00  1.647721e+01
    endloop
  endfacet
  facet normal  0.000000e+00  1.000000e+00  0.000000e+00
    outer loop
      vertex  0.000000e+00  2.000000e+00  3.000000e+01
      vertex  3.269645e+00  2.000000e+00  1.647721e+01
      vertex  2.259173e+00  2.000000e+00  1.629904e+01
    endloop
  endfacet
  facet normal  0.000000e+00  1.000000e+00  0.000000e+00
    outer loop
      vertex  0.000000e+00  2.000000e+00  3.000000e+01
      vertex  2.259173e+00  2.000000e+00  1.629904e+01
      vertex  1.499972e+00  2.000000e+00  1.609810e+01
    endloop
  endfacet
  facet normal  0.000000e+00  1.000000e+00  0.000000e+00
    outer loop
      vertex  0.000000e+00  2.000000e+00  3.000000e+01
      vertex  1.499972e+00  2.000000e+00  1.609810e+01
      vertex  8.881784e-16  2.000000e+00  1.610731e+01
    endloop
  endfacet
  facet normal  -0.000000e+00  1.000000e+00  0.000000e+00
    outer loop
      vertex  0.000000e+00  2.000000e+00  2.000000e+00
      vertex  0.000000e+00  2.000000e+00  1.390192e+01
      vertex  1.509173e+00  2.000000e+00  1.390192e+01
    endloop
  endfacet
  facet normal  0.000000e+00  1.000000e+00  0.000000e+00
    outer loop
      vertex  0.000000e+00  2.000000e+00  2.000000e+00
      vertex  1.509173e+00  2.000000e+00  1.390192e+01
      vertex  2.259173e+00  2.000000e+00  1.370096e+01
    endloop
  endfacet
  facet normal  0.000000e+00  1.000000e+00  0.000000e+00
    outer loop
      vertex  0.000000e+00  2.000000e+00  2.000000e+00
      vertex  2.259173e+00  2.000000e+00  1.370096e+01
      vertex  3.269645e+00  2.000000e+00  1.352279e+01
    endloop
  endfacet
  facet normal  -0.000000e+00  1.000000e+00  0.000000e+00
    outer loop
      vertex  0.000000e+00  2.000000e+00  2.000000e+00
      vertex  3.269645e+00  2.000000e+00  1.352279e+01
      vertex  4.158239e+00  2.000000e+00  1.403582e+01
    endloop
  endfacet
  facet normal  -0.000000e+00  1.000000e+00  0.000000e+00
    outer loop
      vertex  0.000000e+00  2.000000e+00  2.000000e+00
      vertex  4.158239e+00  2.000000e+00  1.403582e+01
      vertex  4.509173e+00  2.000000e+00  1.500000e+01
    endloop
  endfacet
  facet normal  0.000000e+00  1.000000e+00  0.000000e+00
    outer loop
      vertex  0.000000e+00  2.000000e+00  2.000000e+00
      vertex  4.509173e+00  2.000000e+00  1.500000e+01
      vertex  1.000000e+02  2.000000e+00  2.000000e+00
    endloop
  endfacet
  facet normal  0.000000e+00 -1.000000e+00  0.000000e+00
    outer loop
      vertex  0.000000e+00  0.000000e+00  3.000000e+01
      vertex  1.432188e-14  0.000000e+00  1.610731e+01
      vertex  1.499972e+00  0.000000e+00  1.609810e+01
    endloop
  endfacet
  facet normal  0.000000e+00 -1.000000e+00  0.000000e+00
    outer loop
      vertex  0.000000e+00  0.000000e+00  3.000000e+01
      vertex  1.499972e+00  0.000000e+00  1.609810e+01
      vertex  2.259173e+00  0.000000e+00  1.629904e+01
    endloop
  endfacet
  facet normal  0.000000e+00 -9.999999e-01  0.000000e+00
    outer loop
      vertex  0.000000e+00  0.000000e+00  3.000000e+01
      vertex  2.259173e+00  0.000000e+00  1.629904e+01
      vertex  3.269645e+00  0.000000e+00  1.647721e+01
    endloop
  endfacet
  facet normal  0.000000e+00 -1.000000e+00  0.000000e+00
    outer loop
      vertex  0.000000e+00  0.000000e+00  3.000000e+01
      vertex  3.269645e+00  0.000000e+00  1.647721e+01
      vertex  4.158239e+00  0.000000e+00  1.596418e+01
    endloop
  endfacet
  facet normal  0.000000e+00 -1.000000e+00  0.000000e+00
    outer loop
      vertex  0.000000e+00  0.000000e+00  3.000000e+01
      vertex  4.158239e+00  0.000000e+00  1.596418e+01
      vertex  4.509173e+00  0.000000e+00  1.500000e+01
    endloop
  endfacet
  facet normal  0.000000e+00 -1.000000e+00  0.000000e+00
    outer loop
      vertex  0.000000e+00  0.000000e+00  3.000000e+01
      vertex  4.509173e+00  0.000000e+00  1.500000e+01
      vertex  1.000000e+02  0.000000e+00  0.000000e+00
    endloop
  endfacet
  facet normal  0.000000e+00 -1.000000e+00  0.000000e+00
    outer loop
      vertex  0.000000e+00  0.000000e+00  3.000000e+01
      vertex  1.000000e+02  0.000000e+00  0.000000e+00
      vertex  1.000000e+02  0.000000e+00  3.000000e+01
    endloop
  endfacet
  facet normal  0.000000e+00 -1.000000e+00  0.000000e+00
    outer loop
      vertex  0.000000e+00  0.000000e+00  0.000000e+00
      vertex  1.000000e+02  0.000000e+00  0.000000e+00
      vertex  4.509173e+00  0.000000e+00  1.500000e+01
    endloop
  endfacet
  facet normal  0.000000e+00 -1.000000e+00  0.000000e+00
    outer loop
      vertex  0.000000e+00  0.000000e+00  0.000000e+00
      vertex  4.509173e+00  0.000000e+00  1.500000e+01
      vertex  4.158239e+00  0.000000e+00  1.403582e+01
    endloop
  endfacet
  facet normal  0.000000e+00 -1.000000e+00  0.000000e+00
    outer loop
      vertex  0.000000e+00  0.000000e+00  0.000000e+00
      vertex  4.158239e+00  0.000000e+00  1.403582e+01
      vertex  3.269645e+00  0.000000e+00  1.352279e+01
    endloop
  endfacet
  facet normal  -0.000000e+00 -1.000000e+00  0.000000e+00
    outer loop
      vertex  0.000000e+00  0.000000e+00  0.000000e+00
      vertex  3.269645e+00  0.000000e+00  1.352279e+01
      vertex  2.259173e+00  0.000000e+00  1.370096e+01
    endloop
  endfacet
  facet normal  -0.000000e+00 -1.000000e+00  0.000000e+00
    outer loop
      vertex  0.000000e+00  0.000000e+00  0.000000e+00
      vertex  2.259173e+00  0.000000e+00  1.370096e+01
      vertex  1.509173e+00  0.000000e+00  1.390192e+01
    endloop
  endfacet
  facet normal  -0.000000e+00 -1.000000e+00  0.000000e+00
    outer loop
      vertex  0.000000e+00  0.000000e+00  0.000000e+00
      vertex  1.509173e+00  0.000000e+00  1.390192e+01
      vertex  2.220446e-16  0.000000e+00  1.390192e+01
    endloop
  endfacet
  facet normal  0.000000e+00  1.000000e+00  0.000000e+00
    outer loop
      vertex  2.259173e+00  1.000000e+01  1.629904e+01
      vertex  0.000000e+00  1.000000e+01  1.610731e+01
      vertex  3.269645e+00  1.000000e+01  1.647721e+01
    endloop
  endfacet
  facet normal  0.000000e+00  1.000000e+00  -0.000000e+00
    outer loop
      vertex  2.259173e+00  1.000000e+01  1.629904e+01
      vertex  1.499972e+00  1.000000e+01  1.609810e+01
      vertex  0.000000e+00  1.000000e+01  1.610731e+01
    endloop
  endfacet
  facet normal  0.000000e+00  1.000000e+00  -0.000000e+00
    outer loop
      vertex  1.000000e+02  1.000000e+01  3.000000e+01
      vertex  4.509173e+00  1.000000e+01  1.500000e+01
      vertex  4.158239e+00  1.000000e+01  1.596418e+01
    endloop
  endfacet
  facet normal  0.000000e+00  1.000000e+00  -0.000000e+00
    outer loop
      vertex  1.000000e+02  1.000000e+01  3.000000e+01
      vertex  4.158239e+00  1.000000e+01  1.596418e+01
      vertex  3.269645e+00  1.000000e+01  1.647721e+01
    endloop
  endfacet
  facet normal  0.000000e+00  1.000000e+00  -0.000000e+00
    outer loop
      vertex  1.000000e+02  1.000000e+01  3.000000e+01
      vertex  3.269645e+00  1.000000e+01  1.647721e+01
      vertex  0.000000e+00  1.000000e+01  1.610731e+01
    endloop
  endfacet
  facet normal  0.000000e+00  1.000000e+00  0.000000e+00
    outer loop
      vertex  1.000000e+02  1.000000e+01  3.000000e+01
      vertex  0.000000e+00  1.000000e+01  1.610731e+01
      vertex  0.000000e+00  1.000000e+01  3.000000e+01
    endloop
  endfacet
  facet normal  -0.000000e+00  9.999999e-01  0.000000e+00
    outer loop
      vertex  1.000000e+02  1.000000e+01  0.000000e+00
      vertex  3.269645e+00  1.000000e+01  1.352279e+01
      vertex  4.158239e+00  1.000000e+01  1.403582e+01
    endloop
  endfacet
  facet normal  -0.000000e+00  1.000000e+00  0.000000e+00
    outer loop
      vertex  1.000000e+02  1.000000e+01  0.000000e+00
      vertex  4.158239e+00  1.000000e+01  1.403582e+01
      vertex  4.509173e+00  1.000000e+01  1.500000e+01
    endloop
  endfacet
  facet normal  -0.000000e+00  1.000000e+00  0.000000e+00
    outer loop
      vertex  1.000000e+02  1.000000e+01  0.000000e+00
      vertex  4.509173e+00  1.000000e+01  1.500000e+01
      vertex  1.000000e+02  1.000000e+01  3.000000e+01
    endloop
  endfacet
  facet normal  -0.000000e+00  1.000000e+00  0.000000e+00
    outer loop
      vertex  0.000000e+00  1.000000e+01  0.000000e+00
      vertex  0.000000e+00  1.000000e+01  1.390192e+01
      vertex  1.509173e+00  1.000000e+01  1.390192e+01
    endloop
  endfacet
  facet normal  0.000000e+00  1.000000e+00  0.000000e+00
    outer loop
      vertex  0.000000e+00  1.000000e+01  0.000000e+00
      vertex  1.509173e+00  1.000000e+01  1.390192e+01
      vertex  2.259173e+00  1.000000e+01  1.370096e+01
    endloop
  endfacet
  facet normal  0.000000e+00  1.000000e+00  0.000000e+00
    outer loop
      vertex  0.000000e+00  1.000000e+01  0.000000e+00
      vertex  2.259173e+00  1.000000e+01  1.370096e+01
      vertex  3.269645e+00  1.000000e+01  1.352279e+01
    endloop
  endfacet
  facet normal  0.000000e+00  1.000000e+00  0.000000e+00
    outer loop
      vertex  0.000000e+00  1.000000e+01  0.000000e+00
      vertex  3.269645e+00  1.000000e+01  1.352279e+01
      vertex  1.000000e+02  1.000000e+01  0.000000e+00
    endloop
  endfacet
  facet normal -1.000000e+00 -2.220446e-16  3.731239e-17
    outer loop
      vertex  4.440892e-16  8.000000e+00  1.390192e+01
      vertex  0.000000e+00  1.000000e+01  1.390192e+01
      vertex  0.000000e+00  8.000000e+00  2.000000e+00
    endloop
  endfacet
  facet normal -1.000000e+00  0.000000e+00  0.000000e+00
    outer loop
      vertex  0.000000e+00  8.000000e+00  2.000000e+00
      vertex  0.000000e+00  1.000000e+01  1.390192e+01
      vertex  0.000000e+00  1.000000e+01  0.000000e+00
    endloop
  endfacet
  facet normal -1.000000e+00  0.000000e+00  0.000000e+00
    outer loop
      vertex  0.000000e+00  8.000000e+00  2.000000e+00
      vertex  0.000000e+00  1.000000e+01  0.000000e+00
      vertex  0.000000e+00  6.107249e+00  2.000000e+00
    endloop
  endfacet
  facet normal -1.000000e+00  0.000000e+00  0.000000e+00
    outer loop
      vertex  0.000000e+00  6.107249e+00  2.000000e+00
      vertex  0.000000e+00  1.000000e+01  0.000000e+00
      vertex  0.000000e+00  6.107249e+00  0.000000e+00
    endloop
  endfacet
  facet normal -1.000000e+00 -2.775557e-16  0.000000e+00
    outer loop
      vertex  0.000000e+00  1.000000e+01  1.610731e+01
      vertex  5.551115e-16  8.000000e+00  1.610731e+01
      vertex  0.000000e+00  1.000000e+01  3.000000e+01
    endloop
  endfacet
  facet normal -1.000000e+00 -2.220446e-16 -7.991416e-18
    outer loop
      vertex  0.000000e+00  1.000000e+01  3.000000e+01
      vertex  5.551115e-16  8.000000e+00  1.610731e+01
      vertex  4.440892e-16  8.000000e+00  3.000000e+01
    endloop
  endfacet
  facet normal -1.000000e+00 -1.110223e-16  1.597222e-17
    outer loop
      vertex  2.220446e-16  0.000000e+00  1.390192e+01
      vertex  0.000000e+00  2.000000e+00  1.390192e+01
      vertex  0.000000e+00  0.000000e+00  0.000000e+00
    endloop
  endfacet
  facet normal -1.000000e+00  0.000000e+00  0.000000e+00
    outer loop
      vertex  0.000000e+00  0.000000e+00  0.000000e+00
      vertex  0.000000e+00  2.000000e+00  1.390192e+01
      vertex  0.000000e+00  2.000000e+00  2.000000e+00
    endloop
  endfacet
  facet normal -9.999999e-01  0.000000e+00  -0.000000e+00
    outer loop
      vertex  0.000000e+00  0.000000e+00  0.000000e+00
      vertex  0.000000e+00  2.000000e+00  2.000000e+00
      vertex  0.000000e+00  3.901924e+00  0.000000e+00
    endloop
  endfacet
  facet normal -1.000000e+00  0.000000e+00  0.000000e+00
    outer loop
      vertex  0.000000e+00  3.901924e+00  0.000000e+00
      vertex  0.000000e+00  2.000000e+00  2.000000e+00
      vertex  0.000000e+00  3.901924e+00  2.000000e+00
    endloop
  endfacet
  facet normal -1.000000e+00 -6.716849e-15 -6.393133e-17
    outer loop
      vertex  8.881784e-16  2.000000e+00  1.610731e+01
      vertex  1.432188e-14  0.000000e+00  1.610731e+01
      vertex  0.000000e+00  2.000000e+00  3.000000e+01
    endloop
  endfacet
  facet normal -1.000000e+00  -0.000000e+00 -1.030893e-15
    outer loop
      vertex  0.000000e+00  2.000000e+00  3.000000e+01
      vertex  1.432188e-14  0.000000e+00  1.610731e+01
      vertex  0.000000e+00  0.000000e+00  3.000000e+01
    endloop
  endfacet
  facet normal  2.588192e-01  0.000000e+00  9.659258e-01
    outer loop
      vertex  2.259173e+00  8.000000e+00  1.370096e+01
      vertex  2.259173e+00  1.000000e+01  1.370096e+01
      vertex  1.509173e+00  8.000000e+00  1.390192e+01
    endloop
  endfacet
  facet normal  2.588192e-01  -0.000000e+00  9.659258e-01
    outer loop
      vertex  1.509173e+00  8.000000e+00  1.390192e+01
      vertex  2.259173e+00  1.000000e+01  1.370096e+01
      vertex  1.509173e+00  1.000000e+01  1.390192e+01
    endloop
  endfacet
  facet normal -9.396925e-01  0.000000e+00 -3.420205e-01
    outer loop
      vertex  4.509173e+00  2.000000e+00  1.500000e+01
      vertex  4.158239e+00  0.000000e+00  1.596418e+01
      vertex  4.158239e+00  2.000000e+00  1.596418e+01
    endloop
  endfacet
  facet normal -4.999999e-01  -0.000000e+00 -8.660255e-01
    outer loop
      vertex  4.158239e+00  2.000000e+00  1.596418e+01
      vertex  4.158239e+00  0.000000e+00  1.596418e+01
      vertex  3.269645e+00  0.000000e+00  1.647721e+01
    endloop
  endfacet
  facet normal -4.999999e-01  0.000000e+00 -8.660255e-01
    outer loop
      vertex  4.158239e+00  2.000000e+00  1.596418e+01
      vertex  3.269645e+00  0.000000e+00  1.647721e+01
      vertex  3.269645e+00  2.000000e+00  1.647721e+01
    endloop
  endfacet
  facet normal  1.736478e-01  0.000000e+00 -9.848078e-01
    outer loop
      vertex  3.269645e+00  2.000000e+00  1.647721e+01
      vertex  3.269645e+00  0.000000e+00  1.647721e+01
      vertex  2.259173e+00  0.000000e+00  1.629904e+01
    endloop
  endfacet
  facet normal  1.736478e-01  0.000000e+00 -9.848078e-01
    outer loop
      vertex  3.269645e+00  2.000000e+00  1.647721e+01
      vertex  2.259173e+00  0.000000e+00  1.629904e+01
      vertex  2.259173e+00  2.000000e+00  1.629904e+01
    endloop
  endfacet
  facet normal -9.396925e-01  -0.000000e+00 -3.420205e-01
    outer loop
      vertex  4.158239e+00  0.000000e+00  1.596418e+01
      vertex  4.509173e+00  2.000000e+00  1.500000e+01
      vertex  4.509173e+00  0.000000e+00  1.500000e+01
    endloop
  endfacet
  facet normal -9.396925e-01  0.000000e+00  3.420205e-01
    outer loop
      vertex  4.509173e+00  0.000000e+00  1.500000e+01
      vertex  4.509173e+00  2.000000e+00  1.500000e+01
      vertex  4.158239e+00  2.000000e+00  1.403582e+01
    endloop
  endfacet
  facet normal -9.396925e-01  0.000000e+00  3.420205e-01
    outer loop
      vertex  4.509173e+00  0.000000e+00  1.500000e+01
      vertex  4.158239e+00  2.000000e+00  1.403582e+01
      vertex  4.158239e+00  0.000000e+00  1.403582e+01
    endloop
  endfacet
  facet normal -5.000006e-01  0.000000e+00  8.660250e-01
    outer loop
      vertex  4.158239e+00  0.000000e+00  1.403582e+01
      vertex  4.158239e+00  2.000000e+00  1.403582e+01
      vertex  3.269645e+00  2.000000e+00  1.352279e+01
    endloop
  endfacet
  facet normal -5.000006e-01  0.000000e+00  8.660250e-01
    outer loop
      vertex  4.158239e+00  0.000000e+00  1.403582e+01
      vertex  3.269645e+00  2.000000e+00  1.352279e+01
      vertex  3.269645e+00  0.000000e+00  1.352279e+01
    endloop
  endfacet
  facet normal  1.736487e-01  -0.000000e+00  9.848077e-01
    outer loop
      vertex  3.269645e+00  0.000000e+00  1.352279e+01
      vertex  3.269645e+00  2.000000e+00  1.352279e+01
      vertex  2.259173e+00  2.000000e+00  1.370096e+01
    endloop
  endfacet
  facet normal  1.736487e-01  0.000000e+00  9.848077e-01
    outer loop
      vertex  3.269645e+00  0.000000e+00  1.352279e+01
      vertex  2.259173e+00  2.000000e+00  1.370096e+01
      vertex  2.259173e+00  0.000000e+00  1.370096e+01
    endloop
  endfacet
  facet normal -9.396925e-01  0.000000e+00 -3.420205e-01
    outer loop
      vertex  4.509173e+00  1.000000e+01  1.500000e+01
      vertex  4.158239e+00  8.000000e+00  1.596418e+01
      vertex  4.158239e+00  1.000000e+01  1.596418e+01
    endloop
  endfacet
  facet normal -4.999999e-01  -0.000000e+00 -8.660255e-01
    outer loop
      vertex  4.158239e+00  1.000000e+01  1.596418e+01
      vertex  4.158239e+00  8.000000e+00  1.596418e+01
      vertex  3.269645e+00  8.000000e+00  1.647721e+01
    endloop
  endfacet
  facet normal -4.999999e-01  0.000000e+00 -8.660255e-01
    outer loop
      vertex  4.158239e+00  1.000000e+01  1.596418e+01
      vertex  3.269645e+00  8.000000e+00  1.647721e+01
      vertex  3.269645e+00  1.000000e+01  1.647721e+01
    endloop
  endfacet
  facet normal  1.736478e-01  0.000000e+00 -9.848078e-01
    outer loop
      vertex  3.269645e+00  1.000000e+01  1.647721e+01
      vertex  3.269645e+00  8.000000e+00  1.647721e+01
      vertex  2.259173e+00  8.000000e+00  1.629904e+01
    endloop
  endfacet
  facet normal  1.736478e-01  0.000000e+00 -9.848078e-01
    outer loop
      vertex  3.269645e+00  1.000000e+01  1.647721e+01
      vertex  2.259173e+00  8.000000e+00  1.629904e+01
      vertex  2.259173e+00  1.000000e+01  1.629904e+01
    endloop
  endfacet
  facet normal -9.396925e-01  -0.000000e+00 -3.420205e-01
    outer loop
      vertex  4.158239e+00  8.000000e+00  1.596418e+01
      vertex  4.509173e+00  1.000000e+01  1.500000e+01
      vertex  4.509173e+00  8.000000e+00  1.500000e+01
    endloop
  endfacet
  facet normal -9.396925e-01  0.000000e+00  3.420205e-01
    outer loop
      vertex  4.509173e+00  8.000000e+00  1.500000e+01
      vertex  4.509173e+00  1.000000e+01  1.500000e+01
      vertex  4.158239e+00  1.000000e+01  1.403582e+01
    endloop
  endfacet
  facet normal -9.396925e-01  0.000000e+00  3.420205e-01
    outer loop
      vertex  4.509173e+00  8.000000e+00  1.500000e+01
      vertex  4.158239e+00  1.000000e+01  1.403582e+01
      vertex  4.158239e+00  8.000000e+00  1.403582e+01
    endloop
  endfacet
  facet normal -5.000006e-01  0.000000e+00  8.660250e-01
    outer loop
      vertex  4.158239e+00  8.000000e+00  1.403582e+01
      vertex  4.158239e+00  1.000000e+01  1.403582e+01
      vertex  3.269645e+00  1.000000e+01  1.352279e+01
    endloop
  endfacet
  facet normal -5.000006e-01  0.000000e+00  8.660250e-01
    outer loop
      vertex  4.158239e+00  8.000000e+00  1.403582e+01
      vertex  3.269645e+00  1.000000e+01  1.352279e+01
      vertex  3.269645e+00  8.000000e+00  1.352279e+01
    endloop
  endfacet
  facet normal  1.736487e-01  -0.000000e+00  9.848077e-01
    outer loop
      vertex  3.269645e+00  8.000000e+00  1.352279e+01
      vertex  3.269645e+00  1.000000e+01  1.352279e+01
      vertex  2.259173e+00  1.000000e+01  1.370096e+01
    endloop
  endfacet
  facet normal  1.736487e-01  0.000000e+00  9.848077e-01
    outer loop
      vertex  3.269645e+00  8.000000e+00  1.352279e+01
      vertex  2.259173e+00  1.000000e+01  1.370096e+01
      vertex  2.259173e+00  8.000000e+00  1.370096e+01
    endloop
  endfacet
  facet normal  2.558550e-01  0.000000e+00 -9.667152e-01
    outer loop
      vertex  1.499972e+00  0.000000e+00  1.609810e+01
      vertex  1.499972e+00  2.000000e+00  1.609810e+01
      vertex  2.259173e+00  0.000000e+00  1.629904e+01
    endloop
  endfacet
  facet normal  2.558550e-01  0.000000e+00 -9.667152e-01
    outer loop
      vertex  2.259173e+00  0.000000e+00  1.629904e+01
      vertex  1.499972e+00  2.000000e+00  1.609810e+01
      vertex  2.259173e+00  2.000000e+00  1.629904e+01
    endloop
  endfacet
  facet normal  2.558550e-01  0.000000e+00 -9.667152e-01
    outer loop
      vertex  1.499972e+00  8.000000e+00  1.609810e+01
      vertex  1.499972e+00  1.000000e+01  1.609810e+01
      vertex  2.259173e+00  8.000000e+00  1.629904e+01
    endloop
  endfacet
  facet normal  2.558550e-01  0.000000e+00 -9.667152e-01
    outer loop
      vertex  2.259173e+00  8.000000e+00  1.629904e+01
      vertex  1.499972e+00  1.000000e+01  1.609810e+01
      vertex  2.259173e+00  1.000000e+01  1.629904e+01
    endloop
  endfacet
  facet normal -6.134034e-03 -9.999812e-01  -0.000000e+00
    outer loop
      vertex  1.490799e+00  6.098104e+00  0.000000e+00
      vertex  1.490799e+00  6.098104e+00  2.000000e+00
      vertex  0.000000e+00  6.107249e+00  0.000000e+00
    endloop
  endfacet
  facet normal -6.134034e-03 -9.999812e-01  0.000000e+00
    outer loop
      vertex  0.000000e+00  6.107249e+00  0.000000e+00
      vertex  1.490799e+00  6.098104e+00  2.000000e+00
      vertex  0.000000e+00  6.107249e+00  2.000000e+00
    endloop
  endfacet
  facet normal  0.000000e+00  1.000000e+00  0.000000e+00
    outer loop
      vertex  1.500000e+00  3.901924e+00  0.000000e+00
      vertex  0.000000e+00  3.901924e+00  0.000000e+00
      vertex  1.500000e+00  3.901924e+00  2.000000e+00
    endloop
  endfacet
  facet normal  0.000000e+00  1.000000e+00  0.000000e+00
    outer loop
      vertex  1.500000e+00  3.901924e+00  2.000000e+00
      vertex  0.000000e+00  3.901924e+00  0.000000e+00
      vertex  0.000000e+00  3.901924e+00  2.000000e+00
    endloop
  endfacet
  facet normal  0.000000e+00  0.000000e+00 -1.000000e+00
    outer loop
      vertex  1.000000e+02  0.000000e+00  0.000000e+00
      vertex  0.000000e+00  0.000000e+00  0.000000e+00
      vertex  3.260472e+00  3.522788e+00  0.000000e+00
    endloop
  endfacet
  facet normal  0.000000e+00  0.000000e+00 -1.000000e+00
    outer loop
      vertex  1.000000e+02  0.000000e+00  0.000000e+00
      vertex  3.260472e+00  3.522788e+00  0.000000e+00
      vertex  4.149066e+00  4.035819e+00  0.000000e+00
    endloop
  endfacet
  facet normal  0.000000e+00  0.000000e+00 -1.000000e+00
    outer loop
      vertex  1.000000e+02  0.000000e+00  0.000000e+00
      vertex  4.149066e+00  4.035819e+00  0.000000e+00
      vertex  4.500000e+00  5.000000e+00  0.000000e+00
    endloop
  endfacet
  facet normal  0.000000e+00  0.000000e+00 -1.000000e+00
    outer loop
      vertex  1.000000e+02  0.000000e+00  0.000000e+00
      vertex  4.500000e+00  5.000000e+00  0.000000e+00
      vertex  4.149066e+00  5.964181e+00  0.000000e+00
    endloop
  endfacet
  facet normal  0.000000e+00  0.000000e+00 -9.999999e-01
    outer loop
      vertex  1.000000e+02  0.000000e+00  0.000000e+00
      vertex  4.149066e+00  5.964181e+00  0.000000e+00
      vertex  3.260472e+00  6.477211e+00  0.000000e+00
    endloop
  endfacet
  facet normal  0.000000e+00  0.000000e+00 -1.000000e+00
    outer loop
      vertex  1.000000e+02  0.000000e+00  0.000000e+00
      vertex  3.260472e+00  6.477211e+00  0.000000e+00
      vertex  0.000000e+00  1.000000e+01  0.000000e+00
    endloop
  endfacet
  facet normal  0.000000e+00  0.000000e+00 -1.000000e+00
    outer loop
      vertex  1.000000e+02  0.000000e+00  0.000000e+00
      vertex  0.000000e+00  1.000000e+01  0.000000e+00
      vertex  1.000000e+02  1.000000e+01  0.000000e+00
    endloop
  endfacet
  facet normal  0.000000e+00  0.000000e+00 -1.000000e+00
    outer loop
      vertex  1.490799e+00  6.098104e+00  0.000000e+00
      vertex  0.000000e+00  6.107249e+00  0.000000e+00
      vertex  2.250000e+00  6.299038e+00  0.000000e+00
    endloop
  endfacet
  facet normal  -0.000000e+00  0.000000e+00 -1.000000e+00
    outer loop
      vertex  2.250000e+00  6.299038e+00  0.000000e+00
      vertex  0.000000e+00  6.107249e+00  0.000000e+00
      vertex  0.000000e+00  1.000000e+01  0.000000e+00
    endloop
  endfacet
  facet normal  0.000000e+00  0.000000e+00 -9.999999e-01
    outer loop
      vertex  2.250000e+00  6.299038e+00  0.000000e+00
      vertex  0.000000e+00  1.000000e+01  0.000000e+00
      vertex  3.260472e+00  6.477211e+00  0.000000e+00
    endloop
  endfacet
  facet normal  0.000000e+00  0.000000e+00 -1.000000e+00
    outer loop
      vertex  3.260472e+00  3.522788e+00  0.000000e+00
      vertex  0.000000e+00  0.000000e+00  0.000000e+00
      vertex  2.250000e+00  3.700962e+00  0.000000e+00
    endloop
  endfacet
  facet normal  -0.000000e+00  0.000000e+00 -1.000000e+00
    outer loop
      vertex  2.250000e+00  3.700962e+00  0.000000e+00
      vertex  0.000000e+00  0.000000e+00  0.000000e+00
      vertex  0.000000e+00  3.901924e+00  0.000000e+00
    endloop
  endfacet
  facet normal  0.000000e+00  0.000000e+00 -1.000000e+00
    outer loop
      vertex  2.250000e+00  3.700962e+00  0.000000e+00
      vertex  0.000000e+00  3.901924e+00  0.000000e+00
      vertex  1.500000e+00  3.901924e+00  0.000000e+00
    endloop
  endfacet
  facet normal  0.000000e+00  0.000000e+00  1.000000e+00
    outer loop
      vertex  1.000000e+02  2.000000e+00  2.000000e+00
      vertex  1.000000e+02  8.000000e+00  2.000000e+00
      vertex  0.000000e+00  8.000000e+00  2.000000e+00
    endloop
  endfacet
  facet normal  0.000000e+00  0.000000e+00  1.000000e+00
    outer loop
      vertex  1.000000e+02  2.000000e+00  2.000000e+00
      vertex  0.000000e+00  8.000000e+00  2.000000e+00
      vertex  3.260472e+00  6.477211e+00  2.000000e+00
    endloop
  endfacet
  facet normal  0.000000e+00  0.000000e+00  1.000000e+00
    outer loop
      vertex  1.000000e+02  2.000000e+00  2.000000e+00
      vertex  3.260472e+00  6.477211e+00  2.000000e+00
      vertex  4.149066e+00  5.964181e+00  2.000000e+00
    endloop
  endfacet
  facet normal  0.000000e+00  0.000000e+00  1.000000e+00
    outer loop
      vertex  1.000000e+02  2.000000e+00  2.000000e+00
      vertex  4.149066e+00  5.964181e+00  2.000000e+00
      vertex  4.500000e+00  5.000000e+00  2.000000e+00
    endloop
  endfacet
  facet normal  0.000000e+00  0.000000e+00  1.000000e+00
    outer loop
      vertex  1.000000e+02  2.000000e+00  2.000000e+00
      vertex  4.500000e+00  5.000000e+00  2.000000e+00
      vertex  4.149066e+00  4.035819e+00  2.000000e+00
    endloop
  endfacet
  facet normal  0.000000e+00  0.000000e+00  9.999999e-01
    outer loop
      vertex  1.000000e+02  2.000000e+00  2.000000e+00
      vertex  4.149066e+00  4.035819e+00  2.000000e+00
      vertex  3.260472e+00  3.522788e+00  2.000000e+00
    endloop
  endfacet
  facet normal  0.000000e+00  0.000000e+00  1.000000e+00
    outer loop
      vertex  1.000000e+02  2.000000e+00  2.000000e+00
      vertex  3.260472e+00  3.522788e+00  2.000000e+00
      vertex  0.000000e+00  2.000000e+00  2.000000e+00
    endloop
  endfacet
  facet normal  0.000000e+00  0.000000e+00  1.000000e+00
    outer loop
      vertex  3.260472e+00  6.477211e+00  2.000000e+00
      vertex  0.000000e+00  8.000000e+00  2.000000e+00
      vertex  2.250000e+00  6.299038e+00  2.000000e+00
    endloop
  endfacet
  facet normal  0.000000e+00  0.000000e+00  1.000000e+00
    outer loop
      vertex  2.250000e+00  6.299038e+00  2.000000e+00
      vertex  0.000000e+00  8.000000e+00  2.000000e+00
      vertex  0.000000e+00  6.107249e+00  2.000000e+00
    endloop
  endfacet
  facet normal  -0.000000e+00  0.000000e+00  1.000000e+00
    outer loop
      vertex  2.250000e+00  6.299038e+00  2.000000e+00
      vertex  0.000000e+00  6.107249e+00  2.000000e+00
      vertex  1.490799e+00  6.098104e+00  2.000000e+00
    endloop
  endfacet
  facet normal  -0.000000e+00  0.000000e+00  1.000000e+00
    outer loop
      vertex  1.500000e+00  3.901924e+00  2.000000e+00
      vertex  0.000000e+00  3.901924e+00  2.000000e+00
      vertex  2.250000e+00  3.700962e+00  2.000000e+00
    endloop
  endfacet
  facet normal  0.000000e+00  0.000000e+00  1.000000e+00
    outer loop
      vertex  2.250000e+00  3.700962e+00  2.000000e+00
      vertex  0.000000e+00  3.901924e+00  2.000000e+00
      vertex  0.000000e+00  2.000000e+00  2.000000e+00
    endloop
  endfacet
  facet normal  0.000000e+00  0.000000e+00  1.000000e+00
    outer loop
      vertex  2.250000e+00  3.700962e+00  2.000000e+00
      vertex  0.000000e+00  2.000000e+00  2.000000e+00
      vertex  3.260472e+00  3.522788e+00  2.000000e+00
    endloop
  endfacet
  facet normal  2.558551e-01 -9.667152e-01  0.000000e+00
    outer loop
      vertex  1.490799e+00  6.098104e+00  2.000000e+00
      vertex  1.490799e+00  6.098104e+00  0.000000e+00
      vertex  2.250000e+00  6.299038e+00  2.000000e+00
    endloop
  endfacet
  facet normal  2.558551e-01 -9.667152e-01  0.000000e+00
    outer loop
      vertex  2.250000e+00  6.299038e+00  2.000000e+00
      vertex  1.490799e+00  6.098104e+00  0.000000e+00
      vertex  2.250000e+00  6.299038e+00  0.000000e+00
    endloop
  endfacet
  facet normal -9.396926e-01 -3.420203e-01  -0.000000e+00
    outer loop
      vertex  4.500000e+00  5.000000e+00  0.000000e+00
      vertex  4.149066e+00  5.964181e+00  2.000000e+00
      vertex  4.149066e+00  5.964181e+00  0.000000e+00
    endloop
  endfacet
  facet normal -5.000000e-01 -8.660254e-01  0.000000e+00
    outer loop
      vertex  4.149066e+00  5.964181e+00  0.000000e+00
      vertex  4.149066e+00  5.964181e+00  2.000000e+00
      vertex  3.260472e+00  6.477211e+00  2.000000e+00
    endloop
  endfacet
  facet normal -5.000000e-01 -8.660254e-01  -0.000000e+00
    outer loop
      vertex  4.149066e+00  5.964181e+00  0.000000e+00
      vertex  3.260472e+00  6.477211e+00  2.000000e+00
      vertex  3.260472e+00  6.477211e+00  0.000000e+00
    endloop
  endfacet
  facet normal  1.736482e-01 -9.848078e-01  0.000000e+00
    outer loop
      vertex  3.260472e+00  6.477211e+00  0.000000e+00
      vertex  3.260472e+00  6.477211e+00  2.000000e+00
      vertex  2.250000e+00  6.299038e+00  2.000000e+00
    endloop
  endfacet
  facet normal  1.736482e-01 -9.848078e-01  0.000000e+00
    outer loop
      vertex  3.260472e+00  6.477211e+00  0.000000e+00
      vertex  2.250000e+00  6.299038e+00  2.000000e+00
      vertex  2.250000e+00  6.299038e+00  0.000000e+00
    endloop
  endfacet
  facet normal -9.396926e-01 -3.420203e-01  0.000000e+00
    outer loop
      vertex  4.149066e+00  5.964181e+00  2.000000e+00
      vertex  4.500000e+00  5.000000e+00  0.000000e+00
      vertex  4.500000e+00  5.000000e+00  2.000000e+00
    endloop
  endfacet
  facet normal -9.396926e-01  3.420203e-01  0.000000e+00
    outer loop
      vertex  4.500000e+00  5.000000e+00  2.000000e+00
      vertex  4.500000e+00  5.000000e+00  0.000000e+00
      vertex  4.149066e+00  4.035819e+00  0.000000e+00
    endloop
  endfacet
  facet normal -9.396926e-01  3.420203e-01  0.000000e+00
    outer loop
      vertex  4.500000e+00  5.000000e+00  2.000000e+00
      vertex  4.149066e+00  4.035819e+00  0.000000e+00
      vertex  4.149066e+00  4.035819e+00  2.000000e+00
    endloop
  endfacet
  facet normal -5.000002e-01  8.660253e-01  0.000000e+00
    outer loop
      vertex  4.149066e+00  4.035819e+00  2.000000e+00
      vertex  4.149066e+00  4.035819e+00  0.000000e+00
      vertex  3.260472e+00  3.522788e+00  0.000000e+00
    endloop
  endfacet
  facet normal -5.000002e-01  8.660253e-01  0.000000e+00
    outer loop
      vertex  4.149066e+00  4.035819e+00  2.000000e+00
      vertex  3.260472e+00  3.522788e+00  0.000000e+00
      vertex  3.260472e+00  3.522788e+00  2.000000e+00
    endloop
  endfacet
  facet normal  1.736482e-01  9.848078e-01  0.000000e+00
    outer loop
      vertex  3.260472e+00  3.522788e+00  2.000000e+00
      vertex  3.260472e+00  3.522788e+00  0.000000e+00
      vertex  2.250000e+00  3.700962e+00  0.000000e+00
    endloop
  endfacet
  facet normal  1.736482e-01  9.848078e-01  -0.000000e+00
    outer loop
      vertex  3.260472e+00  3.522788e+00  2.000000e+00
      vertex  2.250000e+00  3.700962e+00  0.000000e+00
      vertex  2.250000e+00  3.700962e+00  2.000000e+00
    endloop
  endfacet
  facet normal  2.588193e-01  9.659258e-01  -0.000000e+00
    outer loop
      vertex  2.250000e+00  3.700962e+00  2.000000e+00
      vertex  2.250000e+00  3.700962e+00  0.000000e+00
      vertex  1.500000e+00  3.901924e+00  2.000000e+00
    endloop
  endfacet
  facet normal  2.588193e-01  9.659258e-01  0.000000e+00
    outer loop
      vertex  1.500000e+00  3.901924e+00  2.000000e+00
      vertex  2.250000e+00  3.700962e+00  0.000000e+00
      vertex  1.500000e+00  3.901924e+00  0.000000e+00
    endloop
  endfacet
  facet normal  0.000000e+00  0.000000e+00  1.000000e+00
    outer loop
      vertex  0.000000e+00  0.000000e+00  3.000000e+01
      vertex  1.000000e+02  0.000000e+00  3.000000e+01
      vertex  0.000000e+00  2.000000e+00  3.000000e+01
    endloop
  endfacet
  facet normal  -0.000000e+00  0.000000e+00  1.000000e+00
    outer loop
      vertex  0.000000e+00  2.000000e+00  3.000000e+01
      vertex  1.000000e+02  0.000000e+00  3.000000e+01
      vertex  1.000000e+02  2.000000e+00  3.000000e+01
    endloop
  endfacet
  facet normal  0.000000e+00  0.000000e+00  1.000000e+00
    outer loop
      vertex  4.440892e-16  8.000000e+00  3.000000e+01
      vertex  1.000000e+02  8.000000e+00  3.000000e+01
      vertex  0.000000e+00  1.000000e+01  3.000000e+01
    endloop
  endfacet
  facet normal  -0.000000e+00  0.000000e+00  1.000000e+00
    outer loop
      vertex  0.000000e+00  1.000000e+01  3.000000e+01
      vertex  1.000000e+02  8.000000e+00  3.000000e+01
      vertex  1.000000e+02  1.000000e+01  3.000000e+01
    endloop
  endfacet
  facet normal  1.000000e+00  -0.000000e+00  0.000000e+00
    outer loop
      vertex  1.000000e+02  1.000000e+01  3.000000e+01
      vertex  1.000000e+02  8.000000e+00  3.000000e+01
      vertex  1.000000e+02  1.000000e+01  0.000000e+00
    endloop
  endfacet
  facet normal  1.000000e+00  0.000000e+00  0.000000e+00
    outer loop
      vertex  1.000000e+02  1.000000e+01  0.000000e+00
      vertex  1.000000e+02  8.000000e+00  3.000000e+01
      vertex  1.000000e+02  8.000000e+00  2.000000e+00
    endloop
  endfacet
  facet normal  1.000000e+00  0.000000e+00  0.000000e+00
    outer loop
      vertex  1.000000e+02  1.000000e+01  0.000000e+00
      vertex  1.000000e+02  8.000000e+00  2.000000e+00
      vertex  1.000000e+02  0.000000e+00  0.000000e+00
    endloop
  endfacet
  facet normal  1.000000e+00  0.000000e+00  0.000000e+00
    outer loop
      vertex  1.000000e+02  0.000000e+00  0.000000e+00
      vertex  1.000000e+02  8.000000e+00  2.000000e+00
      vertex  1.000000e+02  2.000000e+00  2.000000e+00
    endloop
  endfacet
  facet normal  1.000000e+00  0.000000e+00  0.000000e+00
    outer loop
      vertex  1.000000e+02  0.000000e+00  0.000000e+00
      vertex  1.000000e+02  2.000000e+00  2.000000e+00
      vertex  1.000000e+02  0.000000e+00  3.000000e+01
    endloop
  endfacet
  facet normal  1.000000e+00  -0.000000e+00  0.000000e+00
    outer loop
      vertex  1.000000e+02  0.000000e+00  3.000000e+01
      vertex  1.000000e+02  2.000000e+00  2.000000e+00
      vertex  1.000000e+02  2.000000e+00  3.000000e+01
    endloop
  endfacet
endsolid CATIA STL
