solid CATIA STL
  facet normal -1.000000e+00  0.000000e+00  0.000000e+00
    outer loop
      vertex  8.850000e+01  5.000000e+00  0.000000e+00
      vertex  8.850000e+01  5.000000e+00  3.500000e+01
      vertex  8.850000e+01  7.642893e+01  0.000000e+00
    endloop
  endfacet
  facet normal -1.000000e+00  0.000000e+00  0.000000e+00
    outer loop
      vertex  8.850000e+01  7.642893e+01  0.000000e+00
      vertex  8.850000e+01  5.000000e+00  3.500000e+01
      vertex  8.850000e+01  7.642893e+01  3.500000e+01
    endloop
  endfacet
  facet normal  7.071068e-01 -7.071068e-01  0.000000e+00
    outer loop
      vertex  5.296447e+01  5.296447e+01  3.500000e+01
      vertex  5.296447e+01  5.296447e+01  0.000000e+00
      vertex  7.996446e+01  7.996446e+01  3.500000e+01
    endloop
  endfacet
  facet normal  7.071068e-01 -7.071068e-01  0.000000e+00
    outer loop
      vertex  7.996446e+01  7.996446e+01  3.500000e+01
      vertex  5.296447e+01  5.296447e+01  0.000000e+00
      vertex  7.996446e+01  7.996446e+01  0.000000e+00
    endloop
  endfacet
  facet normal  0.000000e+00  0.000000e+00 -1.000000e+00
    outer loop
      vertex  5.150000e+01  4.942893e+01  0.000000e+00
      vertex  5.150000e+01  5.000000e+00  0.000000e+00
      vertex  4.850000e+01  5.000000e+00  0.000000e+00
    endloop
  endfacet
  facet normal  0.000000e+00  0.000000e+00 -1.000000e+00
    outer loop
      vertex  5.150000e+01  4.942893e+01  0.000000e+00
      vertex  4.850000e+01  5.000000e+00  0.000000e+00
      vertex  4.850000e+01  3.642893e+01  0.000000e+00
    endloop
  endfacet
  facet normal  0.000000e+00  0.000000e+00 -1.000000e+00
    outer loop
      vertex  5.150000e+01  4.942893e+01  0.000000e+00
      vertex  4.850000e+01  3.642893e+01  0.000000e+00
      vertex  4.795503e+01  3.869888e+01  0.000000e+00
    endloop
  endfacet
  facet normal  0.000000e+00  0.000000e+00 -1.000000e+00
    outer loop
      vertex  5.150000e+01  4.942893e+01  0.000000e+00
      vertex  4.795503e+01  3.869888e+01  0.000000e+00
      vertex  4.643893e+01  4.047402e+01  0.000000e+00
    endloop
  endfacet
  facet normal  0.000000e+00  0.000000e+00 -1.000000e+00
    outer loop
      vertex  5.150000e+01  4.942893e+01  0.000000e+00
      vertex  4.643893e+01  4.047402e+01  0.000000e+00
      vertex  4.428217e+01  4.136737e+01  0.000000e+00
    endloop
  endfacet
  facet normal  -0.000000e+00  0.000000e+00 -1.000000e+00
    outer loop
      vertex  5.150000e+01  4.942893e+01  0.000000e+00
      vertex  4.428217e+01  4.136737e+01  0.000000e+00
      vertex  4.195491e+01  4.118422e+01  0.000000e+00
    endloop
  endfacet
  facet normal  -0.000000e+00  0.000000e+00 -9.999999e-01
    outer loop
      vertex  5.150000e+01  4.942893e+01  0.000000e+00
      vertex  4.195491e+01  4.118422e+01  0.000000e+00
      vertex  3.996447e+01  3.996447e+01  0.000000e+00
    endloop
  endfacet
  facet normal  0.000000e+00  0.000000e+00 -9.999999e-01
    outer loop
      vertex  9.150000e+01  8.942893e+01  0.000000e+00
      vertex  9.150000e+01  5.000000e+00  0.000000e+00
      vertex  8.850000e+01  5.000000e+00  0.000000e+00
    endloop
  endfacet
  facet normal  0.000000e+00  0.000000e+00 -9.999999e-01
    outer loop
      vertex  9.150000e+01  8.942893e+01  0.000000e+00
      vertex  8.850000e+01  5.000000e+00  0.000000e+00
      vertex  8.850000e+01  7.642893e+01  0.000000e+00
    endloop
  endfacet
  facet normal  0.000000e+00  0.000000e+00 -1.000000e+00
    outer loop
      vertex  9.150000e+01  8.942893e+01  0.000000e+00
      vertex  8.850000e+01  7.642893e+01  0.000000e+00
      vertex  8.795503e+01  7.869888e+01  0.000000e+00
    endloop
  endfacet
  facet normal  0.000000e+00  0.000000e+00 -1.000000e+00
    outer loop
      vertex  9.150000e+01  8.942893e+01  0.000000e+00
      vertex  8.795503e+01  7.869888e+01  0.000000e+00
      vertex  8.643893e+01  8.047401e+01  0.000000e+00
    endloop
  endfacet
  facet normal  0.000000e+00  0.000000e+00 -9.999999e-01
    outer loop
      vertex  9.150000e+01  8.942893e+01  0.000000e+00
      vertex  8.643893e+01  8.047401e+01  0.000000e+00
      vertex  8.428217e+01  8.136737e+01  0.000000e+00
    endloop
  endfacet
  facet normal  -0.000000e+00  0.000000e+00 -1.000000e+00
    outer loop
      vertex  9.150000e+01  8.942893e+01  0.000000e+00
      vertex  8.428217e+01  8.136737e+01  0.000000e+00
      vertex  8.195492e+01  8.118421e+01  0.000000e+00
    endloop
  endfacet
  facet normal  0.000000e+00 -2.990652e-17 -1.000000e+00
    outer loop
      vertex -7.242640e+00 -3.000000e+00  4.440892e-16
      vertex -2.209188e+01  1.184924e+01  0.000000e+00
      vertex -1.784924e+01  1.184924e+01  0.000000e+00
    endloop
  endfacet
  facet normal -1.046728e-16 -1.046728e-16 -1.000000e+00
    outer loop
      vertex -7.242640e+00 -3.000000e+00  4.440892e-16
      vertex -1.784924e+01  1.184924e+01  0.000000e+00
      vertex -1.219239e+01  6.192388e+00  0.000000e+00
    endloop
  endfacet
  facet normal -5.042093e-17 -7.546027e-17 -1.000000e+00
    outer loop
      vertex -7.242640e+00 -3.000000e+00  4.440892e-16
      vertex -1.219239e+01  6.192388e+00  0.000000e+00
      vertex -8.948154e+00  4.024661e+00  0.000000e+00
    endloop
  endfacet
  facet normal -1.321307e-17 -6.642659e-17 -1.000000e+00
    outer loop
      vertex -7.242640e+00 -3.000000e+00  4.440892e-16
      vertex -8.948154e+00  4.024661e+00  0.000000e+00
      vertex -5.121320e+00  3.263456e+00  0.000000e+00
    endloop
  endfacet
  facet normal  0.000000e+00  0.000000e+00 -1.000000e+00
    outer loop
      vertex  1.949747e+00  6.192388e+00  0.000000e+00
      vertex  1.507638e+01  1.931902e+01  0.000000e+00
      vertex  8.535534e+00  8.535534e+00  0.000000e+00
    endloop
  endfacet
  facet normal  0.000000e+00  0.000000e+00 -1.000000e+00
    outer loop
      vertex  1.949747e+00  6.192388e+00  0.000000e+00
      vertex  8.535534e+00  8.535534e+00  0.000000e+00
      vertex  7.315785e+00  6.545085e+00  0.000000e+00
    endloop
  endfacet
  facet normal  0.000000e+00  0.000000e+00 -1.000000e+00
    outer loop
      vertex  1.949747e+00  6.192388e+00  0.000000e+00
      vertex  7.315785e+00  6.545085e+00  0.000000e+00
      vertex  7.132626e+00  4.217828e+00  0.000000e+00
    endloop
  endfacet
  facet normal  -0.000000e+00  0.000000e+00 -1.000000e+00
    outer loop
      vertex  1.949747e+00  6.192388e+00  0.000000e+00
      vertex  7.132626e+00  4.217828e+00  0.000000e+00
      vertex -1.294486e+00  4.024661e+00  0.000000e+00
    endloop
  endfacet
  facet normal  0.000000e+00  0.000000e+00 -1.000000e+00
    outer loop
      vertex  1.684188e+01  2.033452e+01  0.000000e+00
      vertex  1.683014e+01  2.046669e+01  0.000000e+00
      vertex  1.686038e+01  2.094238e+01  0.000000e+00
    endloop
  endfacet
  facet normal  0.000000e+00  -0.000000e+00 -1.000000e+00
    outer loop
      vertex  1.684188e+01  2.033452e+01  0.000000e+00
      vertex  1.686038e+01  2.094238e+01  0.000000e+00
      vertex  1.710739e+01  2.135003e+01  0.000000e+00
    endloop
  endfacet
  facet normal  0.000000e+00  -0.000000e+00 -1.000000e+00
    outer loop
      vertex  1.684188e+01  2.033452e+01  0.000000e+00
      vertex  1.710739e+01  2.135003e+01  0.000000e+00
      vertex  3.996447e+01  3.996447e+01  0.000000e+00
    endloop
  endfacet
  facet normal  0.000000e+00  0.000000e+00 -1.000000e+00
    outer loop
      vertex  1.684188e+01  2.033452e+01  0.000000e+00
      vertex  3.996447e+01  3.996447e+01  0.000000e+00
      vertex  1.671814e+01  1.992184e+01  0.000000e+00
    endloop
  endfacet
  facet normal -1.480297e-16  8.049714e-16 -1.000000e+00
    outer loop
      vertex -4.242640e+00 -3.000000e+00  0.000000e+00
      vertex -7.242640e+00 -3.000000e+00  4.440892e-16
      vertex  1.207107e+01  0.000000e+00  0.000000e+00
    endloop
  endfacet
  facet normal  0.000000e+00  -0.000000e+00 -1.000000e+00
    outer loop
      vertex -4.242640e+00 -3.000000e+00  0.000000e+00
      vertex  1.207107e+01  0.000000e+00  0.000000e+00
      vertex  4.350000e+01  0.000000e+00  0.000000e+00
    endloop
  endfacet
  facet normal  0.000000e+00  -0.000000e+00 -1.000000e+00
    outer loop
      vertex -4.242640e+00 -3.000000e+00  0.000000e+00
      vertex  4.350000e+01  0.000000e+00  0.000000e+00
      vertex  5.650000e+01  0.000000e+00  0.000000e+00
    endloop
  endfacet
  facet normal  0.000000e+00  -0.000000e+00 -1.000000e+00
    outer loop
      vertex -4.242640e+00 -3.000000e+00  0.000000e+00
      vertex  5.650000e+01  0.000000e+00  0.000000e+00
      vertex  8.350000e+01  0.000000e+00  0.000000e+00
    endloop
  endfacet
  facet normal  0.000000e+00  -0.000000e+00 -1.000000e+00
    outer loop
      vertex -4.242640e+00 -3.000000e+00  0.000000e+00
      vertex  8.350000e+01  0.000000e+00  0.000000e+00
      vertex  9.650000e+01  0.000000e+00  0.000000e+00
    endloop
  endfacet
  facet normal  0.000000e+00  -0.000000e+00 -1.000000e+00
    outer loop
      vertex -4.242640e+00 -3.000000e+00  0.000000e+00
      vertex  9.650000e+01  0.000000e+00  0.000000e+00
      vertex  1.150000e+02  0.000000e+00  0.000000e+00
    endloop
  endfacet
  facet normal  0.000000e+00  -0.000000e+00 -1.000000e+00
    outer loop
      vertex -4.242640e+00 -3.000000e+00  0.000000e+00
      vertex  1.150000e+02  0.000000e+00  0.000000e+00
      vertex  1.150000e+02 -3.000000e+00  0.000000e+00
    endloop
  endfacet
  facet normal  0.000000e+00  0.000000e+00 -1.000000e+00
    outer loop
      vertex  1.710739e+01  2.135003e+01  0.000000e+00
      vertex  7.996446e+01  7.996446e+01  0.000000e+00
      vertex  5.296447e+01  5.296447e+01  0.000000e+00
    endloop
  endfacet
  facet normal  0.000000e+00  0.000000e+00 -1.000000e+00
    outer loop
      vertex  1.710739e+01  2.135003e+01  0.000000e+00
      vertex  5.296447e+01  5.296447e+01  0.000000e+00
      vertex  5.188060e+01  5.134235e+01  0.000000e+00
    endloop
  endfacet
  facet normal  0.000000e+00  0.000000e+00 -1.000000e+00
    outer loop
      vertex  1.710739e+01  2.135003e+01  0.000000e+00
      vertex  5.188060e+01  5.134235e+01  0.000000e+00
      vertex  5.150000e+01  4.942893e+01  0.000000e+00
    endloop
  endfacet
  facet normal  0.000000e+00  0.000000e+00 -1.000000e+00
    outer loop
      vertex  1.710739e+01  2.135003e+01  0.000000e+00
      vertex  5.150000e+01  4.942893e+01  0.000000e+00
      vertex  3.996447e+01  3.996447e+01  0.000000e+00
    endloop
  endfacet
  facet normal  0.000000e+00  -0.000000e+00 -1.000000e+00
    outer loop
      vertex  8.535534e+00  8.535534e+00  0.000000e+00
      vertex  1.507638e+01  1.931902e+01  0.000000e+00
      vertex  1.548403e+01  1.956602e+01  0.000000e+00
    endloop
  endfacet
  facet normal  0.000000e+00  -0.000000e+00 -1.000000e+00
    outer loop
      vertex  8.535534e+00  8.535534e+00  0.000000e+00
      vertex  1.548403e+01  1.956602e+01  0.000000e+00
      vertex  1.595971e+01  1.959626e+01  0.000000e+00
    endloop
  endfacet
  facet normal  0.000000e+00  -0.000000e+00 -1.000000e+00
    outer loop
      vertex  8.535534e+00  8.535534e+00  0.000000e+00
      vertex  1.595971e+01  1.959626e+01  0.000000e+00
      vertex  1.638774e+01  1.964534e+01  0.000000e+00
    endloop
  endfacet
  facet normal  0.000000e+00  -0.000000e+00 -1.000000e+00
    outer loop
      vertex  8.535534e+00  8.535534e+00  0.000000e+00
      vertex  1.638774e+01  1.964534e+01  0.000000e+00
      vertex  1.671814e+01  1.992184e+01  0.000000e+00
    endloop
  endfacet
  facet normal  0.000000e+00  -0.000000e+00 -1.000000e+00
    outer loop
      vertex  8.535534e+00  8.535534e+00  0.000000e+00
      vertex  1.671814e+01  1.992184e+01  0.000000e+00
      vertex  3.996447e+01  3.996447e+01  0.000000e+00
    endloop
  endfacet
  facet normal  0.000000e+00  -0.000000e+00 -9.999999e-01
    outer loop
      vertex  9.296446e+01  9.296446e+01  0.000000e+00
      vertex  1.143431e+02  1.185858e+02  0.000000e+00
      vertex  1.164645e+02  1.164645e+02  0.000000e+00
    endloop
  endfacet
  facet normal  -0.000000e+00  0.000000e+00 -1.000000e+00
    outer loop
      vertex  1.143431e+02  1.185858e+02  0.000000e+00
      vertex  9.296446e+01  9.296446e+01  0.000000e+00
      vertex  1.710739e+01  2.135003e+01  0.000000e+00
    endloop
  endfacet
  facet normal  0.000000e+00  0.000000e+00 -1.000000e+00
    outer loop
      vertex  1.710739e+01  2.135003e+01  0.000000e+00
      vertex  9.296446e+01  9.296446e+01  0.000000e+00
      vertex  9.188060e+01  9.134235e+01  0.000000e+00
    endloop
  endfacet
  facet normal  0.000000e+00  0.000000e+00 -1.000000e+00
    outer loop
      vertex  1.710739e+01  2.135003e+01  0.000000e+00
      vertex  9.188060e+01  9.134235e+01  0.000000e+00
      vertex  7.996446e+01  7.996446e+01  0.000000e+00
    endloop
  endfacet
  facet normal  0.000000e+00  0.000000e+00 -1.000000e+00
    outer loop
      vertex  7.996446e+01  7.996446e+01  0.000000e+00
      vertex  9.188060e+01  9.134235e+01  0.000000e+00
      vertex  9.150000e+01  8.942893e+01  0.000000e+00
    endloop
  endfacet
  facet normal  0.000000e+00  0.000000e+00 -1.000000e+00
    outer loop
      vertex  7.996446e+01  7.996446e+01  0.000000e+00
      vertex  9.150000e+01  8.942893e+01  0.000000e+00
      vertex  8.195492e+01  8.118421e+01  0.000000e+00
    endloop
  endfacet
  facet normal -1.396085e-17 -5.815117e-17 -1.000000e+00
    outer loop
      vertex  1.207107e+01  0.000000e+00  0.000000e+00
      vertex -7.242640e+00 -3.000000e+00  4.440892e-16
      vertex  9.801115e+00  5.449674e-01  0.000000e+00
    endloop
  endfacet
  facet normal -1.216585e-17 -6.678127e-17 -1.000000e+00
    outer loop
      vertex  9.801115e+00  5.449674e-01  0.000000e+00
      vertex -7.242640e+00 -3.000000e+00  4.440892e-16
      vertex -5.121320e+00  3.263456e+00  0.000000e+00
    endloop
  endfacet
  facet normal  0.000000e+00  0.000000e+00 -1.000000e+00
    outer loop
      vertex  9.801115e+00  5.449674e-01  0.000000e+00
      vertex -5.121320e+00  3.263456e+00  0.000000e+00
      vertex  8.025983e+00  2.061074e+00  0.000000e+00
    endloop
  endfacet
  facet normal  0.000000e+00  0.000000e+00 -1.000000e+00
    outer loop
      vertex  8.025983e+00  2.061074e+00  0.000000e+00
      vertex -5.121320e+00  3.263456e+00  0.000000e+00
      vertex -1.294486e+00  4.024661e+00  0.000000e+00
    endloop
  endfacet
  facet normal  0.000000e+00  0.000000e+00 -1.000000e+00
    outer loop
      vertex  8.025983e+00  2.061074e+00  0.000000e+00
      vertex -1.294486e+00  4.024661e+00  0.000000e+00
      vertex  7.132626e+00  4.217828e+00  0.000000e+00
    endloop
  endfacet
  facet normal -1.046728e-16  1.046728e-16 -1.000000e+00
    outer loop
      vertex -1.784924e+01  1.467767e+01  0.000000e+00
      vertex -1.077817e+01  2.599138e+01  4.440892e-16
      vertex -8.656855e+00  2.387006e+01  0.000000e+00
    endloop
  endfacet
  facet normal -1.046729e-16  1.046729e-16 -9.999999e-01
    outer loop
      vertex -1.077817e+01  2.599138e+01  4.440892e-16
      vertex -1.784924e+01  1.467767e+01  0.000000e+00
      vertex -2.209188e+01  1.467767e+01  4.440892e-16
    endloop
  endfacet
  facet normal -1.046729e-16  4.335682e-17 -1.000000e+00
    outer loop
      vertex -2.209188e+01  1.467767e+01  4.440892e-16
      vertex -1.784924e+01  1.467767e+01  0.000000e+00
      vertex -1.843503e+01  1.326346e+01  0.000000e+00
    endloop
  endfacet
  facet normal  0.000000e+00  3.140186e-16 -1.000000e+00
    outer loop
      vertex -2.209188e+01  1.467767e+01  4.440892e-16
      vertex -1.843503e+01  1.326346e+01  0.000000e+00
      vertex -2.267767e+01  1.326346e+01  0.000000e+00
    endloop
  endfacet
  facet normal  0.000000e+00  0.000000e+00 -9.999999e-01
    outer loop
      vertex -2.267767e+01  1.326346e+01  0.000000e+00
      vertex -1.843503e+01  1.326346e+01  0.000000e+00
      vertex -1.784924e+01  1.184924e+01  0.000000e+00
    endloop
  endfacet
  facet normal  0.000000e+00  0.000000e+00 -1.000000e+00
    outer loop
      vertex -2.267767e+01  1.326346e+01  0.000000e+00
      vertex -1.784924e+01  1.184924e+01  0.000000e+00
      vertex -2.209188e+01  1.184924e+01  0.000000e+00
    endloop
  endfacet
  facet normal  0.000000e+00  0.000000e+00 -1.000000e+00
    outer loop
      vertex  5.216987e+01  2.500000e+00  0.000000e+00
      vertex  4.850000e+01  5.000000e+00  0.000000e+00
      vertex  5.150000e+01  5.000000e+00  0.000000e+00
    endloop
  endfacet
  facet normal  0.000000e+00  0.000000e+00 -1.000000e+00
    outer loop
      vertex  4.850000e+01  5.000000e+00  0.000000e+00
      vertex  5.216987e+01  2.500000e+00  0.000000e+00
      vertex  4.783013e+01  2.500000e+00  0.000000e+00
    endloop
  endfacet
  facet normal  0.000000e+00  0.000000e+00 -1.000000e+00
    outer loop
      vertex  4.783013e+01  2.500000e+00  0.000000e+00
      vertex  5.216987e+01  2.500000e+00  0.000000e+00
      vertex  5.400000e+01  6.698730e-01  0.000000e+00
    endloop
  endfacet
  facet normal  0.000000e+00  0.000000e+00 -9.999999e-01
    outer loop
      vertex  4.783013e+01  2.500000e+00  0.000000e+00
      vertex  5.400000e+01  6.698730e-01  0.000000e+00
      vertex  4.600000e+01  6.698730e-01  0.000000e+00
    endloop
  endfacet
  facet normal  0.000000e+00  0.000000e+00 -1.000000e+00
    outer loop
      vertex  4.600000e+01  6.698730e-01  0.000000e+00
      vertex  5.400000e+01  6.698730e-01  0.000000e+00
      vertex  5.650000e+01  0.000000e+00  0.000000e+00
    endloop
  endfacet
  facet normal  0.000000e+00  0.000000e+00 -1.000000e+00
    outer loop
      vertex  4.600000e+01  6.698730e-01  0.000000e+00
      vertex  5.650000e+01  0.000000e+00  0.000000e+00
      vertex  4.350000e+01  0.000000e+00  0.000000e+00
    endloop
  endfacet
  facet normal  0.000000e+00  0.000000e+00 -1.000000e+00
    outer loop
      vertex  9.216988e+01  2.500000e+00  0.000000e+00
      vertex  8.850000e+01  5.000000e+00  0.000000e+00
      vertex  9.150000e+01  5.000000e+00  0.000000e+00
    endloop
  endfacet
  facet normal  0.000000e+00  0.000000e+00 -1.000000e+00
    outer loop
      vertex  8.850000e+01  5.000000e+00  0.000000e+00
      vertex  9.216988e+01  2.500000e+00  0.000000e+00
      vertex  8.783012e+01  2.500000e+00  0.000000e+00
    endloop
  endfacet
  facet normal  0.000000e+00  0.000000e+00 -1.000000e+00
    outer loop
      vertex  8.783012e+01  2.500000e+00  0.000000e+00
      vertex  9.216988e+01  2.500000e+00  0.000000e+00
      vertex  9.400000e+01  6.698730e-01  0.000000e+00
    endloop
  endfacet
  facet normal  0.000000e+00  0.000000e+00 -9.999999e-01
    outer loop
      vertex  8.783012e+01  2.500000e+00  0.000000e+00
      vertex  9.400000e+01  6.698730e-01  0.000000e+00
      vertex  8.600000e+01  6.698730e-01  0.000000e+00
    endloop
  endfacet
  facet normal  0.000000e+00  0.000000e+00 -1.000000e+00
    outer loop
      vertex  8.600000e+01  6.698730e-01  0.000000e+00
      vertex  9.400000e+01  6.698730e-01  0.000000e+00
      vertex  9.650000e+01  0.000000e+00  0.000000e+00
    endloop
  endfacet
  facet normal  0.000000e+00  0.000000e+00 -1.000000e+00
    outer loop
      vertex  8.600000e+01  6.698730e-01  0.000000e+00
      vertex  9.650000e+01  0.000000e+00  0.000000e+00
      vertex  8.350000e+01  0.000000e+00  0.000000e+00
    endloop
  endfacet
  facet normal  0.000000e+00  0.000000e+00  1.000000e+00
    outer loop
      vertex  5.150000e+01  4.942893e+01  3.500000e+01
      vertex  3.996447e+01  3.996447e+01  3.500000e+01
      vertex  4.195491e+01  4.118422e+01  3.500000e+01
    endloop
  endfacet
  facet normal  0.000000e+00  0.000000e+00  1.000000e+00
    outer loop
      vertex  5.150000e+01  4.942893e+01  3.500000e+01
      vertex  4.195491e+01  4.118422e+01  3.500000e+01
      vertex  4.428217e+01  4.136737e+01  3.500000e+01
    endloop
  endfacet
  facet normal  -0.000000e+00  0.000000e+00  1.000000e+00
    outer loop
      vertex  5.150000e+01  4.942893e+01  3.500000e+01
      vertex  4.428217e+01  4.136737e+01  3.500000e+01
      vertex  4.643893e+01  4.047402e+01  3.500000e+01
    endloop
  endfacet
  facet normal  -0.000000e+00  0.000000e+00  1.000000e+00
    outer loop
      vertex  5.150000e+01  4.942893e+01  3.500000e+01
      vertex  4.643893e+01  4.047402e+01  3.500000e+01
      vertex  4.795503e+01  3.869888e+01  3.500000e+01
    endloop
  endfacet
  facet normal  -0.000000e+00  0.000000e+00  1.000000e+00
    outer loop
      vertex  5.150000e+01  4.942893e+01  3.500000e+01
      vertex  4.795503e+01  3.869888e+01  3.500000e+01
      vertex  4.850000e+01  3.642893e+01  3.500000e+01
    endloop
  endfacet
  facet normal  -0.000000e+00  0.000000e+00  1.000000e+00
    outer loop
      vertex  5.150000e+01  4.942893e+01  3.500000e+01
      vertex  4.850000e+01  3.642893e+01  3.500000e+01
      vertex  4.850000e+01  5.000000e+00  3.500000e+01
    endloop
  endfacet
  facet normal  0.000000e+00  0.000000e+00  1.000000e+00
    outer loop
      vertex  5.150000e+01  4.942893e+01  3.500000e+01
      vertex  4.850000e+01  5.000000e+00  3.500000e+01
      vertex  5.150000e+01  5.000000e+00  3.500000e+01
    endloop
  endfacet
  facet normal  0.000000e+00  0.000000e+00  1.000000e+00
    outer loop
      vertex  9.150000e+01  8.942893e+01  3.500000e+01
      vertex  8.195492e+01  8.118421e+01  3.500000e+01
      vertex  8.428217e+01  8.136737e+01  3.500000e+01
    endloop
  endfacet
  facet normal  -0.000000e+00  0.000000e+00  9.999999e-01
    outer loop
      vertex  9.150000e+01  8.942893e+01  3.500000e+01
      vertex  8.428217e+01  8.136737e+01  3.500000e+01
      vertex  8.643893e+01  8.047401e+01  3.500000e+01
    endloop
  endfacet
  facet normal  -0.000000e+00  0.000000e+00  1.000000e+00
    outer loop
      vertex  9.150000e+01  8.942893e+01  3.500000e+01
      vertex  8.643893e+01  8.047401e+01  3.500000e+01
      vertex  8.795503e+01  7.869888e+01  3.500000e+01
    endloop
  endfacet
  facet normal  -0.000000e+00  0.000000e+00  1.000000e+00
    outer loop
      vertex  9.150000e+01  8.942893e+01  3.500000e+01
      vertex  8.795503e+01  7.869888e+01  3.500000e+01
      vertex  8.850000e+01  7.642893e+01  3.500000e+01
    endloop
  endfacet
  facet normal  -0.000000e+00  0.000000e+00  9.999999e-01
    outer loop
      vertex  9.150000e+01  8.942893e+01  3.500000e+01
      vertex  8.850000e+01  7.642893e+01  3.500000e+01
      vertex  8.850000e+01  5.000000e+00  3.500000e+01
    endloop
  endfacet
  facet normal  0.000000e+00  0.000000e+00  9.999999e-01
    outer loop
      vertex  9.150000e+01  8.942893e+01  3.500000e+01
      vertex  8.850000e+01  5.000000e+00  3.500000e+01
      vertex  9.150000e+01  5.000000e+00  3.500000e+01
    endloop
  endfacet
  facet normal  0.000000e+00  0.000000e+00  1.000000e+00
    outer loop
      vertex -7.242640e+00 -3.000000e+00  3.500000e+01
      vertex -5.121320e+00  3.263456e+00  3.500000e+01
      vertex -8.948154e+00  4.024661e+00  3.500000e+01
    endloop
  endfacet
  facet normal  0.000000e+00  0.000000e+00  1.000000e+00
    outer loop
      vertex -7.242640e+00 -3.000000e+00  3.500000e+01
      vertex -8.948154e+00  4.024661e+00  3.500000e+01
      vertex -1.219239e+01  6.192388e+00  3.500000e+01
    endloop
  endfacet
  facet normal  0.000000e+00  0.000000e+00  1.000000e+00
    outer loop
      vertex -7.242640e+00 -3.000000e+00  3.500000e+01
      vertex -1.219239e+01  6.192388e+00  3.500000e+01
      vertex -1.784924e+01  1.184924e+01  3.500000e+01
    endloop
  endfacet
  facet normal  0.000000e+00  0.000000e+00  1.000000e+00
    outer loop
      vertex -7.242640e+00 -3.000000e+00  3.500000e+01
      vertex -1.784924e+01  1.184924e+01  3.500000e+01
      vertex -2.209188e+01  1.184924e+01  3.500000e+01
    endloop
  endfacet
  facet normal  0.000000e+00  0.000000e+00  1.000000e+00
    outer loop
      vertex  1.949747e+00  6.192388e+00  3.500000e+01
      vertex -1.294486e+00  4.024661e+00  3.500000e+01
      vertex  7.132626e+00  4.217828e+00  3.500000e+01
    endloop
  endfacet
  facet normal  0.000000e+00  -0.000000e+00  1.000000e+00
    outer loop
      vertex  1.949747e+00  6.192388e+00  3.500000e+01
      vertex  7.132626e+00  4.217828e+00  3.500000e+01
      vertex  7.315785e+00  6.545085e+00  3.500000e+01
    endloop
  endfacet
  facet normal  0.000000e+00  -0.000000e+00  1.000000e+00
    outer loop
      vertex  1.949747e+00  6.192388e+00  3.500000e+01
      vertex  7.315785e+00  6.545085e+00  3.500000e+01
      vertex  8.535534e+00  8.535534e+00  3.500000e+01
    endloop
  endfacet
  facet normal  0.000000e+00  -0.000000e+00  1.000000e+00
    outer loop
      vertex  1.949747e+00  6.192388e+00  3.500000e+01
      vertex  8.535534e+00  8.535534e+00  3.500000e+01
      vertex  1.507638e+01  1.931902e+01  3.500000e+01
    endloop
  endfacet
  facet normal  0.000000e+00  0.000000e+00  1.000000e+00
    outer loop
      vertex  1.684188e+01  2.033452e+01  3.500000e+01
      vertex  1.671814e+01  1.992184e+01  3.500000e+01
      vertex  3.996447e+01  3.996447e+01  3.500000e+01
    endloop
  endfacet
  facet normal  0.000000e+00  0.000000e+00  1.000000e+00
    outer loop
      vertex  1.684188e+01  2.033452e+01  3.500000e+01
      vertex  3.996447e+01  3.996447e+01  3.500000e+01
      vertex  1.710739e+01  2.135003e+01  3.500000e+01
    endloop
  endfacet
  facet normal  0.000000e+00  0.000000e+00  1.000000e+00
    outer loop
      vertex  1.684188e+01  2.033452e+01  3.500000e+01
      vertex  1.710739e+01  2.135003e+01  3.500000e+01
      vertex  1.686038e+01  2.094238e+01  3.500000e+01
    endloop
  endfacet
  facet normal  0.000000e+00  0.000000e+00  1.000000e+00
    outer loop
      vertex  1.684188e+01  2.033452e+01  3.500000e+01
      vertex  1.686038e+01  2.094238e+01  3.500000e+01
      vertex  1.683014e+01  2.046669e+01  3.500000e+01
    endloop
  endfacet
  facet normal  0.000000e+00  -0.000000e+00  1.000000e+00
    outer loop
      vertex -4.242640e+00 -3.000000e+00  3.500000e+01
      vertex  1.150000e+02 -3.000000e+00  3.500000e+01
      vertex  1.150000e+02  0.000000e+00  3.500000e+01
    endloop
  endfacet
  facet normal  0.000000e+00  0.000000e+00  1.000000e+00
    outer loop
      vertex -4.242640e+00 -3.000000e+00  3.500000e+01
      vertex  1.150000e+02  0.000000e+00  3.500000e+01
      vertex  9.650000e+01  0.000000e+00  3.500000e+01
    endloop
  endfacet
  facet normal  0.000000e+00  0.000000e+00  1.000000e+00
    outer loop
      vertex -4.242640e+00 -3.000000e+00  3.500000e+01
      vertex  9.650000e+01  0.000000e+00  3.500000e+01
      vertex  8.350000e+01  0.000000e+00  3.500000e+01
    endloop
  endfacet
  facet normal  0.000000e+00  0.000000e+00  1.000000e+00
    outer loop
      vertex -4.242640e+00 -3.000000e+00  3.500000e+01
      vertex  8.350000e+01  0.000000e+00  3.500000e+01
      vertex  5.650000e+01  0.000000e+00  3.500000e+01
    endloop
  endfacet
  facet normal  0.000000e+00  0.000000e+00  1.000000e+00
    outer loop
      vertex -4.242640e+00 -3.000000e+00  3.500000e+01
      vertex  5.650000e+01  0.000000e+00  3.500000e+01
      vertex  4.350000e+01  0.000000e+00  3.500000e+01
    endloop
  endfacet
  facet normal  0.000000e+00  0.000000e+00  1.000000e+00
    outer loop
      vertex -4.242640e+00 -3.000000e+00  3.500000e+01
      vertex  4.350000e+01  0.000000e+00  3.500000e+01
      vertex  1.207107e+01  0.000000e+00  3.500000e+01
    endloop
  endfacet
  facet normal  0.000000e+00  0.000000e+00  1.000000e+00
    outer loop
      vertex -4.242640e+00 -3.000000e+00  3.500000e+01
      vertex  1.207107e+01  0.000000e+00  3.500000e+01
      vertex -7.242640e+00 -3.000000e+00  3.500000e+01
    endloop
  endfacet
  facet normal  0.000000e+00  -0.000000e+00  9.999999e-01
    outer loop
      vertex  1.710739e+01  2.135003e+01  3.500000e+01
      vertex  3.996447e+01  3.996447e+01  3.500000e+01
      vertex  5.150000e+01  4.942893e+01  3.500000e+01
    endloop
  endfacet
  facet normal  0.000000e+00  -0.000000e+00  1.000000e+00
    outer loop
      vertex  1.710739e+01  2.135003e+01  3.500000e+01
      vertex  5.150000e+01  4.942893e+01  3.500000e+01
      vertex  5.188060e+01  5.134235e+01  3.500000e+01
    endloop
  endfacet
  facet normal  0.000000e+00  -0.000000e+00  1.000000e+00
    outer loop
      vertex  1.710739e+01  2.135003e+01  3.500000e+01
      vertex  5.188060e+01  5.134235e+01  3.500000e+01
      vertex  5.296447e+01  5.296447e+01  3.500000e+01
    endloop
  endfacet
  facet normal  0.000000e+00  -0.000000e+00  1.000000e+00
    outer loop
      vertex  1.710739e+01  2.135003e+01  3.500000e+01
      vertex  5.296447e+01  5.296447e+01  3.500000e+01
      vertex  7.996446e+01  7.996446e+01  3.500000e+01
    endloop
  endfacet
  facet normal  0.000000e+00  0.000000e+00  1.000000e+00
    outer loop
      vertex  8.535534e+00  8.535534e+00  3.500000e+01
      vertex  3.996447e+01  3.996447e+01  3.500000e+01
      vertex  1.671814e+01  1.992184e+01  3.500000e+01
    endloop
  endfacet
  facet normal  0.000000e+00  0.000000e+00  1.000000e+00
    outer loop
      vertex  8.535534e+00  8.535534e+00  3.500000e+01
      vertex  1.671814e+01  1.992184e+01  3.500000e+01
      vertex  1.638774e+01  1.964534e+01  3.500000e+01
    endloop
  endfacet
  facet normal  0.000000e+00  0.000000e+00  1.000000e+00
    outer loop
      vertex  8.535534e+00  8.535534e+00  3.500000e+01
      vertex  1.638774e+01  1.964534e+01  3.500000e+01
      vertex  1.595971e+01  1.959626e+01  3.500000e+01
    endloop
  endfacet
  facet normal  0.000000e+00  0.000000e+00  1.000000e+00
    outer loop
      vertex  8.535534e+00  8.535534e+00  3.500000e+01
      vertex  1.595971e+01  1.959626e+01  3.500000e+01
      vertex  1.548403e+01  1.956602e+01  3.500000e+01
    endloop
  endfacet
  facet normal  0.000000e+00  0.000000e+00  1.000000e+00
    outer loop
      vertex  8.535534e+00  8.535534e+00  3.500000e+01
      vertex  1.548403e+01  1.956602e+01  3.500000e+01
      vertex  1.507638e+01  1.931902e+01  3.500000e+01
    endloop
  endfacet
  facet normal  0.000000e+00  0.000000e+00  9.999999e-01
    outer loop
      vertex  1.164645e+02  1.164645e+02  3.500000e+01
      vertex  1.143431e+02  1.185858e+02  3.500000e+01
      vertex  9.296446e+01  9.296446e+01  3.500000e+01
    endloop
  endfacet
  facet normal  0.000000e+00  -0.000000e+00  1.000000e+00
    outer loop
      vertex  9.296446e+01  9.296446e+01  3.500000e+01
      vertex  1.143431e+02  1.185858e+02  3.500000e+01
      vertex  1.710739e+01  2.135003e+01  3.500000e+01
    endloop
  endfacet
  facet normal  0.000000e+00  0.000000e+00  1.000000e+00
    outer loop
      vertex  9.296446e+01  9.296446e+01  3.500000e+01
      vertex  1.710739e+01  2.135003e+01  3.500000e+01
      vertex  9.188060e+01  9.134235e+01  3.500000e+01
    endloop
  endfacet
  facet normal  0.000000e+00  0.000000e+00  1.000000e+00
    outer loop
      vertex  9.188060e+01  9.134235e+01  3.500000e+01
      vertex  1.710739e+01  2.135003e+01  3.500000e+01
      vertex  7.996446e+01  7.996446e+01  3.500000e+01
    endloop
  endfacet
  facet normal  0.000000e+00  0.000000e+00  1.000000e+00
    outer loop
      vertex  9.188060e+01  9.134235e+01  3.500000e+01
      vertex  7.996446e+01  7.996446e+01  3.500000e+01
      vertex  9.150000e+01  8.942893e+01  3.500000e+01
    endloop
  endfacet
  facet normal  0.000000e+00  0.000000e+00  1.000000e+00
    outer loop
      vertex  9.150000e+01  8.942893e+01  3.500000e+01
      vertex  7.996446e+01  7.996446e+01  3.500000e+01
      vertex  8.195492e+01  8.118421e+01  3.500000e+01
    endloop
  endfacet
  facet normal  -0.000000e+00  0.000000e+00  1.000000e+00
    outer loop
      vertex  7.132626e+00  4.217828e+00  3.500000e+01
      vertex -1.294486e+00  4.024661e+00  3.500000e+01
      vertex  8.025983e+00  2.061074e+00  3.500000e+01
    endloop
  endfacet
  facet normal  0.000000e+00  0.000000e+00  1.000000e+00
    outer loop
      vertex  8.025983e+00  2.061074e+00  3.500000e+01
      vertex -1.294486e+00  4.024661e+00  3.500000e+01
      vertex -5.121320e+00  3.263456e+00  3.500000e+01
    endloop
  endfacet
  facet normal  0.000000e+00  0.000000e+00  1.000000e+00
    outer loop
      vertex  8.025983e+00  2.061074e+00  3.500000e+01
      vertex -5.121320e+00  3.263456e+00  3.500000e+01
      vertex  9.801115e+00  5.449674e-01  3.500000e+01
    endloop
  endfacet
  facet normal  0.000000e+00  0.000000e+00  1.000000e+00
    outer loop
      vertex  9.801115e+00  5.449674e-01  3.500000e+01
      vertex -5.121320e+00  3.263456e+00  3.500000e+01
      vertex -7.242640e+00 -3.000000e+00  3.500000e+01
    endloop
  endfacet
  facet normal  0.000000e+00  0.000000e+00  1.000000e+00
    outer loop
      vertex  9.801115e+00  5.449674e-01  3.500000e+01
      vertex -7.242640e+00 -3.000000e+00  3.500000e+01
      vertex  1.207107e+01  0.000000e+00  3.500000e+01
    endloop
  endfacet
  facet normal  0.000000e+00  0.000000e+00  1.000000e+00
    outer loop
      vertex -8.656855e+00  2.387006e+01  3.500000e+01
      vertex -1.077817e+01  2.599138e+01  3.500000e+01
      vertex -1.784924e+01  1.467767e+01  3.500000e+01
    endloop
  endfacet
  facet normal  0.000000e+00  -0.000000e+00  9.999999e-01
    outer loop
      vertex -1.784924e+01  1.467767e+01  3.500000e+01
      vertex -1.077817e+01  2.599138e+01  3.500000e+01
      vertex -2.209188e+01  1.467767e+01  3.500000e+01
    endloop
  endfacet
  facet normal  -0.000000e+00  0.000000e+00  1.000000e+00
    outer loop
      vertex -1.784924e+01  1.467767e+01  3.500000e+01
      vertex -2.209188e+01  1.467767e+01  3.500000e+01
      vertex -1.843503e+01  1.326346e+01  3.500000e+01
    endloop
  endfacet
  facet normal  0.000000e+00  0.000000e+00  1.000000e+00
    outer loop
      vertex -1.843503e+01  1.326346e+01  3.500000e+01
      vertex -2.209188e+01  1.467767e+01  3.500000e+01
      vertex -2.267767e+01  1.326346e+01  3.500000e+01
    endloop
  endfacet
  facet normal  -0.000000e+00  0.000000e+00  9.999999e-01
    outer loop
      vertex -1.843503e+01  1.326346e+01  3.500000e+01
      vertex -2.267767e+01  1.326346e+01  3.500000e+01
      vertex -1.784924e+01  1.184924e+01  3.500000e+01
    endloop
  endfacet
  facet normal  0.000000e+00  0.000000e+00  1.000000e+00
    outer loop
      vertex -1.784924e+01  1.184924e+01  3.500000e+01
      vertex -2.267767e+01  1.326346e+01  3.500000e+01
      vertex -2.209188e+01  1.184924e+01  3.500000e+01
    endloop
  endfacet
  facet normal  -0.000000e+00  0.000000e+00  1.000000e+00
    outer loop
      vertex  5.150000e+01  5.000000e+00  3.500000e+01
      vertex  4.850000e+01  5.000000e+00  3.500000e+01
      vertex  5.216987e+01  2.500000e+00  3.500000e+01
    endloop
  endfacet
  facet normal  0.000000e+00  0.000000e+00  1.000000e+00
    outer loop
      vertex  5.216987e+01  2.500000e+00  3.500000e+01
      vertex  4.850000e+01  5.000000e+00  3.500000e+01
      vertex  4.783013e+01  2.500000e+00  3.500000e+01
    endloop
  endfacet
  facet normal  -0.000000e+00  0.000000e+00  1.000000e+00
    outer loop
      vertex  5.216987e+01  2.500000e+00  3.500000e+01
      vertex  4.783013e+01  2.500000e+00  3.500000e+01
      vertex  5.400000e+01  6.698730e-01  3.500000e+01
    endloop
  endfacet
  facet normal  0.000000e+00  0.000000e+00  9.999999e-01
    outer loop
      vertex  5.400000e+01  6.698730e-01  3.500000e+01
      vertex  4.783013e+01  2.500000e+00  3.500000e+01
      vertex  4.600000e+01  6.698730e-01  3.500000e+01
    endloop
  endfacet
  facet normal  -0.000000e+00  0.000000e+00  1.000000e+00
    outer loop
      vertex  5.400000e+01  6.698730e-01  3.500000e+01
      vertex  4.600000e+01  6.698730e-01  3.500000e+01
      vertex  5.650000e+01  0.000000e+00  3.500000e+01
    endloop
  endfacet
  facet normal  0.000000e+00  0.000000e+00  1.000000e+00
    outer loop
      vertex  5.650000e+01  0.000000e+00  3.500000e+01
      vertex  4.600000e+01  6.698730e-01  3.500000e+01
      vertex  4.350000e+01  0.000000e+00  3.500000e+01
    endloop
  endfacet
  facet normal  -0.000000e+00  0.000000e+00  1.000000e+00
    outer loop
      vertex  9.150000e+01  5.000000e+00  3.500000e+01
      vertex  8.850000e+01  5.000000e+00  3.500000e+01
      vertex  9.216988e+01  2.500000e+00  3.500000e+01
    endloop
  endfacet
  facet normal  0.000000e+00  0.000000e+00  1.000000e+00
    outer loop
      vertex  9.216988e+01  2.500000e+00  3.500000e+01
      vertex  8.850000e+01  5.000000e+00  3.500000e+01
      vertex  8.783012e+01  2.500000e+00  3.500000e+01
    endloop
  endfacet
  facet normal  -0.000000e+00  0.000000e+00  1.000000e+00
    outer loop
      vertex  9.216988e+01  2.500000e+00  3.500000e+01
      vertex  8.783012e+01  2.500000e+00  3.500000e+01
      vertex  9.400000e+01  6.698730e-01  3.500000e+01
    endloop
  endfacet
  facet normal  0.000000e+00  0.000000e+00  9.999999e-01
    outer loop
      vertex  9.400000e+01  6.698730e-01  3.500000e+01
      vertex  8.783012e+01  2.500000e+00  3.500000e+01
      vertex  8.600000e+01  6.698730e-01  3.500000e+01
    endloop
  endfacet
  facet normal  -0.000000e+00  0.000000e+00  1.000000e+00
    outer loop
      vertex  9.400000e+01  6.698730e-01  3.500000e+01
      vertex  8.600000e+01  6.698730e-01  3.500000e+01
      vertex  9.650000e+01  0.000000e+00  3.500000e+01
    endloop
  endfacet
  facet normal  0.000000e+00  0.000000e+00  1.000000e+00
    outer loop
      vertex  9.650000e+01  0.000000e+00  3.500000e+01
      vertex  8.600000e+01  6.698730e-01  3.500000e+01
      vertex  8.350000e+01  0.000000e+00  3.500000e+01
    endloop
  endfacet
  facet normal  7.845906e-02 -9.969173e-01  0.000000e+00
    outer loop
      vertex  8.428217e+01  8.136737e+01  0.000000e+00
      vertex  8.195492e+01  8.118421e+01  3.500000e+01
      vertex  8.195492e+01  8.118421e+01  0.000000e+00
    endloop
  endfacet
  facet normal  5.224975e-01 -8.526408e-01  0.000000e+00
    outer loop
      vertex  8.195492e+01  8.118421e+01  0.000000e+00
      vertex  8.195492e+01  8.118421e+01  3.500000e+01
      vertex  7.996446e+01  7.996446e+01  3.500000e+01
    endloop
  endfacet
  facet normal  5.224975e-01 -8.526408e-01  0.000000e+00
    outer loop
      vertex  8.195492e+01  8.118421e+01  0.000000e+00
      vertex  7.996446e+01  7.996446e+01  3.500000e+01
      vertex  7.996446e+01  7.996446e+01  0.000000e+00
    endloop
  endfacet
  facet normal  7.845906e-02 -9.969173e-01  0.000000e+00
    outer loop
      vertex  8.195492e+01  8.118421e+01  3.500000e+01
      vertex  8.428217e+01  8.136737e+01  0.000000e+00
      vertex  8.428217e+01  8.136737e+01  3.500000e+01
    endloop
  endfacet
  facet normal -3.826833e-01 -9.238796e-01  -0.000000e+00
    outer loop
      vertex  8.428217e+01  8.136737e+01  3.500000e+01
      vertex  8.428217e+01  8.136737e+01  0.000000e+00
      vertex  8.643893e+01  8.047401e+01  0.000000e+00
    endloop
  endfacet
  facet normal -3.826833e-01 -9.238796e-01  0.000000e+00
    outer loop
      vertex  8.428217e+01  8.136737e+01  3.500000e+01
      vertex  8.643893e+01  8.047401e+01  0.000000e+00
      vertex  8.643893e+01  8.047401e+01  3.500000e+01
    endloop
  endfacet
  facet normal -7.604058e-01 -6.494481e-01  -0.000000e+00
    outer loop
      vertex  8.643893e+01  8.047401e+01  3.500000e+01
      vertex  8.643893e+01  8.047401e+01  0.000000e+00
      vertex  8.795503e+01  7.869888e+01  0.000000e+00
    endloop
  endfacet
  facet normal -7.604058e-01 -6.494481e-01  0.000000e+00
    outer loop
      vertex  8.643893e+01  8.047401e+01  3.500000e+01
      vertex  8.795503e+01  7.869888e+01  0.000000e+00
      vertex  8.795503e+01  7.869888e+01  3.500000e+01
    endloop
  endfacet
  facet normal -9.723698e-01 -2.334456e-01  -0.000000e+00
    outer loop
      vertex  8.795503e+01  7.869888e+01  3.500000e+01
      vertex  8.795503e+01  7.869888e+01  0.000000e+00
      vertex  8.850000e+01  7.642893e+01  0.000000e+00
    endloop
  endfacet
  facet normal -9.723698e-01 -2.334456e-01  0.000000e+00
    outer loop
      vertex  8.795503e+01  7.869888e+01  3.500000e+01
      vertex  8.850000e+01  7.642893e+01  0.000000e+00
      vertex  8.850000e+01  7.642893e+01  3.500000e+01
    endloop
  endfacet
  facet normal  1.000000e+00  0.000000e+00  0.000000e+00
    outer loop
      vertex  9.150000e+01  5.000000e+00  3.500000e+01
      vertex  9.150000e+01  5.000000e+00  0.000000e+00
      vertex  9.150000e+01  8.942893e+01  3.500000e+01
    endloop
  endfacet
  facet normal  1.000000e+00  0.000000e+00  0.000000e+00
    outer loop
      vertex  9.150000e+01  8.942893e+01  3.500000e+01
      vertex  9.150000e+01  5.000000e+00  0.000000e+00
      vertex  9.150000e+01  8.942893e+01  0.000000e+00
    endloop
  endfacet
  facet normal  7.071068e-01 -7.071068e-01  0.000000e+00
    outer loop
      vertex  1.200000e+02  1.200000e+02  5.000000e+00
      vertex  1.200000e+02  1.200000e+02  3.000000e+01
      vertex  1.195263e+02  1.195263e+02  2.500000e+00
    endloop
  endfacet
  facet normal  7.071068e-01 -7.071068e-01  0.000000e+00
    outer loop
      vertex  1.195263e+02  1.195263e+02  2.500000e+00
      vertex  1.200000e+02  1.200000e+02  3.000000e+01
      vertex  1.195263e+02  1.195263e+02  3.250000e+01
    endloop
  endfacet
  facet normal  7.071068e-01 -7.071068e-01  0.000000e+00
    outer loop
      vertex  1.195263e+02  1.195263e+02  2.500000e+00
      vertex  1.195263e+02  1.195263e+02  3.250000e+01
      vertex  1.182322e+02  1.182322e+02  6.698730e-01
    endloop
  endfacet
  facet normal  7.071068e-01 -7.071068e-01  0.000000e+00
    outer loop
      vertex  1.182322e+02  1.182322e+02  6.698730e-01
      vertex  1.195263e+02  1.195263e+02  3.250000e+01
      vertex  1.182322e+02  1.182322e+02  3.433013e+01
    endloop
  endfacet
  facet normal  7.071068e-01 -7.071068e-01  0.000000e+00
    outer loop
      vertex  1.182322e+02  1.182322e+02  6.698730e-01
      vertex  1.182322e+02  1.182322e+02  3.433013e+01
      vertex  1.164645e+02  1.164645e+02  0.000000e+00
    endloop
  endfacet
  facet normal  7.071068e-01 -7.071068e-01  0.000000e+00
    outer loop
      vertex  1.164645e+02  1.164645e+02  0.000000e+00
      vertex  1.182322e+02  1.182322e+02  3.433013e+01
      vertex  1.164645e+02  1.164645e+02  3.500000e+01
    endloop
  endfacet
  facet normal  7.071068e-01 -7.071068e-01  0.000000e+00
    outer loop
      vertex  1.164645e+02  1.164645e+02  0.000000e+00
      vertex  1.164645e+02  1.164645e+02  3.500000e+01
      vertex  9.296446e+01  9.296446e+01  0.000000e+00
    endloop
  endfacet
  facet normal  7.071068e-01 -7.071068e-01  0.000000e+00
    outer loop
      vertex  9.296446e+01  9.296446e+01  0.000000e+00
      vertex  1.164645e+02  1.164645e+02  3.500000e+01
      vertex  9.296446e+01  9.296446e+01  3.500000e+01
    endloop
  endfacet
  facet normal  8.314699e-01 -5.555699e-01  0.000000e+00
    outer loop
      vertex  9.296446e+01  9.296446e+01  3.500000e+01
      vertex  9.188060e+01  9.134235e+01  3.500000e+01
      vertex  9.296446e+01  9.296446e+01  0.000000e+00
    endloop
  endfacet
  facet normal  8.314699e-01 -5.555699e-01  0.000000e+00
    outer loop
      vertex  9.296446e+01  9.296446e+01  0.000000e+00
      vertex  9.188060e+01  9.134235e+01  3.500000e+01
      vertex  9.188060e+01  9.134235e+01  0.000000e+00
    endloop
  endfacet
  facet normal  9.807854e-01 -1.950895e-01  0.000000e+00
    outer loop
      vertex  9.188060e+01  9.134235e+01  3.500000e+01
      vertex  9.150000e+01  8.942893e+01  3.500000e+01
      vertex  9.188060e+01  9.134235e+01  0.000000e+00
    endloop
  endfacet
  facet normal  9.807854e-01 -1.950895e-01  0.000000e+00
    outer loop
      vertex  9.188060e+01  9.134235e+01  0.000000e+00
      vertex  9.150000e+01  8.942893e+01  3.500000e+01
      vertex  9.150000e+01  8.942893e+01  0.000000e+00
    endloop
  endfacet
  facet normal  0.000000e+00  1.000000e+00  0.000000e+00
    outer loop
      vertex  5.650000e+01  0.000000e+00  3.500000e+01
      vertex  8.350000e+01  0.000000e+00  3.500000e+01
      vertex  5.650000e+01  0.000000e+00  0.000000e+00
    endloop
  endfacet
  facet normal  0.000000e+00  1.000000e+00  0.000000e+00
    outer loop
      vertex  5.650000e+01  0.000000e+00  0.000000e+00
      vertex  8.350000e+01  0.000000e+00  3.500000e+01
      vertex  8.350000e+01  0.000000e+00  0.000000e+00
    endloop
  endfacet
  facet normal -9.659255e-01  2.588202e-01  0.000000e+00
    outer loop
      vertex  8.783012e+01  2.500000e+00  0.000000e+00
      vertex  8.850000e+01  5.000000e+00  3.500000e+01
      vertex  8.850000e+01  5.000000e+00  0.000000e+00
    endloop
  endfacet
  facet normal -9.659255e-01  2.588202e-01  0.000000e+00
    outer loop
      vertex  8.850000e+01  5.000000e+00  3.500000e+01
      vertex  8.783012e+01  2.500000e+00  0.000000e+00
      vertex  8.783012e+01  2.500000e+00  3.500000e+01
    endloop
  endfacet
  facet normal -7.071074e-01  7.071062e-01  0.000000e+00
    outer loop
      vertex  8.783012e+01  2.500000e+00  3.500000e+01
      vertex  8.783012e+01  2.500000e+00  0.000000e+00
      vertex  8.600000e+01  6.698730e-01  0.000000e+00
    endloop
  endfacet
  facet normal -7.071074e-01  7.071062e-01  0.000000e+00
    outer loop
      vertex  8.783012e+01  2.500000e+00  3.500000e+01
      vertex  8.600000e+01  6.698730e-01  0.000000e+00
      vertex  8.600000e+01  6.698730e-01  3.500000e+01
    endloop
  endfacet
  facet normal -2.588190e-01  9.659258e-01  0.000000e+00
    outer loop
      vertex  8.600000e+01  6.698730e-01  3.500000e+01
      vertex  8.600000e+01  6.698730e-01  0.000000e+00
      vertex  8.350000e+01  0.000000e+00  0.000000e+00
    endloop
  endfacet
  facet normal -2.588190e-01  9.659258e-01  0.000000e+00
    outer loop
      vertex  8.600000e+01  6.698730e-01  3.500000e+01
      vertex  8.350000e+01  0.000000e+00  0.000000e+00
      vertex  8.350000e+01  0.000000e+00  3.500000e+01
    endloop
  endfacet
  facet normal  0.000000e+00  9.999999e-01  0.000000e+00
    outer loop
      vertex  1.175000e+02  0.000000e+00  6.698730e-01
      vertex  1.193301e+02  0.000000e+00  3.250000e+01
      vertex  1.193301e+02  0.000000e+00  2.500000e+00
    endloop
  endfacet
  facet normal  0.000000e+00  1.000000e+00  0.000000e+00
    outer loop
      vertex  1.193301e+02  0.000000e+00  2.500000e+00
      vertex  1.193301e+02  0.000000e+00  3.250000e+01
      vertex  1.200000e+02  0.000000e+00  3.000000e+01
    endloop
  endfacet
  facet normal  0.000000e+00  1.000000e+00  0.000000e+00
    outer loop
      vertex  1.193301e+02  0.000000e+00  2.500000e+00
      vertex  1.200000e+02  0.000000e+00  3.000000e+01
      vertex  1.200000e+02  0.000000e+00  5.000000e+00
    endloop
  endfacet
  facet normal  0.000000e+00  1.000000e+00  0.000000e+00
    outer loop
      vertex  1.193301e+02  0.000000e+00  3.250000e+01
      vertex  1.175000e+02  0.000000e+00  6.698730e-01
      vertex  1.175000e+02  0.000000e+00  3.433013e+01
    endloop
  endfacet
  facet normal  0.000000e+00  1.000000e+00  0.000000e+00
    outer loop
      vertex  1.175000e+02  0.000000e+00  3.433013e+01
      vertex  1.175000e+02  0.000000e+00  6.698730e-01
      vertex  1.150000e+02  0.000000e+00  0.000000e+00
    endloop
  endfacet
  facet normal  0.000000e+00  1.000000e+00  0.000000e+00
    outer loop
      vertex  1.175000e+02  0.000000e+00  3.433013e+01
      vertex  1.150000e+02  0.000000e+00  0.000000e+00
      vertex  1.150000e+02  0.000000e+00  3.500000e+01
    endloop
  endfacet
  facet normal  0.000000e+00  1.000000e+00  0.000000e+00
    outer loop
      vertex  1.150000e+02  0.000000e+00  3.500000e+01
      vertex  1.150000e+02  0.000000e+00  0.000000e+00
      vertex  9.650000e+01  0.000000e+00  0.000000e+00
    endloop
  endfacet
  facet normal  0.000000e+00  1.000000e+00  0.000000e+00
    outer loop
      vertex  1.150000e+02  0.000000e+00  3.500000e+01
      vertex  9.650000e+01  0.000000e+00  0.000000e+00
      vertex  9.650000e+01  0.000000e+00  3.500000e+01
    endloop
  endfacet
  facet normal  9.659255e-01  2.588202e-01  -0.000000e+00
    outer loop
      vertex  9.216988e+01  2.500000e+00  3.500000e+01
      vertex  9.150000e+01  5.000000e+00  0.000000e+00
      vertex  9.150000e+01  5.000000e+00  3.500000e+01
    endloop
  endfacet
  facet normal  9.659255e-01  2.588202e-01  0.000000e+00
    outer loop
      vertex  9.150000e+01  5.000000e+00  0.000000e+00
      vertex  9.216988e+01  2.500000e+00  3.500000e+01
      vertex  9.216988e+01  2.500000e+00  0.000000e+00
    endloop
  endfacet
  facet normal  7.071074e-01  7.071062e-01  -0.000000e+00
    outer loop
      vertex  9.216988e+01  2.500000e+00  0.000000e+00
      vertex  9.216988e+01  2.500000e+00  3.500000e+01
      vertex  9.400000e+01  6.698730e-01  3.500000e+01
    endloop
  endfacet
  facet normal  7.071074e-01  7.071062e-01  0.000000e+00
    outer loop
      vertex  9.216988e+01  2.500000e+00  0.000000e+00
      vertex  9.400000e+01  6.698730e-01  3.500000e+01
      vertex  9.400000e+01  6.698730e-01  0.000000e+00
    endloop
  endfacet
  facet normal  2.588190e-01  9.659258e-01  -0.000000e+00
    outer loop
      vertex  9.400000e+01  6.698730e-01  0.000000e+00
      vertex  9.400000e+01  6.698730e-01  3.500000e+01
      vertex  9.650000e+01  0.000000e+00  3.500000e+01
    endloop
  endfacet
  facet normal  2.588190e-01  9.659258e-01  0.000000e+00
    outer loop
      vertex  9.400000e+01  6.698730e-01  0.000000e+00
      vertex  9.650000e+01  0.000000e+00  3.500000e+01
      vertex  9.650000e+01  0.000000e+00  0.000000e+00
    endloop
  endfacet
  facet normal -1.000000e+00  0.000000e+00  0.000000e+00
    outer loop
      vertex  4.850000e+01  5.000000e+00  0.000000e+00
      vertex  4.850000e+01  5.000000e+00  3.500000e+01
      vertex  4.850000e+01  3.642893e+01  0.000000e+00
    endloop
  endfacet
  facet normal -1.000000e+00  0.000000e+00  0.000000e+00
    outer loop
      vertex  4.850000e+01  3.642893e+01  0.000000e+00
      vertex  4.850000e+01  5.000000e+00  3.500000e+01
      vertex  4.850000e+01  3.642893e+01  3.500000e+01
    endloop
  endfacet
  facet normal  7.071068e-01 -7.071068e-01  0.000000e+00
    outer loop
      vertex  8.535534e+00  8.535534e+00  3.500000e+01
      vertex  8.535534e+00  8.535534e+00  0.000000e+00
      vertex  3.996447e+01  3.996447e+01  3.500000e+01
    endloop
  endfacet
  facet normal  7.071068e-01 -7.071068e-01  0.000000e+00
    outer loop
      vertex  3.996447e+01  3.996447e+01  3.500000e+01
      vertex  8.535534e+00  8.535534e+00  0.000000e+00
      vertex  3.996447e+01  3.996447e+01  0.000000e+00
    endloop
  endfacet
  facet normal  7.845893e-02 -9.969174e-01  0.000000e+00
    outer loop
      vertex  4.428217e+01  4.136737e+01  0.000000e+00
      vertex  4.195491e+01  4.118422e+01  3.500000e+01
      vertex  4.195491e+01  4.118422e+01  0.000000e+00
    endloop
  endfacet
  facet normal  5.224990e-01 -8.526399e-01  0.000000e+00
    outer loop
      vertex  4.195491e+01  4.118422e+01  0.000000e+00
      vertex  4.195491e+01  4.118422e+01  3.500000e+01
      vertex  3.996447e+01  3.996447e+01  3.500000e+01
    endloop
  endfacet
  facet normal  5.224990e-01 -8.526399e-01  0.000000e+00
    outer loop
      vertex  4.195491e+01  4.118422e+01  0.000000e+00
      vertex  3.996447e+01  3.996447e+01  3.500000e+01
      vertex  3.996447e+01  3.996447e+01  0.000000e+00
    endloop
  endfacet
  facet normal  7.845893e-02 -9.969174e-01  0.000000e+00
    outer loop
      vertex  4.195491e+01  4.118422e+01  3.500000e+01
      vertex  4.428217e+01  4.136737e+01  0.000000e+00
      vertex  4.428217e+01  4.136737e+01  3.500000e+01
    endloop
  endfacet
  facet normal -3.826833e-01 -9.238796e-01  -0.000000e+00
    outer loop
      vertex  4.428217e+01  4.136737e+01  3.500000e+01
      vertex  4.428217e+01  4.136737e+01  0.000000e+00
      vertex  4.643893e+01  4.047402e+01  0.000000e+00
    endloop
  endfacet
  facet normal -3.826833e-01 -9.238796e-01  0.000000e+00
    outer loop
      vertex  4.428217e+01  4.136737e+01  3.500000e+01
      vertex  4.643893e+01  4.047402e+01  0.000000e+00
      vertex  4.643893e+01  4.047402e+01  3.500000e+01
    endloop
  endfacet
  facet normal -7.604066e-01 -6.494473e-01  -0.000000e+00
    outer loop
      vertex  4.643893e+01  4.047402e+01  3.500000e+01
      vertex  4.643893e+01  4.047402e+01  0.000000e+00
      vertex  4.795503e+01  3.869888e+01  0.000000e+00
    endloop
  endfacet
  facet normal -7.604066e-01 -6.494473e-01  0.000000e+00
    outer loop
      vertex  4.643893e+01  4.047402e+01  3.500000e+01
      vertex  4.795503e+01  3.869888e+01  0.000000e+00
      vertex  4.795503e+01  3.869888e+01  3.500000e+01
    endloop
  endfacet
  facet normal -9.723698e-01 -2.334456e-01  -0.000000e+00
    outer loop
      vertex  4.795503e+01  3.869888e+01  3.500000e+01
      vertex  4.795503e+01  3.869888e+01  0.000000e+00
      vertex  4.850000e+01  3.642893e+01  0.000000e+00
    endloop
  endfacet
  facet normal -9.723698e-01 -2.334456e-01  0.000000e+00
    outer loop
      vertex  4.795503e+01  3.869888e+01  3.500000e+01
      vertex  4.850000e+01  3.642893e+01  0.000000e+00
      vertex  4.850000e+01  3.642893e+01  3.500000e+01
    endloop
  endfacet
  facet normal  1.000000e+00  0.000000e+00  0.000000e+00
    outer loop
      vertex  5.150000e+01  5.000000e+00  3.500000e+01
      vertex  5.150000e+01  5.000000e+00  0.000000e+00
      vertex  5.150000e+01  4.942893e+01  3.500000e+01
    endloop
  endfacet
  facet normal  1.000000e+00  0.000000e+00  0.000000e+00
    outer loop
      vertex  5.150000e+01  4.942893e+01  3.500000e+01
      vertex  5.150000e+01  5.000000e+00  0.000000e+00
      vertex  5.150000e+01  4.942893e+01  0.000000e+00
    endloop
  endfacet
  facet normal  8.314699e-01 -5.555699e-01  0.000000e+00
    outer loop
      vertex  5.296447e+01  5.296447e+01  3.500000e+01
      vertex  5.188060e+01  5.134235e+01  3.500000e+01
      vertex  5.296447e+01  5.296447e+01  0.000000e+00
    endloop
  endfacet
  facet normal  8.314699e-01 -5.555699e-01  0.000000e+00
    outer loop
      vertex  5.296447e+01  5.296447e+01  0.000000e+00
      vertex  5.188060e+01  5.134235e+01  3.500000e+01
      vertex  5.188060e+01  5.134235e+01  0.000000e+00
    endloop
  endfacet
  facet normal  9.807851e-01 -1.950910e-01  0.000000e+00
    outer loop
      vertex  5.188060e+01  5.134235e+01  3.500000e+01
      vertex  5.150000e+01  4.942893e+01  3.500000e+01
      vertex  5.188060e+01  5.134235e+01  0.000000e+00
    endloop
  endfacet
  facet normal  9.807851e-01 -1.950910e-01  0.000000e+00
    outer loop
      vertex  5.188060e+01  5.134235e+01  0.000000e+00
      vertex  5.150000e+01  4.942893e+01  3.500000e+01
      vertex  5.150000e+01  4.942893e+01  0.000000e+00
    endloop
  endfacet
  facet normal  9.659259e-01  2.588188e-01  -0.000000e+00
    outer loop
      vertex  5.216987e+01  2.500000e+00  3.500000e+01
      vertex  5.150000e+01  5.000000e+00  0.000000e+00
      vertex  5.150000e+01  5.000000e+00  3.500000e+01
    endloop
  endfacet
  facet normal  9.659259e-01  2.588188e-01  0.000000e+00
    outer loop
      vertex  5.150000e+01  5.000000e+00  0.000000e+00
      vertex  5.216987e+01  2.500000e+00  3.500000e+01
      vertex  5.216987e+01  2.500000e+00  0.000000e+00
    endloop
  endfacet
  facet normal  7.071066e-01  7.071069e-01  -0.000000e+00
    outer loop
      vertex  5.216987e+01  2.500000e+00  0.000000e+00
      vertex  5.216987e+01  2.500000e+00  3.500000e+01
      vertex  5.400000e+01  6.698730e-01  3.500000e+01
    endloop
  endfacet
  facet normal  7.071066e-01  7.071069e-01  0.000000e+00
    outer loop
      vertex  5.216987e+01  2.500000e+00  0.000000e+00
      vertex  5.400000e+01  6.698730e-01  3.500000e+01
      vertex  5.400000e+01  6.698730e-01  0.000000e+00
    endloop
  endfacet
  facet normal  2.588190e-01  9.659258e-01  -0.000000e+00
    outer loop
      vertex  5.400000e+01  6.698730e-01  0.000000e+00
      vertex  5.400000e+01  6.698730e-01  3.500000e+01
      vertex  5.650000e+01  0.000000e+00  3.500000e+01
    endloop
  endfacet
  facet normal  2.588190e-01  9.659258e-01  0.000000e+00
    outer loop
      vertex  5.400000e+01  6.698730e-01  0.000000e+00
      vertex  5.650000e+01  0.000000e+00  3.500000e+01
      vertex  5.650000e+01  0.000000e+00  0.000000e+00
    endloop
  endfacet
  facet normal  0.000000e+00  1.000000e+00  0.000000e+00
    outer loop
      vertex  1.207107e+01  0.000000e+00  3.500000e+01
      vertex  4.350000e+01  0.000000e+00  3.500000e+01
      vertex  1.207107e+01  0.000000e+00  0.000000e+00
    endloop
  endfacet
  facet normal  0.000000e+00  1.000000e+00  0.000000e+00
    outer loop
      vertex  1.207107e+01  0.000000e+00  0.000000e+00
      vertex  4.350000e+01  0.000000e+00  3.500000e+01
      vertex  4.350000e+01  0.000000e+00  0.000000e+00
    endloop
  endfacet
  facet normal -9.659259e-01  2.588188e-01  0.000000e+00
    outer loop
      vertex  4.783013e+01  2.500000e+00  0.000000e+00
      vertex  4.850000e+01  5.000000e+00  3.500000e+01
      vertex  4.850000e+01  5.000000e+00  0.000000e+00
    endloop
  endfacet
  facet normal -9.659259e-01  2.588188e-01  0.000000e+00
    outer loop
      vertex  4.850000e+01  5.000000e+00  3.500000e+01
      vertex  4.783013e+01  2.500000e+00  0.000000e+00
      vertex  4.783013e+01  2.500000e+00  3.500000e+01
    endloop
  endfacet
  facet normal -7.071066e-01  7.071069e-01  0.000000e+00
    outer loop
      vertex  4.783013e+01  2.500000e+00  3.500000e+01
      vertex  4.783013e+01  2.500000e+00  0.000000e+00
      vertex  4.600000e+01  6.698730e-01  0.000000e+00
    endloop
  endfacet
  facet normal -7.071066e-01  7.071069e-01  0.000000e+00
    outer loop
      vertex  4.783013e+01  2.500000e+00  3.500000e+01
      vertex  4.600000e+01  6.698730e-01  0.000000e+00
      vertex  4.600000e+01  6.698730e-01  3.500000e+01
    endloop
  endfacet
  facet normal -2.588190e-01  9.659258e-01  0.000000e+00
    outer loop
      vertex  4.600000e+01  6.698730e-01  3.500000e+01
      vertex  4.600000e+01  6.698730e-01  0.000000e+00
      vertex  4.350000e+01  0.000000e+00  0.000000e+00
    endloop
  endfacet
  facet normal -2.588190e-01  9.659258e-01  0.000000e+00
    outer loop
      vertex  4.600000e+01  6.698730e-01  3.500000e+01
      vertex  4.350000e+01  0.000000e+00  0.000000e+00
      vertex  4.350000e+01  0.000000e+00  3.500000e+01
    endloop
  endfacet
  facet normal -7.071068e-01  7.071068e-01  0.000000e+00
    outer loop
      vertex  1.949747e+00  6.192388e+00  3.500000e+01
      vertex  1.507638e+01  1.931902e+01  3.500000e+01
      vertex  1.949747e+00  6.192388e+00  0.000000e+00
    endloop
  endfacet
  facet normal -7.071068e-01  7.071068e-01  0.000000e+00
    outer loop
      vertex  1.949747e+00  6.192388e+00  0.000000e+00
      vertex  1.507638e+01  1.931902e+01  3.500000e+01
      vertex  1.507638e+01  1.931902e+01  0.000000e+00
    endloop
  endfacet
  facet normal -7.071089e-01  7.071047e-01  0.000000e+00
    outer loop
      vertex  1.161109e+02  1.203536e+02  6.698730e-01
      vertex  1.174050e+02  1.216477e+02  3.250000e+01
      vertex  1.174050e+02  1.216477e+02  2.500000e+00
    endloop
  endfacet
  facet normal -7.071068e-01  7.071068e-01  0.000000e+00
    outer loop
      vertex  1.174050e+02  1.216477e+02  2.500000e+00
      vertex  1.174050e+02  1.216477e+02  3.250000e+01
      vertex  1.178787e+02  1.221213e+02  3.000000e+01
    endloop
  endfacet
  facet normal -7.071068e-01  7.071068e-01  0.000000e+00
    outer loop
      vertex  1.174050e+02  1.216477e+02  2.500000e+00
      vertex  1.178787e+02  1.221213e+02  3.000000e+01
      vertex  1.178787e+02  1.221213e+02  5.000000e+00
    endloop
  endfacet
  facet normal -7.071089e-01  7.071047e-01  0.000000e+00
    outer loop
      vertex  1.174050e+02  1.216477e+02  3.250000e+01
      vertex  1.161109e+02  1.203536e+02  6.698730e-01
      vertex  1.161109e+02  1.203536e+02  3.433013e+01
    endloop
  endfacet
  facet normal -7.071068e-01  7.071068e-01  0.000000e+00
    outer loop
      vertex  1.161109e+02  1.203536e+02  3.433013e+01
      vertex  1.161109e+02  1.203536e+02  6.698730e-01
      vertex  1.143431e+02  1.185858e+02  0.000000e+00
    endloop
  endfacet
  facet normal -7.071068e-01  7.071068e-01  0.000000e+00
    outer loop
      vertex  1.161109e+02  1.203536e+02  3.433013e+01
      vertex  1.143431e+02  1.185858e+02  0.000000e+00
      vertex  1.143431e+02  1.185858e+02  3.500000e+01
    endloop
  endfacet
  facet normal -7.071067e-01  7.071068e-01  0.000000e+00
    outer loop
      vertex  1.143431e+02  1.185858e+02  3.500000e+01
      vertex  1.143431e+02  1.185858e+02  0.000000e+00
      vertex  1.710739e+01  2.135003e+01  0.000000e+00
    endloop
  endfacet
  facet normal -7.071067e-01  7.071068e-01  0.000000e+00
    outer loop
      vertex  1.143431e+02  1.185858e+02  3.500000e+01
      vertex  1.710739e+01  2.135003e+01  0.000000e+00
      vertex  1.710739e+01  2.135003e+01  3.500000e+01
    endloop
  endfacet
  facet normal -9.979855e-01  6.344153e-02  0.000000e+00
    outer loop
      vertex  1.683014e+01  2.046669e+01  0.000000e+00
      vertex  1.683014e+01  2.046669e+01  3.500000e+01
      vertex  1.686038e+01  2.094238e+01  0.000000e+00
    endloop
  endfacet
  facet normal -9.979855e-01  6.344153e-02  0.000000e+00
    outer loop
      vertex  1.686038e+01  2.094238e+01  0.000000e+00
      vertex  1.683014e+01  2.046669e+01  3.500000e+01
      vertex  1.686038e+01  2.094238e+01  3.500000e+01
    endloop
  endfacet
  facet normal -8.552509e-01  5.182142e-01  0.000000e+00
    outer loop
      vertex  1.686038e+01  2.094238e+01  0.000000e+00
      vertex  1.686038e+01  2.094238e+01  3.500000e+01
      vertex  1.710739e+01  2.135003e+01  0.000000e+00
    endloop
  endfacet
  facet normal -8.552509e-01  5.182142e-01  0.000000e+00
    outer loop
      vertex  1.710739e+01  2.135003e+01  0.000000e+00
      vertex  1.686038e+01  2.094238e+01  3.500000e+01
      vertex  1.710739e+01  2.135003e+01  3.500000e+01
    endloop
  endfacet
  facet normal -9.960797e-01 -8.846056e-02  0.000000e+00
    outer loop
      vertex  1.684188e+01  2.033452e+01  3.500000e+01
      vertex  1.683014e+01  2.046669e+01  3.500000e+01
      vertex  1.684188e+01  2.033452e+01  0.000000e+00
    endloop
  endfacet
  facet normal -9.960797e-01 -8.846056e-02  0.000000e+00
    outer loop
      vertex  1.684188e+01  2.033452e+01  0.000000e+00
      vertex  1.683014e+01  2.046669e+01  3.500000e+01
      vertex  1.683014e+01  2.046669e+01  0.000000e+00
    endloop
  endfacet
  facet normal -5.182133e-01  8.552514e-01  0.000000e+00
    outer loop
      vertex  1.507638e+01  1.931902e+01  0.000000e+00
      vertex  1.507638e+01  1.931902e+01  3.500000e+01
      vertex  1.548403e+01  1.956602e+01  0.000000e+00
    endloop
  endfacet
  facet normal -5.182133e-01  8.552514e-01  0.000000e+00
    outer loop
      vertex  1.548403e+01  1.956602e+01  0.000000e+00
      vertex  1.507638e+01  1.931902e+01  3.500000e+01
      vertex  1.548403e+01  1.956602e+01  3.500000e+01
    endloop
  endfacet
  facet normal -6.344166e-02  9.979855e-01  0.000000e+00
    outer loop
      vertex  1.548403e+01  1.956602e+01  0.000000e+00
      vertex  1.548403e+01  1.956602e+01  3.500000e+01
      vertex  1.595971e+01  1.959626e+01  0.000000e+00
    endloop
  endfacet
  facet normal -6.344166e-02  9.979855e-01  0.000000e+00
    outer loop
      vertex  1.595971e+01  1.959626e+01  0.000000e+00
      vertex  1.548403e+01  1.956602e+01  3.500000e+01
      vertex  1.595971e+01  1.959626e+01  3.500000e+01
    endloop
  endfacet
  facet normal -9.578652e-01  2.872183e-01  0.000000e+00
    outer loop
      vertex  1.671814e+01  1.992184e+01  0.000000e+00
      vertex  1.684188e+01  2.033452e+01  3.500000e+01
      vertex  1.684188e+01  2.033452e+01  0.000000e+00
    endloop
  endfacet
  facet normal -9.578652e-01  2.872183e-01  0.000000e+00
    outer loop
      vertex  1.684188e+01  2.033452e+01  3.500000e+01
      vertex  1.671814e+01  1.992184e+01  0.000000e+00
      vertex  1.671814e+01  1.992184e+01  3.500000e+01
    endloop
  endfacet
  facet normal -6.417816e-01  7.668875e-01  0.000000e+00
    outer loop
      vertex  1.671814e+01  1.992184e+01  3.500000e+01
      vertex  1.671814e+01  1.992184e+01  0.000000e+00
      vertex  1.638774e+01  1.964534e+01  0.000000e+00
    endloop
  endfacet
  facet normal -6.417816e-01  7.668875e-01  0.000000e+00
    outer loop
      vertex  1.671814e+01  1.992184e+01  3.500000e+01
      vertex  1.638774e+01  1.964534e+01  0.000000e+00
      vertex  1.638774e+01  1.964534e+01  3.500000e+01
    endloop
  endfacet
  facet normal -1.139235e-01  9.934894e-01  0.000000e+00
    outer loop
      vertex  1.638774e+01  1.964534e+01  3.500000e+01
      vertex  1.638774e+01  1.964534e+01  0.000000e+00
      vertex  1.595971e+01  1.959626e+01  0.000000e+00
    endloop
  endfacet
  facet normal -1.139235e-01  9.934894e-01  0.000000e+00
    outer loop
      vertex  1.638774e+01  1.964534e+01  3.500000e+01
      vertex  1.595971e+01  1.959626e+01  0.000000e+00
      vertex  1.595971e+01  1.959626e+01  3.500000e+01
    endloop
  endfacet
  facet normal  6.494481e-01  7.604059e-01  0.000000e+00
    outer loop
      vertex  8.025983e+00  2.061074e+00  0.000000e+00
      vertex  9.801115e+00  5.449674e-01  3.500000e+01
      vertex  9.801115e+00  5.449674e-01  0.000000e+00
    endloop
  endfacet
  facet normal  2.334453e-01  9.723700e-01  -0.000000e+00
    outer loop
      vertex  9.801115e+00  5.449674e-01  0.000000e+00
      vertex  9.801115e+00  5.449674e-01  3.500000e+01
      vertex  1.207107e+01  0.000000e+00  3.500000e+01
    endloop
  endfacet
  facet normal  2.334453e-01  9.723700e-01  0.000000e+00
    outer loop
      vertex  9.801115e+00  5.449674e-01  0.000000e+00
      vertex  1.207107e+01  0.000000e+00  3.500000e+01
      vertex  1.207107e+01  0.000000e+00  0.000000e+00
    endloop
  endfacet
  facet normal  6.494481e-01  7.604059e-01  -0.000000e+00
    outer loop
      vertex  9.801115e+00  5.449674e-01  3.500000e+01
      vertex  8.025983e+00  2.061074e+00  0.000000e+00
      vertex  8.025983e+00  2.061074e+00  3.500000e+01
    endloop
  endfacet
  facet normal  9.238795e-01  3.826835e-01  0.000000e+00
    outer loop
      vertex  8.025983e+00  2.061074e+00  3.500000e+01
      vertex  8.025983e+00  2.061074e+00  0.000000e+00
      vertex  7.132626e+00  4.217828e+00  0.000000e+00
    endloop
  endfacet
  facet normal  9.238795e-01  3.826835e-01  -0.000000e+00
    outer loop
      vertex  8.025983e+00  2.061074e+00  3.500000e+01
      vertex  7.132626e+00  4.217828e+00  0.000000e+00
      vertex  7.132626e+00  4.217828e+00  3.500000e+01
    endloop
  endfacet
  facet normal  9.969172e-01 -7.845919e-02  0.000000e+00
    outer loop
      vertex  7.132626e+00  4.217828e+00  3.500000e+01
      vertex  7.132626e+00  4.217828e+00  0.000000e+00
      vertex  7.315785e+00  6.545085e+00  0.000000e+00
    endloop
  endfacet
  facet normal  9.969172e-01 -7.845919e-02  0.000000e+00
    outer loop
      vertex  7.132626e+00  4.217828e+00  3.500000e+01
      vertex  7.315785e+00  6.545085e+00  0.000000e+00
      vertex  7.315785e+00  6.545085e+00  3.500000e+01
    endloop
  endfacet
  facet normal  8.526402e-01 -5.224985e-01  0.000000e+00
    outer loop
      vertex  7.315785e+00  6.545085e+00  3.500000e+01
      vertex  7.315785e+00  6.545085e+00  0.000000e+00
      vertex  8.535534e+00  8.535534e+00  0.000000e+00
    endloop
  endfacet
  facet normal  8.526402e-01 -5.224985e-01  0.000000e+00
    outer loop
      vertex  7.315785e+00  6.545085e+00  3.500000e+01
      vertex  8.535534e+00  8.535534e+00  0.000000e+00
      vertex  8.535534e+00  8.535534e+00  3.500000e+01
    endloop
  endfacet
  facet normal  7.071068e-01  7.071066e-01  0.000000e+00
    outer loop
      vertex -5.121320e+00  2.740559e+01  5.000000e+00
      vertex -7.242640e+00  2.952691e+01  5.000000e+00
      vertex -5.121320e+00  2.740559e+01  3.000000e+01
    endloop
  endfacet
  facet normal  7.071068e-01  7.071066e-01  0.000000e+00
    outer loop
      vertex -5.121320e+00  2.740559e+01  3.000000e+01
      vertex -7.242640e+00  2.952691e+01  5.000000e+00
      vertex -7.242640e+00  2.952691e+01  3.000000e+01
    endloop
  endfacet
  facet normal -7.071062e-01  7.071074e-01  4.982832e-07
    outer loop
      vertex -7.242640e+00  2.952691e+01  3.000000e+01
      vertex -9.010407e+00  2.775915e+01  3.433013e+01
      vertex -7.716312e+00  2.905324e+01  3.250000e+01
    endloop
  endfacet
  facet normal -7.071068e-01  7.071068e-01  1.423664e-06
    outer loop
      vertex -1.077817e+01  2.599138e+01  4.440892e-16
      vertex -2.209188e+01  1.467767e+01  4.440892e-16
      vertex -9.010407e+00  2.775915e+01  6.698730e-01
    endloop
  endfacet
  facet normal -7.071068e-01  7.071068e-01 -1.779582e-07
    outer loop
      vertex -1.077817e+01  2.599138e+01  3.500000e+01
      vertex -9.010407e+00  2.775915e+01  3.433013e+01
      vertex -2.209188e+01  1.467767e+01  3.500000e+01
    endloop
  endfacet
  facet normal -7.071068e-01  7.071068e-01 -1.945463e-07
    outer loop
      vertex -2.209188e+01  1.467767e+01  3.500000e+01
      vertex -9.010407e+00  2.775915e+01  3.433013e+01
      vertex -7.242640e+00  2.952691e+01  3.000000e+01
    endloop
  endfacet
  facet normal -7.071068e-01  7.071068e-01  0.000000e+00
    outer loop
      vertex -2.209188e+01  1.467767e+01  3.500000e+01
      vertex -7.242640e+00  2.952691e+01  3.000000e+01
      vertex -2.209188e+01  1.467767e+01  4.440892e-16
    endloop
  endfacet
  facet normal -7.071068e-01  7.071068e-01  0.000000e+00
    outer loop
      vertex -2.209188e+01  1.467767e+01  4.440892e-16
      vertex -7.242640e+00  2.952691e+01  3.000000e+01
      vertex -7.242640e+00  2.952691e+01  5.000000e+00
    endloop
  endfacet
  facet normal -7.071068e-01  7.071068e-01  2.431829e-08
    outer loop
      vertex -2.209188e+01  1.467767e+01  4.440892e-16
      vertex -7.242640e+00  2.952691e+01  5.000000e+00
      vertex -9.010407e+00  2.775915e+01  6.698730e-01
    endloop
  endfacet
  facet normal -7.071062e-01  7.071074e-01 -4.982832e-07
    outer loop
      vertex -9.010407e+00  2.775915e+01  6.698730e-01
      vertex -7.242640e+00  2.952691e+01  5.000000e+00
      vertex -7.716312e+00  2.905324e+01  2.500000e+00
    endloop
  endfacet
  facet normal  6.830128e-01  6.830128e-01 -2.588186e-01
    outer loop
      vertex  1.178787e+02  1.221213e+02  5.000000e+00
      vertex  1.200000e+02  1.200000e+02  5.000000e+00
      vertex  1.174050e+02  1.216477e+02  2.500000e+00
    endloop
  endfacet
  facet normal  6.830128e-01  6.830128e-01 -2.588186e-01
    outer loop
      vertex  1.174050e+02  1.216477e+02  2.500000e+00
      vertex  1.200000e+02  1.200000e+02  5.000000e+00
      vertex  1.195263e+02  1.195263e+02  2.500000e+00
    endloop
  endfacet
  facet normal  5.000002e-01  5.000002e-01 -7.071064e-01
    outer loop
      vertex  1.174050e+02  1.216477e+02  2.500000e+00
      vertex  1.195263e+02  1.195263e+02  2.500000e+00
      vertex  1.161109e+02  1.203536e+02  6.698730e-01
    endloop
  endfacet
  facet normal  5.000004e-01  4.999986e-01 -7.071075e-01
    outer loop
      vertex  1.161109e+02  1.203536e+02  6.698730e-01
      vertex  1.195263e+02  1.195263e+02  2.500000e+00
      vertex  1.182322e+02  1.182322e+02  6.698730e-01
    endloop
  endfacet
  facet normal  1.830129e-01  1.830122e-01 -9.659260e-01
    outer loop
      vertex  1.161109e+02  1.203536e+02  6.698730e-01
      vertex  1.182322e+02  1.182322e+02  6.698730e-01
      vertex  1.143431e+02  1.185858e+02  0.000000e+00
    endloop
  endfacet
  facet normal  1.830129e-01  1.830122e-01 -9.659260e-01
    outer loop
      vertex  1.143431e+02  1.185858e+02  0.000000e+00
      vertex  1.182322e+02  1.182322e+02  6.698730e-01
      vertex  1.164645e+02  1.164645e+02  0.000000e+00
    endloop
  endfacet
  facet normal  1.000000e+00  0.000000e+00  0.000000e+00
    outer loop
      vertex  1.200000e+02  0.000000e+00  5.000000e+00
      vertex  1.200000e+02  0.000000e+00  3.000000e+01
      vertex  1.200000e+02 -3.000000e+00  5.000000e+00
    endloop
  endfacet
  facet normal  1.000000e+00  0.000000e+00  0.000000e+00
    outer loop
      vertex  1.200000e+02 -3.000000e+00  5.000000e+00
      vertex  1.200000e+02  0.000000e+00  3.000000e+01
      vertex  1.200000e+02 -3.000000e+00  3.000000e+01
    endloop
  endfacet
  facet normal  0.000000e+00 -1.000000e+00  0.000000e+00
    outer loop
      vertex  1.175000e+02 -3.000000e+00  6.698730e-01
      vertex  1.150000e+02 -3.000000e+00  3.500000e+01
      vertex  1.150000e+02 -3.000000e+00  0.000000e+00
    endloop
  endfacet
  facet normal  0.000000e+00 -1.000000e+00  0.000000e+00
    outer loop
      vertex  1.150000e+02 -3.000000e+00  0.000000e+00
      vertex  1.150000e+02 -3.000000e+00  3.500000e+01
      vertex -4.242640e+00 -3.000000e+00  3.500000e+01
    endloop
  endfacet
  facet normal  0.000000e+00 -1.000000e+00  0.000000e+00
    outer loop
      vertex  1.150000e+02 -3.000000e+00  0.000000e+00
      vertex -4.242640e+00 -3.000000e+00  3.500000e+01
      vertex -4.242640e+00 -3.000000e+00  0.000000e+00
    endloop
  endfacet
  facet normal  0.000000e+00 -1.000000e+00  0.000000e+00
    outer loop
      vertex  1.150000e+02 -3.000000e+00  3.500000e+01
      vertex  1.175000e+02 -3.000000e+00  6.698730e-01
      vertex  1.175000e+02 -3.000000e+00  3.433013e+01
    endloop
  endfacet
  facet normal  0.000000e+00 -1.000000e+00  0.000000e+00
    outer loop
      vertex  1.175000e+02 -3.000000e+00  3.433013e+01
      vertex  1.175000e+02 -3.000000e+00  6.698730e-01
      vertex  1.193301e+02 -3.000000e+00  2.500000e+00
    endloop
  endfacet
  facet normal  0.000000e+00 -9.999999e-01  0.000000e+00
    outer loop
      vertex  1.175000e+02 -3.000000e+00  3.433013e+01
      vertex  1.193301e+02 -3.000000e+00  2.500000e+00
      vertex  1.193301e+02 -3.000000e+00  3.250000e+01
    endloop
  endfacet
  facet normal  0.000000e+00 -1.000000e+00  0.000000e+00
    outer loop
      vertex  1.193301e+02 -3.000000e+00  3.250000e+01
      vertex  1.193301e+02 -3.000000e+00  2.500000e+00
      vertex  1.200000e+02 -3.000000e+00  5.000000e+00
    endloop
  endfacet
  facet normal  0.000000e+00 -1.000000e+00  0.000000e+00
    outer loop
      vertex  1.193301e+02 -3.000000e+00  3.250000e+01
      vertex  1.200000e+02 -3.000000e+00  5.000000e+00
      vertex  1.200000e+02 -3.000000e+00  3.000000e+01
    endloop
  endfacet
  facet normal  7.071062e-01 -7.071074e-01 -4.982832e-07
    outer loop
      vertex -5.594992e+00  2.693192e+01  3.250000e+01
      vertex -6.889087e+00  2.563783e+01  3.433013e+01
      vertex -5.121320e+00  2.740559e+01  3.000000e+01
    endloop
  endfacet
  facet normal  7.071068e-01 -7.071068e-01  0.000000e+00
    outer loop
      vertex -6.889087e+00  2.563783e+01  6.698730e-01
      vertex -1.784924e+01  1.467767e+01  0.000000e+00
      vertex -8.656855e+00  2.387006e+01  0.000000e+00
    endloop
  endfacet
  facet normal  7.071068e-01 -7.071068e-01  6.570766e-07
    outer loop
      vertex -1.784924e+01  1.467767e+01  3.500000e+01
      vertex -6.889087e+00  2.563783e+01  3.433013e+01
      vertex -8.656855e+00  2.387006e+01  3.500000e+01
    endloop
  endfacet
  facet normal  7.071068e-01 -7.071068e-01  0.000000e+00
    outer loop
      vertex -6.889087e+00  2.563783e+01  3.433013e+01
      vertex -1.784924e+01  1.467767e+01  3.500000e+01
      vertex -5.121320e+00  2.740559e+01  3.000000e+01
    endloop
  endfacet
  facet normal  7.071068e-01 -7.071068e-01  0.000000e+00
    outer loop
      vertex -5.121320e+00  2.740559e+01  3.000000e+01
      vertex -1.784924e+01  1.467767e+01  3.500000e+01
      vertex -1.784924e+01  1.467767e+01  0.000000e+00
    endloop
  endfacet
  facet normal  7.071068e-01 -7.071068e-01  0.000000e+00
    outer loop
      vertex -5.121320e+00  2.740559e+01  3.000000e+01
      vertex -1.784924e+01  1.467767e+01  0.000000e+00
      vertex -5.121320e+00  2.740559e+01  5.000000e+00
    endloop
  endfacet
  facet normal  7.071068e-01 -7.071068e-01  0.000000e+00
    outer loop
      vertex -5.121320e+00  2.740559e+01  5.000000e+00
      vertex -1.784924e+01  1.467767e+01  0.000000e+00
      vertex -6.889087e+00  2.563783e+01  6.698730e-01
    endloop
  endfacet
  facet normal  7.071062e-01 -7.071074e-01  4.982832e-07
    outer loop
      vertex -5.121320e+00  2.740559e+01  5.000000e+00
      vertex -6.889087e+00  2.563783e+01  6.698730e-01
      vertex -5.594992e+00  2.693192e+01  2.500000e+00
    endloop
  endfacet
  facet normal  9.659256e-01  0.000000e+00 -2.588202e-01
    outer loop
      vertex  1.200000e+02  0.000000e+00  5.000000e+00
      vertex  1.200000e+02 -3.000000e+00  5.000000e+00
      vertex  1.193301e+02  0.000000e+00  2.500000e+00
    endloop
  endfacet
  facet normal  9.659256e-01  0.000000e+00 -2.588202e-01
    outer loop
      vertex  1.193301e+02  0.000000e+00  2.500000e+00
      vertex  1.200000e+02 -3.000000e+00  5.000000e+00
      vertex  1.193301e+02 -3.000000e+00  2.500000e+00
    endloop
  endfacet
  facet normal  7.071074e-01  0.000000e+00 -7.071062e-01
    outer loop
      vertex  1.193301e+02  0.000000e+00  2.500000e+00
      vertex  1.193301e+02 -3.000000e+00  2.500000e+00
      vertex  1.175000e+02  0.000000e+00  6.698730e-01
    endloop
  endfacet
  facet normal  7.071074e-01  0.000000e+00 -7.071062e-01
    outer loop
      vertex  1.175000e+02  0.000000e+00  6.698730e-01
      vertex  1.193301e+02 -3.000000e+00  2.500000e+00
      vertex  1.175000e+02 -3.000000e+00  6.698730e-01
    endloop
  endfacet
  facet normal  2.588190e-01  0.000000e+00 -9.659258e-01
    outer loop
      vertex  1.175000e+02  0.000000e+00  6.698730e-01
      vertex  1.175000e+02 -3.000000e+00  6.698730e-01
      vertex  1.150000e+02  0.000000e+00  0.000000e+00
    endloop
  endfacet
  facet normal  2.588190e-01  0.000000e+00 -9.659258e-01
    outer loop
      vertex  1.150000e+02  0.000000e+00  0.000000e+00
      vertex  1.175000e+02 -3.000000e+00  6.698730e-01
      vertex  1.150000e+02 -3.000000e+00  0.000000e+00
    endloop
  endfacet
  facet normal  6.830127e-01  6.830126e-01 -2.588194e-01
    outer loop
      vertex -7.242640e+00  2.952691e+01  5.000000e+00
      vertex -5.121320e+00  2.740559e+01  5.000000e+00
      vertex -7.716312e+00  2.905324e+01  2.500000e+00
    endloop
  endfacet
  facet normal  6.830127e-01  6.830126e-01 -2.588194e-01
    outer loop
      vertex -7.716312e+00  2.905324e+01  2.500000e+00
      vertex -5.121320e+00  2.740559e+01  5.000000e+00
      vertex -5.594992e+00  2.693192e+01  2.500000e+00
    endloop
  endfacet
  facet normal  5.000002e-01  5.000001e-01 -7.071066e-01
    outer loop
      vertex -7.716312e+00  2.905324e+01  2.500000e+00
      vertex -5.594992e+00  2.693192e+01  2.500000e+00
      vertex -9.010407e+00  2.775915e+01  6.698730e-01
    endloop
  endfacet
  facet normal  5.000002e-01  5.000001e-01 -7.071066e-01
    outer loop
      vertex -9.010407e+00  2.775915e+01  6.698730e-01
      vertex -5.594992e+00  2.693192e+01  2.500000e+00
      vertex -6.889087e+00  2.563783e+01  6.698730e-01
    endloop
  endfacet
  facet normal  1.830127e-01  1.830127e-01 -9.659258e-01
    outer loop
      vertex -9.010407e+00  2.775915e+01  6.698730e-01
      vertex -6.889087e+00  2.563783e+01  6.698730e-01
      vertex -1.077817e+01  2.599138e+01  4.440892e-16
    endloop
  endfacet
  facet normal  1.830127e-01  1.830126e-01 -9.659259e-01
    outer loop
      vertex -1.077817e+01  2.599138e+01  4.440892e-16
      vertex -6.889087e+00  2.563783e+01  6.698730e-01
      vertex -8.656855e+00  2.387006e+01  0.000000e+00
    endloop
  endfacet
  facet normal -1.950904e-01  9.807853e-01  0.000000e+00
    outer loop
      vertex -5.121320e+00  3.263456e+00  0.000000e+00
      vertex -1.294486e+00  4.024661e+00  3.500000e+01
      vertex -1.294486e+00  4.024661e+00  0.000000e+00
    endloop
  endfacet
  facet normal -5.555702e-01  8.314696e-01  0.000000e+00
    outer loop
      vertex -1.294486e+00  4.024661e+00  0.000000e+00
      vertex -1.294486e+00  4.024661e+00  3.500000e+01
      vertex  1.949747e+00  6.192388e+00  3.500000e+01
    endloop
  endfacet
  facet normal -5.555702e-01  8.314696e-01  0.000000e+00
    outer loop
      vertex -1.294486e+00  4.024661e+00  0.000000e+00
      vertex  1.949747e+00  6.192388e+00  3.500000e+01
      vertex  1.949747e+00  6.192388e+00  0.000000e+00
    endloop
  endfacet
  facet normal -1.950904e-01  9.807853e-01  0.000000e+00
    outer loop
      vertex -1.294486e+00  4.024661e+00  3.500000e+01
      vertex -5.121320e+00  3.263456e+00  0.000000e+00
      vertex -5.121320e+00  3.263456e+00  3.500000e+01
    endloop
  endfacet
  facet normal  1.950904e-01  9.807853e-01  0.000000e+00
    outer loop
      vertex -5.121320e+00  3.263456e+00  3.500000e+01
      vertex -5.121320e+00  3.263456e+00  0.000000e+00
      vertex -8.948154e+00  4.024661e+00  0.000000e+00
    endloop
  endfacet
  facet normal  1.950904e-01  9.807853e-01  -0.000000e+00
    outer loop
      vertex -5.121320e+00  3.263456e+00  3.500000e+01
      vertex -8.948154e+00  4.024661e+00  0.000000e+00
      vertex -8.948154e+00  4.024661e+00  3.500000e+01
    endloop
  endfacet
  facet normal  5.555701e-01  8.314697e-01  0.000000e+00
    outer loop
      vertex -8.948154e+00  4.024661e+00  3.500000e+01
      vertex -8.948154e+00  4.024661e+00  0.000000e+00
      vertex -1.219239e+01  6.192388e+00  0.000000e+00
    endloop
  endfacet
  facet normal  5.555701e-01  8.314697e-01  -0.000000e+00
    outer loop
      vertex -8.948154e+00  4.024661e+00  3.500000e+01
      vertex -1.219239e+01  6.192388e+00  0.000000e+00
      vertex -1.219239e+01  6.192388e+00  3.500000e+01
    endloop
  endfacet
  facet normal  2.588188e-01  -0.000000e+00  9.659259e-01
    outer loop
      vertex  1.150000e+02  0.000000e+00  3.500000e+01
      vertex  1.150000e+02 -3.000000e+00  3.500000e+01
      vertex  1.175000e+02  0.000000e+00  3.433013e+01
    endloop
  endfacet
  facet normal  2.588188e-01  0.000000e+00  9.659259e-01
    outer loop
      vertex  1.175000e+02  0.000000e+00  3.433013e+01
      vertex  1.150000e+02 -3.000000e+00  3.500000e+01
      vertex  1.175000e+02 -3.000000e+00  3.433013e+01
    endloop
  endfacet
  facet normal  7.071075e-01  -0.000000e+00  7.071060e-01
    outer loop
      vertex  1.175000e+02  0.000000e+00  3.433013e+01
      vertex  1.175000e+02 -3.000000e+00  3.433013e+01
      vertex  1.193301e+02  0.000000e+00  3.250000e+01
    endloop
  endfacet
  facet normal  7.071075e-01  0.000000e+00  7.071060e-01
    outer loop
      vertex  1.193301e+02  0.000000e+00  3.250000e+01
      vertex  1.175000e+02 -3.000000e+00  3.433013e+01
      vertex  1.193301e+02 -3.000000e+00  3.250000e+01
    endloop
  endfacet
  facet normal  9.659256e-01  -0.000000e+00  2.588202e-01
    outer loop
      vertex  1.193301e+02  0.000000e+00  3.250000e+01
      vertex  1.193301e+02 -3.000000e+00  3.250000e+01
      vertex  1.200000e+02  0.000000e+00  3.000000e+01
    endloop
  endfacet
  facet normal  9.659256e-01  0.000000e+00  2.588202e-01
    outer loop
      vertex  1.200000e+02  0.000000e+00  3.000000e+01
      vertex  1.193301e+02 -3.000000e+00  3.250000e+01
      vertex  1.200000e+02 -3.000000e+00  3.000000e+01
    endloop
  endfacet
  facet normal  7.071068e-01  7.071068e-01  0.000000e+00
    outer loop
      vertex  1.178787e+02  1.221213e+02  5.000000e+00
      vertex  1.178787e+02  1.221213e+02  3.000000e+01
      vertex  1.200000e+02  1.200000e+02  5.000000e+00
    endloop
  endfacet
  facet normal  7.071068e-01  7.071068e-01  -0.000000e+00
    outer loop
      vertex  1.200000e+02  1.200000e+02  5.000000e+00
      vertex  1.178787e+02  1.221213e+02  3.000000e+01
      vertex  1.200000e+02  1.200000e+02  3.000000e+01
    endloop
  endfacet
  facet normal  1.830127e-01  1.830120e-01  9.659260e-01
    outer loop
      vertex  1.143431e+02  1.185858e+02  3.500000e+01
      vertex  1.164645e+02  1.164645e+02  3.500000e+01
      vertex  1.161109e+02  1.203536e+02  3.433013e+01
    endloop
  endfacet
  facet normal  1.830127e-01  1.830120e-01  9.659260e-01
    outer loop
      vertex  1.161109e+02  1.203536e+02  3.433013e+01
      vertex  1.164645e+02  1.164645e+02  3.500000e+01
      vertex  1.182322e+02  1.182322e+02  3.433013e+01
    endloop
  endfacet
  facet normal  5.000012e-01  4.999994e-01  7.071064e-01
    outer loop
      vertex  1.161109e+02  1.203536e+02  3.433013e+01
      vertex  1.182322e+02  1.182322e+02  3.433013e+01
      vertex  1.174050e+02  1.216477e+02  3.250000e+01
    endloop
  endfacet
  facet normal  4.999996e-01  4.999996e-01  7.071074e-01
    outer loop
      vertex  1.174050e+02  1.216477e+02  3.250000e+01
      vertex  1.182322e+02  1.182322e+02  3.433013e+01
      vertex  1.195263e+02  1.195263e+02  3.250000e+01
    endloop
  endfacet
  facet normal  6.830128e-01  6.830128e-01  2.588186e-01
    outer loop
      vertex  1.174050e+02  1.216477e+02  3.250000e+01
      vertex  1.195263e+02  1.195263e+02  3.250000e+01
      vertex  1.178787e+02  1.221213e+02  3.000000e+01
    endloop
  endfacet
  facet normal  6.830128e-01  6.830128e-01  2.588186e-01
    outer loop
      vertex  1.178787e+02  1.221213e+02  3.000000e+01
      vertex  1.195263e+02  1.195263e+02  3.250000e+01
      vertex  1.200000e+02  1.200000e+02  3.000000e+01
    endloop
  endfacet
  facet normal  6.830127e-01  6.830126e-01  2.588194e-01
    outer loop
      vertex -5.121320e+00  2.740559e+01  3.000000e+01
      vertex -7.242640e+00  2.952691e+01  3.000000e+01
      vertex -5.594992e+00  2.693192e+01  3.250000e+01
    endloop
  endfacet
  facet normal  6.830127e-01  6.830126e-01  2.588194e-01
    outer loop
      vertex -5.594992e+00  2.693192e+01  3.250000e+01
      vertex -7.242640e+00  2.952691e+01  3.000000e+01
      vertex -7.716312e+00  2.905324e+01  3.250000e+01
    endloop
  endfacet
  facet normal  5.000002e-01  5.000002e-01  7.071065e-01
    outer loop
      vertex -5.594992e+00  2.693192e+01  3.250000e+01
      vertex -7.716312e+00  2.905324e+01  3.250000e+01
      vertex -6.889087e+00  2.563783e+01  3.433013e+01
    endloop
  endfacet
  facet normal  5.000002e-01  5.000002e-01  7.071065e-01
    outer loop
      vertex -6.889087e+00  2.563783e+01  3.433013e+01
      vertex -7.716312e+00  2.905324e+01  3.250000e+01
      vertex -9.010407e+00  2.775915e+01  3.433013e+01
    endloop
  endfacet
  facet normal  1.830125e-01  1.830125e-01  9.659259e-01
    outer loop
      vertex -6.889087e+00  2.563783e+01  3.433013e+01
      vertex -9.010407e+00  2.775915e+01  3.433013e+01
      vertex -8.656855e+00  2.387006e+01  3.500000e+01
    endloop
  endfacet
  facet normal  1.830126e-01  1.830125e-01  9.659259e-01
    outer loop
      vertex -8.656855e+00  2.387006e+01  3.500000e+01
      vertex -9.010407e+00  2.775915e+01  3.433013e+01
      vertex -1.077817e+01  2.599138e+01  3.500000e+01
    endloop
  endfacet
  facet normal -7.071068e-01 -7.071068e-01  0.000000e+00
    outer loop
      vertex -2.209188e+01  1.184924e+01  3.500000e+01
      vertex -2.209188e+01  1.184924e+01  0.000000e+00
      vertex -7.242640e+00 -3.000000e+00  3.500000e+01
    endloop
  endfacet
  facet normal -7.071068e-01 -7.071068e-01  -0.000000e+00
    outer loop
      vertex -7.242640e+00 -3.000000e+00  3.500000e+01
      vertex -2.209188e+01  1.184924e+01  0.000000e+00
      vertex -7.242640e+00 -3.000000e+00  4.440892e-16
    endloop
  endfacet
  facet normal -9.238794e-01  3.826838e-01  0.000000e+00
    outer loop
      vertex -2.209188e+01  1.467767e+01  3.500000e+01
      vertex -2.209188e+01  1.467767e+01  4.440892e-16
      vertex -2.267767e+01  1.326346e+01  3.500000e+01
    endloop
  endfacet
  facet normal -9.238794e-01  3.826838e-01  0.000000e+00
    outer loop
      vertex -2.267767e+01  1.326346e+01  3.500000e+01
      vertex -2.209188e+01  1.467767e+01  4.440892e-16
      vertex -2.267767e+01  1.326346e+01  0.000000e+00
    endloop
  endfacet
  facet normal -9.238795e-01 -3.826835e-01  0.000000e+00
    outer loop
      vertex -2.267767e+01  1.326346e+01  3.500000e+01
      vertex -2.267767e+01  1.326346e+01  0.000000e+00
      vertex -2.209188e+01  1.184924e+01  3.500000e+01
    endloop
  endfacet
  facet normal -9.238795e-01 -3.826835e-01  -0.000000e+00
    outer loop
      vertex -2.209188e+01  1.184924e+01  3.500000e+01
      vertex -2.267767e+01  1.326346e+01  0.000000e+00
      vertex -2.209188e+01  1.184924e+01  0.000000e+00
    endloop
  endfacet
  facet normal  7.071068e-01  7.071068e-01  0.000000e+00
    outer loop
      vertex -1.784924e+01  1.184924e+01  0.000000e+00
      vertex -1.784924e+01  1.184924e+01  3.500000e+01
      vertex -1.219239e+01  6.192388e+00  0.000000e+00
    endloop
  endfacet
  facet normal  7.071068e-01  7.071068e-01  -0.000000e+00
    outer loop
      vertex -1.219239e+01  6.192388e+00  0.000000e+00
      vertex -1.784924e+01  1.184924e+01  3.500000e+01
      vertex -1.219239e+01  6.192388e+00  3.500000e+01
    endloop
  endfacet
  facet normal  9.238799e-01  3.826824e-01  0.000000e+00
    outer loop
      vertex -1.784924e+01  1.184924e+01  0.000000e+00
      vertex -1.843503e+01  1.326346e+01  0.000000e+00
      vertex -1.784924e+01  1.184924e+01  3.500000e+01
    endloop
  endfacet
  facet normal  9.238799e-01  3.826824e-01  0.000000e+00
    outer loop
      vertex -1.784924e+01  1.184924e+01  3.500000e+01
      vertex -1.843503e+01  1.326346e+01  0.000000e+00
      vertex -1.843503e+01  1.326346e+01  3.500000e+01
    endloop
  endfacet
  facet normal  9.238799e-01 -3.826827e-01  0.000000e+00
    outer loop
      vertex -1.843503e+01  1.326346e+01  0.000000e+00
      vertex -1.784924e+01  1.467767e+01  0.000000e+00
      vertex -1.843503e+01  1.326346e+01  3.500000e+01
    endloop
  endfacet
  facet normal  9.238799e-01 -3.826827e-01  0.000000e+00
    outer loop
      vertex -1.843503e+01  1.326346e+01  3.500000e+01
      vertex -1.784924e+01  1.467767e+01  0.000000e+00
      vertex -1.784924e+01  1.467767e+01  3.500000e+01
    endloop
  endfacet
  facet normal  0.000000e+00 -1.000000e+00  0.000000e+00
    outer loop
      vertex -4.242640e+00 -3.000000e+00  3.500000e+01
      vertex -7.242640e+00 -3.000000e+00  3.500000e+01
      vertex -4.242640e+00 -3.000000e+00  0.000000e+00
    endloop
  endfacet
  facet normal  0.000000e+00 -1.000000e+00  0.000000e+00
    outer loop
      vertex -4.242640e+00 -3.000000e+00  0.000000e+00
      vertex -7.242640e+00 -3.000000e+00  3.500000e+01
      vertex -7.242640e+00 -3.000000e+00  4.440892e-16
    endloop
  endfacet
endsolid CATIA STL
